<?xml version="1.0" encoding="UTF-8" standalone="no"?>
<svg
   xmlns:ns2="http://www.iki.fi/pav/software/textext/"
   xmlns:dc="http://purl.org/dc/elements/1.1/"
   xmlns:cc="http://creativecommons.org/ns#"
   xmlns:rdf="http://www.w3.org/1999/02/22-rdf-syntax-ns#"
   xmlns:svg="http://www.w3.org/2000/svg"
   xmlns="http://www.w3.org/2000/svg"
   xmlns:sodipodi="http://sodipodi.sourceforge.net/DTD/sodipodi-0.dtd"
   xmlns:inkscape="http://www.inkscape.org/namespaces/inkscape"
   width="58.508331mm"
   height="11.006823mm"
   viewBox="0 0 58.508331 11.006823"
   version="1.1"
   id="svg8"
   inkscape:version="1.0 (4035a4fb49, 2020-05-01)"
   sodipodi:docname="basis_state.svg">
  <defs
     id="defs2">
    <rect
       id="rect1932"
       height="5.2916667"
       width="5.2916667"
       y="1.3229166"
       x="22.489583" />
    <g
       id="id-ddb4c251-ea00-45ce-8456-dfd45cf07d99-0">
      <symbol
         overflow="visible"
         id="id-19d160b4-bc59-421e-854f-c5ddbe763b56-2">
        <path
           style="stroke:none"
           d=""
           id="id-ddd79b8e-87f2-4769-a2bd-00cfd4b3e3d9-3" />
      </symbol>
      <symbol
         overflow="visible"
         id="id-13eda9d9-a1dd-4658-b9db-63cd1b5bc8d8-7">
        <path
           style="stroke:none"
           d="M 3.296875,-3.34375 C 3.421875,-3.8125 3.5625,-4.3125 3.65625,-4.796875 3.78125,-5.46875 3.84375,-6.125 3.84375,-6.25 c 0,-0.5625 -0.546875,-0.5625 -0.65625,-0.5625 -0.765625,0 -1.4375,0.28125 -1.90625,0.609375 C 0.46875,-5.65625 0.203125,-5 0.203125,-4.9375 c 0,0.0625 0.078125,0.0625 0.109375,0.0625 0.078125,0 0.546875,-0.125 0.75,-0.5 0.265625,-0.5 0.5625,-0.890625 1.453125,-0.890625 C 2.9375,-6.265625 3,-5.984375 3,-5.828125 3,-5.8125 2.96875,-5.34375 2.84375,-4.65625 2.796875,-4.375 2.765625,-4.203125 2.5625,-3.34375 H 2.203125 c -0.28125,0.015625 -0.734375,0.328125 -0.734375,0.484375 0,0.0625 0,0.0625 0.21875,0.0625 h 0.71875 c -0.203125,0.703125 -0.484375,1.65625 -0.9375,2.875 C 1.375,0.3125 1.375,0.328125 1.375,0.34375 c 0,0.0625 0.078125,0.0625 0.09375,0.0625 0.140625,0 0.453125,-0.125 0.65625,-0.328125 C 2.171875,0.015625 2.1875,0 2.234375,-0.09375 2.578125,-0.984375 2.875,-1.875 3.140625,-2.796875 h 2.25 c 0.109375,0 0.296875,0 0.453125,-0.09375 -0.109375,0.421875 -0.515625,2.046875 -0.515625,2.828125 0,0.296875 0.171875,0.546875 0.59375,0.546875 1.328125,0 2.0625,-0.828125 2.0625,-1.140625 0,-0.0625 -0.046875,-0.078125 -0.09375,-0.078125 -0.078125,0 -0.609375,0.140625 -0.765625,0.53125 C 7.09375,-0.125 7.078125,-0.125 6.890625,-0.09375 6.78125,-0.0625 6.59375,-0.0625 6.578125,-0.0625 c -0.171875,0 -0.40625,-0.109375 -0.40625,-0.421875 0,-0.125 0.0625,-0.671875 0.09375,-0.890625 C 6.4375,-2.484375 6.921875,-4.359375 7.78125,-6.625 7.8125,-6.703125 7.8125,-6.71875 7.8125,-6.734375 7.8125,-6.8125 7.75,-6.8125 7.71875,-6.8125 c -0.15625,0 -0.4375,0.140625 -0.625,0.3125 -0.015625,0.015625 -0.078125,0.0625 -0.109375,0.15625 -0.40625,0.984375 -0.71875,1.984375 -1.015625,3 z m 0,0"
           id="id-2d0e46a5-b337-46eb-9b2b-c6fb1f95ece2-5" />
      </symbol>
      <symbol
         overflow="visible"
         id="id-febe95a0-2304-4658-938d-9fa4c466026c-9">
        <path
           style="stroke:none"
           d=""
           id="id-938b6e28-b4b9-460c-9547-0ff50e7b77b8-2" />
      </symbol>
      <symbol
         overflow="visible"
         id="id-f7d68f8c-9d91-44c9-afe0-c66aac216a7e-2">
        <path
           style="stroke:none"
           d="m 3.6875,-1.140625 v -0.25 H 2.90625 V -4.5 c 0,-0.140625 0,-0.203125 -0.140625,-0.203125 -0.09375,0 -0.125,0 -0.1875,0.109375 l -2.3125,3.203125 v 0.25 h 2.0625 v 0.5625 c 0,0.25 0,0.328125 -0.578125,0.328125 H 1.5625 V 0 C 1.921875,-0.015625 2.359375,-0.03125 2.609375,-0.03125 2.875,-0.03125 3.3125,-0.015625 3.671875,0 v -0.25 h -0.1875 C 2.90625,-0.25 2.90625,-0.328125 2.90625,-0.578125 v -0.5625 z M 2.375,-3.9375 v 2.546875 H 0.53125 Z m 0,0"
           id="id-06b2cc7d-0112-4424-b1a5-3f00a1df7cf4-8" />
      </symbol>
    </g>
    <g
       id="id-ddb4c251-ea00-45ce-8456-dfd45cf07d99-9">
      <symbol
         overflow="visible"
         id="id-19d160b4-bc59-421e-854f-c5ddbe763b56-4">
        <path
           style="stroke:none"
           d=""
           id="id-ddd79b8e-87f2-4769-a2bd-00cfd4b3e3d9-7" />
      </symbol>
      <symbol
         overflow="visible"
         id="id-13eda9d9-a1dd-4658-b9db-63cd1b5bc8d8-8">
        <path
           style="stroke:none"
           d="M 3.296875,-3.34375 C 3.421875,-3.8125 3.5625,-4.3125 3.65625,-4.796875 3.78125,-5.46875 3.84375,-6.125 3.84375,-6.25 c 0,-0.5625 -0.546875,-0.5625 -0.65625,-0.5625 -0.765625,0 -1.4375,0.28125 -1.90625,0.609375 C 0.46875,-5.65625 0.203125,-5 0.203125,-4.9375 c 0,0.0625 0.078125,0.0625 0.109375,0.0625 0.078125,0 0.546875,-0.125 0.75,-0.5 0.265625,-0.5 0.5625,-0.890625 1.453125,-0.890625 C 2.9375,-6.265625 3,-5.984375 3,-5.828125 3,-5.8125 2.96875,-5.34375 2.84375,-4.65625 2.796875,-4.375 2.765625,-4.203125 2.5625,-3.34375 H 2.203125 c -0.28125,0.015625 -0.734375,0.328125 -0.734375,0.484375 0,0.0625 0,0.0625 0.21875,0.0625 h 0.71875 c -0.203125,0.703125 -0.484375,1.65625 -0.9375,2.875 C 1.375,0.3125 1.375,0.328125 1.375,0.34375 c 0,0.0625 0.078125,0.0625 0.09375,0.0625 0.140625,0 0.453125,-0.125 0.65625,-0.328125 C 2.171875,0.015625 2.1875,0 2.234375,-0.09375 2.578125,-0.984375 2.875,-1.875 3.140625,-2.796875 h 2.25 c 0.109375,0 0.296875,0 0.453125,-0.09375 -0.109375,0.421875 -0.515625,2.046875 -0.515625,2.828125 0,0.296875 0.171875,0.546875 0.59375,0.546875 1.328125,0 2.0625,-0.828125 2.0625,-1.140625 0,-0.0625 -0.046875,-0.078125 -0.09375,-0.078125 -0.078125,0 -0.609375,0.140625 -0.765625,0.53125 C 7.09375,-0.125 7.078125,-0.125 6.890625,-0.09375 6.78125,-0.0625 6.59375,-0.0625 6.578125,-0.0625 c -0.171875,0 -0.40625,-0.109375 -0.40625,-0.421875 0,-0.125 0.0625,-0.671875 0.09375,-0.890625 C 6.4375,-2.484375 6.921875,-4.359375 7.78125,-6.625 7.8125,-6.703125 7.8125,-6.71875 7.8125,-6.734375 7.8125,-6.8125 7.75,-6.8125 7.71875,-6.8125 c -0.15625,0 -0.4375,0.140625 -0.625,0.3125 -0.015625,0.015625 -0.078125,0.0625 -0.109375,0.15625 -0.40625,0.984375 -0.71875,1.984375 -1.015625,3 z m 0,0"
           id="id-2d0e46a5-b337-46eb-9b2b-c6fb1f95ece2-4" />
      </symbol>
      <symbol
         overflow="visible"
         id="id-febe95a0-2304-4658-938d-9fa4c466026c-5">
        <path
           style="stroke:none"
           d=""
           id="id-938b6e28-b4b9-460c-9547-0ff50e7b77b8-0" />
      </symbol>
      <symbol
         overflow="visible"
         id="id-f7d68f8c-9d91-44c9-afe0-c66aac216a7e-3">
        <path
           style="stroke:none"
           d="m 3.6875,-1.140625 v -0.25 H 2.90625 V -4.5 c 0,-0.140625 0,-0.203125 -0.140625,-0.203125 -0.09375,0 -0.125,0 -0.1875,0.109375 l -2.3125,3.203125 v 0.25 h 2.0625 v 0.5625 c 0,0.25 0,0.328125 -0.578125,0.328125 H 1.5625 V 0 C 1.921875,-0.015625 2.359375,-0.03125 2.609375,-0.03125 2.875,-0.03125 3.3125,-0.015625 3.671875,0 v -0.25 h -0.1875 C 2.90625,-0.25 2.90625,-0.328125 2.90625,-0.578125 v -0.5625 z M 2.375,-3.9375 v 2.546875 H 0.53125 Z m 0,0"
           id="id-06b2cc7d-0112-4424-b1a5-3f00a1df7cf4-6" />
      </symbol>
    </g>
    <g
       id="id-ddb4c251-ea00-45ce-8456-dfd45cf07d99-5">
      <symbol
         overflow="visible"
         id="id-19d160b4-bc59-421e-854f-c5ddbe763b56-47">
        <path
           style="stroke:none"
           d=""
           id="id-ddd79b8e-87f2-4769-a2bd-00cfd4b3e3d9-6" />
      </symbol>
      <symbol
         overflow="visible"
         id="id-13eda9d9-a1dd-4658-b9db-63cd1b5bc8d8-5">
        <path
           style="stroke:none"
           d="M 3.296875,-3.34375 C 3.421875,-3.8125 3.5625,-4.3125 3.65625,-4.796875 3.78125,-5.46875 3.84375,-6.125 3.84375,-6.25 c 0,-0.5625 -0.546875,-0.5625 -0.65625,-0.5625 -0.765625,0 -1.4375,0.28125 -1.90625,0.609375 C 0.46875,-5.65625 0.203125,-5 0.203125,-4.9375 c 0,0.0625 0.078125,0.0625 0.109375,0.0625 0.078125,0 0.546875,-0.125 0.75,-0.5 0.265625,-0.5 0.5625,-0.890625 1.453125,-0.890625 C 2.9375,-6.265625 3,-5.984375 3,-5.828125 3,-5.8125 2.96875,-5.34375 2.84375,-4.65625 2.796875,-4.375 2.765625,-4.203125 2.5625,-3.34375 H 2.203125 c -0.28125,0.015625 -0.734375,0.328125 -0.734375,0.484375 0,0.0625 0,0.0625 0.21875,0.0625 h 0.71875 c -0.203125,0.703125 -0.484375,1.65625 -0.9375,2.875 C 1.375,0.3125 1.375,0.328125 1.375,0.34375 c 0,0.0625 0.078125,0.0625 0.09375,0.0625 0.140625,0 0.453125,-0.125 0.65625,-0.328125 C 2.171875,0.015625 2.1875,0 2.234375,-0.09375 2.578125,-0.984375 2.875,-1.875 3.140625,-2.796875 h 2.25 c 0.109375,0 0.296875,0 0.453125,-0.09375 -0.109375,0.421875 -0.515625,2.046875 -0.515625,2.828125 0,0.296875 0.171875,0.546875 0.59375,0.546875 1.328125,0 2.0625,-0.828125 2.0625,-1.140625 0,-0.0625 -0.046875,-0.078125 -0.09375,-0.078125 -0.078125,0 -0.609375,0.140625 -0.765625,0.53125 C 7.09375,-0.125 7.078125,-0.125 6.890625,-0.09375 6.78125,-0.0625 6.59375,-0.0625 6.578125,-0.0625 c -0.171875,0 -0.40625,-0.109375 -0.40625,-0.421875 0,-0.125 0.0625,-0.671875 0.09375,-0.890625 C 6.4375,-2.484375 6.921875,-4.359375 7.78125,-6.625 7.8125,-6.703125 7.8125,-6.71875 7.8125,-6.734375 7.8125,-6.8125 7.75,-6.8125 7.71875,-6.8125 c -0.15625,0 -0.4375,0.140625 -0.625,0.3125 -0.015625,0.015625 -0.078125,0.0625 -0.109375,0.15625 -0.40625,0.984375 -0.71875,1.984375 -1.015625,3 z m 0,0"
           id="id-2d0e46a5-b337-46eb-9b2b-c6fb1f95ece2-6" />
      </symbol>
      <symbol
         overflow="visible"
         id="id-febe95a0-2304-4658-938d-9fa4c466026c-93">
        <path
           style="stroke:none"
           d=""
           id="id-938b6e28-b4b9-460c-9547-0ff50e7b77b8-7" />
      </symbol>
      <symbol
         overflow="visible"
         id="id-f7d68f8c-9d91-44c9-afe0-c66aac216a7e-4">
        <path
           style="stroke:none"
           d="m 3.6875,-1.140625 v -0.25 H 2.90625 V -4.5 c 0,-0.140625 0,-0.203125 -0.140625,-0.203125 -0.09375,0 -0.125,0 -0.1875,0.109375 l -2.3125,3.203125 v 0.25 h 2.0625 v 0.5625 c 0,0.25 0,0.328125 -0.578125,0.328125 H 1.5625 V 0 C 1.921875,-0.015625 2.359375,-0.03125 2.609375,-0.03125 2.875,-0.03125 3.3125,-0.015625 3.671875,0 v -0.25 h -0.1875 C 2.90625,-0.25 2.90625,-0.328125 2.90625,-0.578125 v -0.5625 z M 2.375,-3.9375 v 2.546875 H 0.53125 Z m 0,0"
           id="id-06b2cc7d-0112-4424-b1a5-3f00a1df7cf4-5" />
      </symbol>
    </g>
  </defs>
  <sodipodi:namedview
     fit-margin-bottom="0"
     fit-margin-right="0"
     fit-margin-left="0"
     fit-margin-top="0"
     inkscape:guide-bbox="true"
     showguides="true"
     inkscape:window-maximized="1"
     inkscape:window-y="0"
     inkscape:window-x="0"
     inkscape:window-height="1049"
     inkscape:window-width="1890"
     showgrid="true"
     inkscape:document-rotation="0"
     inkscape:current-layer="layer1"
     inkscape:document-units="mm"
     inkscape:cy="11.435932"
     inkscape:cx="63.298825"
     inkscape:zoom="4.9378161"
     inkscape:pageshadow="2"
     inkscape:pageopacity="0.0"
     borderopacity="1.0"
     bordercolor="#666666"
     pagecolor="#ffffff"
     id="base">
    <inkscape:grid
       originy="-1.1729167"
       originx="-1.1729166"
       id="grid833"
       type="xygrid" />
    <sodipodi:guide
       id="guide1072"
       orientation="0,-1"
       position="35.86875,4.2422485" />
    <sodipodi:guide
       id="guide1078"
       orientation="0,-1"
       position="32.429167,3.4484985" />
    <sodipodi:guide
       id="guide1928"
       orientation="0,-1"
       position="40.895833,1.5964085" />
  </sodipodi:namedview>
  <metadata
     id="metadata5">
    <rdf:RDF>
      <cc:Work
         rdf:about="">
        <dc:format>image/svg+xml</dc:format>
        <dc:type
           rdf:resource="http://purl.org/dc/dcmitype/StillImage" />
        <dc:title />
      </cc:Work>
    </rdf:RDF>
  </metadata>
  <g
     transform="translate(-1.1729166,-1.1729166)"
     id="layer1"
     inkscape:groupmode="layer"
     inkscape:label="Layer 1">
    <rect
       y="1.3229166"
       x="17.19792"
       height="5.2916665"
       width="5.2916665"
       id="rect837"
       style="fill:#ffffff;stroke:#000000;stroke-width:0.3;stroke-linecap:round;stroke-linejoin:bevel;stroke-miterlimit:4;stroke-dasharray:none;stroke-dashoffset:0" />
    <rect
       style="fill:#87aade;stroke:#000000;stroke-width:0.3;stroke-linecap:round;stroke-linejoin:bevel;stroke-miterlimit:4;stroke-dasharray:none;stroke-dashoffset:0"
       id="rect837-3"
       width="5.2916665"
       height="5.2916665"
       x="22.489586"
       y="1.3229166" />
    <rect
       style="fill:#ffe680;stroke:#000000;stroke-width:0.3;stroke-linecap:round;stroke-linejoin:bevel;stroke-miterlimit:4;stroke-dasharray:none;stroke-dashoffset:0"
       id="rect837-2"
       width="5.2916665"
       height="5.2916665"
       x="27.781254"
       y="1.3229166" />
    <rect
       y="1.3229166"
       x="33.072918"
       height="5.2916665"
       width="5.2916665"
       id="rect837-3-7"
       style="fill:#ffe680;stroke:#000000;stroke-width:0.3;stroke-linecap:round;stroke-linejoin:bevel;stroke-miterlimit:4;stroke-dasharray:none;stroke-dashoffset:0" />
    <rect
       y="1.3229166"
       x="38.364582"
       height="5.2916665"
       width="5.2916665"
       id="rect837-2-0"
       style="fill:#b3ff80;stroke:#000000;stroke-width:0.3;stroke-linecap:round;stroke-linejoin:bevel;stroke-miterlimit:4;stroke-dasharray:none;stroke-dashoffset:0" />
    <rect
       style="fill:#b3ff80;stroke:#000000;stroke-width:0.3;stroke-linecap:round;stroke-linejoin:bevel;stroke-miterlimit:4;stroke-dasharray:none;stroke-dashoffset:0"
       id="rect837-3-7-9"
       width="5.2916665"
       height="5.2916665"
       x="43.65625"
       y="1.3229166" />
    <rect
       y="1.3229166"
       x="1.3229166"
       height="5.2916665"
       width="5.2916665"
       id="rect837-3-7-9-3"
       style="fill:#ffffff;stroke:#000000;stroke-width:0.3;stroke-linecap:round;stroke-linejoin:bevel;stroke-miterlimit:4;stroke-dasharray:none;stroke-dashoffset:0" />
    <rect
       y="1.3229166"
       x="48.947918"
       height="5.2916665"
       width="5.2916665"
       id="rect837-3-7-9-6"
       style="fill:#b3ff80;stroke:#000000;stroke-width:0.3;stroke-linecap:round;stroke-linejoin:bevel;stroke-miterlimit:4;stroke-dasharray:none;stroke-dashoffset:0" />
    <rect
       y="1.3229166"
       x="54.239582"
       height="5.2916665"
       width="5.2916665"
       id="rect837-3-7-9-0"
       style="fill:#ffaaaa;stroke:#000000;stroke-width:0.3;stroke-linecap:round;stroke-linejoin:bevel;stroke-miterlimit:4;stroke-dasharray:none;stroke-dashoffset:0" />
    <text
       id="text1066"
       y="4.1536026"
       x="9.3177595"
       style="font-style:normal;font-variant:normal;font-weight:normal;font-stretch:normal;font-size:7.05556px;line-height:125%;font-family:'Times New Roman';-inkscape-font-specification:'Times New Roman, ';letter-spacing:0px;word-spacing:0px;fill:#000000;fill-opacity:1;stroke:none;stroke-width:0.264583px;stroke-linecap:butt;stroke-linejoin:miter;stroke-opacity:1"
       xml:space="preserve"><tspan
         style="font-size:7.05556px;stroke-width:0.264583px"
         y="4.1536026"
         x="9.3177595"
         id="tspan1064"
         sodipodi:role="line">...</tspan></text>
    <text
       transform="matrix(0,0.51199896,-1.953129,0,0,0)"
       id="text1076"
       y="-15.548774"
       x="14.991233"
       style="font-style:normal;font-variant:normal;font-weight:normal;font-stretch:normal;font-size:5.77595px;line-height:125%;font-family:'Times New Roman';-inkscape-font-specification:'Times New Roman, ';letter-spacing:0px;word-spacing:0px;fill:#000000;fill-opacity:1;stroke:none;stroke-width:0.264584px;stroke-linecap:butt;stroke-linejoin:miter;stroke-opacity:1"
       xml:space="preserve"><tspan
         style="stroke-width:0.264584px"
         y="-15.548774"
         x="14.991233"
         id="tspan1074"
         sodipodi:role="line">}</tspan></text>
    <text
       xml:space="preserve"
       style="font-style:normal;font-variant:normal;font-weight:normal;font-stretch:normal;font-size:7.12402px;line-height:125%;font-family:'Times New Roman';-inkscape-font-specification:'Times New Roman, ';letter-spacing:0px;word-spacing:0px;fill:#000000;fill-opacity:1;stroke:none;stroke-width:0.264584px;stroke-linecap:butt;stroke-linejoin:miter;stroke-opacity:1"
       x="18.50045"
       y="-17.524996"
       id="text1076-6"
       transform="matrix(0,0.41511451,-2.4089738,0,0,0)"><tspan
         sodipodi:role="line"
         id="tspan1074-2"
         x="18.50045"
         y="-17.524996"
         style="stroke-width:0.264584px">}</tspan></text>
    <text
       transform="matrix(0,0.74365713,-1.3447057,0,0,0)"
       id="text1076-6-6"
       y="-41.35545"
       x="10.321742"
       style="font-style:normal;font-variant:normal;font-weight:normal;font-stretch:normal;font-size:3.97667px;line-height:125%;font-family:'Times New Roman';-inkscape-font-specification:'Times New Roman, ';letter-spacing:0px;word-spacing:0px;fill:#000000;fill-opacity:1;stroke:none;stroke-width:0.264583px;stroke-linecap:butt;stroke-linejoin:miter;stroke-opacity:1"
       xml:space="preserve"><tspan
         style="stroke-width:0.264583px"
         y="-41.35545"
         x="10.321742"
         id="tspan1074-2-1"
         sodipodi:role="line">}</tspan></text>
    <text
       xml:space="preserve"
       style="font-style:normal;font-variant:normal;font-weight:normal;font-stretch:normal;font-size:3.97949px;line-height:125%;font-family:'Times New Roman';-inkscape-font-specification:'Times New Roman, ';letter-spacing:0px;word-spacing:0px;fill:#000000;fill-opacity:1;stroke:none;stroke-width:0.264583px;stroke-linecap:butt;stroke-linejoin:miter;stroke-opacity:1"
       x="10.323796"
       y="-17.72847"
       id="text1076-6-6-8"
       transform="matrix(0,0.74312953,-1.3456604,0,0,0)"><tspan
         sodipodi:role="line"
         id="tspan1074-2-1-7"
         x="10.323796"
         y="-17.72847"
         style="stroke-width:0.264583px">}</tspan></text>
    <g
       transform="matrix(0.352778,0,0,0.352778,23.410067,9.1996057)"
       ns2:version="1.0.1"
       ns2:texconverter="pdflatex"
       ns2:pdfconverter="inkscape"
       ns2:text="$$\\mathcal{H}_4$$"
       ns2:preamble="/home/igor/.config/inkscape/extensions/textext/default_packages.tex"
       ns2:scale="1.0"
       ns2:alignment="middle center"
       ns2:inkscapeversion="1.0"
       ns2:jacobian_sqrt="0.352778"
       id="g1247">
      <defs
         id="id-0dc2f966-1ab4-4c7f-8088-7f227501295e">
        <g
           id="id-ddb4c251-ea00-45ce-8456-dfd45cf07d99">
          <symbol
             id="id-19d160b4-bc59-421e-854f-c5ddbe763b56"
             overflow="visible">
            <path
               id="id-ddd79b8e-87f2-4769-a2bd-00cfd4b3e3d9"
               d=""
               style="stroke:none" />
          </symbol>
          <symbol
             id="id-13eda9d9-a1dd-4658-b9db-63cd1b5bc8d8"
             overflow="visible">
            <path
               id="id-2d0e46a5-b337-46eb-9b2b-c6fb1f95ece2"
               d="M 3.296875,-3.34375 C 3.421875,-3.8125 3.5625,-4.3125 3.65625,-4.796875 3.78125,-5.46875 3.84375,-6.125 3.84375,-6.25 c 0,-0.5625 -0.546875,-0.5625 -0.65625,-0.5625 -0.765625,0 -1.4375,0.28125 -1.90625,0.609375 C 0.46875,-5.65625 0.203125,-5 0.203125,-4.9375 c 0,0.0625 0.078125,0.0625 0.109375,0.0625 0.078125,0 0.546875,-0.125 0.75,-0.5 0.265625,-0.5 0.5625,-0.890625 1.453125,-0.890625 C 2.9375,-6.265625 3,-5.984375 3,-5.828125 3,-5.8125 2.96875,-5.34375 2.84375,-4.65625 2.796875,-4.375 2.765625,-4.203125 2.5625,-3.34375 H 2.203125 c -0.28125,0.015625 -0.734375,0.328125 -0.734375,0.484375 0,0.0625 0,0.0625 0.21875,0.0625 h 0.71875 c -0.203125,0.703125 -0.484375,1.65625 -0.9375,2.875 C 1.375,0.3125 1.375,0.328125 1.375,0.34375 c 0,0.0625 0.078125,0.0625 0.09375,0.0625 0.140625,0 0.453125,-0.125 0.65625,-0.328125 C 2.171875,0.015625 2.1875,0 2.234375,-0.09375 2.578125,-0.984375 2.875,-1.875 3.140625,-2.796875 h 2.25 c 0.109375,0 0.296875,0 0.453125,-0.09375 -0.109375,0.421875 -0.515625,2.046875 -0.515625,2.828125 0,0.296875 0.171875,0.546875 0.59375,0.546875 1.328125,0 2.0625,-0.828125 2.0625,-1.140625 0,-0.0625 -0.046875,-0.078125 -0.09375,-0.078125 -0.078125,0 -0.609375,0.140625 -0.765625,0.53125 C 7.09375,-0.125 7.078125,-0.125 6.890625,-0.09375 6.78125,-0.0625 6.59375,-0.0625 6.578125,-0.0625 c -0.171875,0 -0.40625,-0.109375 -0.40625,-0.421875 0,-0.125 0.0625,-0.671875 0.09375,-0.890625 C 6.4375,-2.484375 6.921875,-4.359375 7.78125,-6.625 7.8125,-6.703125 7.8125,-6.71875 7.8125,-6.734375 7.8125,-6.8125 7.75,-6.8125 7.71875,-6.8125 c -0.15625,0 -0.4375,0.140625 -0.625,0.3125 -0.015625,0.015625 -0.078125,0.0625 -0.109375,0.15625 -0.40625,0.984375 -0.71875,1.984375 -1.015625,3 z m 0,0"
               style="stroke:none" />
          </symbol>
          <symbol
             id="id-febe95a0-2304-4658-938d-9fa4c466026c"
             overflow="visible">
            <path
               id="id-938b6e28-b4b9-460c-9547-0ff50e7b77b8"
               d=""
               style="stroke:none" />
          </symbol>
          <symbol
             id="id-f7d68f8c-9d91-44c9-afe0-c66aac216a7e"
             overflow="visible">
            <path
               id="id-06b2cc7d-0112-4424-b1a5-3f00a1df7cf4"
               d="m 3.6875,-1.140625 v -0.25 H 2.90625 V -4.5 c 0,-0.140625 0,-0.203125 -0.140625,-0.203125 -0.09375,0 -0.125,0 -0.1875,0.109375 l -2.3125,3.203125 v 0.25 h 2.0625 v 0.5625 c 0,0.25 0,0.328125 -0.578125,0.328125 H 1.5625 V 0 C 1.921875,-0.015625 2.359375,-0.03125 2.609375,-0.03125 2.875,-0.03125 3.3125,-0.015625 3.671875,0 v -0.25 h -0.1875 C 2.90625,-0.25 2.90625,-0.328125 2.90625,-0.578125 v -0.5625 z M 2.375,-3.9375 v 2.546875 H 0.53125 Z m 0,0"
               style="stroke:none" />
          </symbol>
        </g>
      </defs>
      <g
         transform="translate(-299.385,-139.907)"
         id="id-6c5ea1a8-212d-4ff1-a7bc-504562c61ce0">
        <g
           id="id-8e21d4e1-25d3-488f-bafb-cf7e7a0854d6"
           style="fill:#000000;fill-opacity:1">
          <g
             transform="translate(299.182,146.72)"
             id="g1239">
            <path
               id="id-f4371654-af5b-44c9-9a31-a4efbb0c33e5"
               d="M 3.296875,-3.34375 C 3.421875,-3.8125 3.5625,-4.3125 3.65625,-4.796875 3.78125,-5.46875 3.84375,-6.125 3.84375,-6.25 c 0,-0.5625 -0.546875,-0.5625 -0.65625,-0.5625 -0.765625,0 -1.4375,0.28125 -1.90625,0.609375 C 0.46875,-5.65625 0.203125,-5 0.203125,-4.9375 c 0,0.0625 0.078125,0.0625 0.109375,0.0625 0.078125,0 0.546875,-0.125 0.75,-0.5 0.265625,-0.5 0.5625,-0.890625 1.453125,-0.890625 C 2.9375,-6.265625 3,-5.984375 3,-5.828125 3,-5.8125 2.96875,-5.34375 2.84375,-4.65625 2.796875,-4.375 2.765625,-4.203125 2.5625,-3.34375 H 2.203125 c -0.28125,0.015625 -0.734375,0.328125 -0.734375,0.484375 0,0.0625 0,0.0625 0.21875,0.0625 h 0.71875 c -0.203125,0.703125 -0.484375,1.65625 -0.9375,2.875 C 1.375,0.3125 1.375,0.328125 1.375,0.34375 c 0,0.0625 0.078125,0.0625 0.09375,0.0625 0.140625,0 0.453125,-0.125 0.65625,-0.328125 C 2.171875,0.015625 2.1875,0 2.234375,-0.09375 2.578125,-0.984375 2.875,-1.875 3.140625,-2.796875 h 2.25 c 0.109375,0 0.296875,0 0.453125,-0.09375 -0.109375,0.421875 -0.515625,2.046875 -0.515625,2.828125 0,0.296875 0.171875,0.546875 0.59375,0.546875 1.328125,0 2.0625,-0.828125 2.0625,-1.140625 0,-0.0625 -0.046875,-0.078125 -0.09375,-0.078125 -0.078125,0 -0.609375,0.140625 -0.765625,0.53125 C 7.09375,-0.125 7.078125,-0.125 6.890625,-0.09375 6.78125,-0.0625 6.59375,-0.0625 6.578125,-0.0625 c -0.171875,0 -0.40625,-0.109375 -0.40625,-0.421875 0,-0.125 0.0625,-0.671875 0.09375,-0.890625 C 6.4375,-2.484375 6.921875,-4.359375 7.78125,-6.625 7.8125,-6.703125 7.8125,-6.71875 7.8125,-6.734375 7.8125,-6.8125 7.75,-6.8125 7.71875,-6.8125 c -0.15625,0 -0.4375,0.140625 -0.625,0.3125 -0.015625,0.015625 -0.078125,0.0625 -0.109375,0.15625 -0.40625,0.984375 -0.71875,1.984375 -1.015625,3 z m 0,0"
               style="stroke:none" />
          </g>
        </g>
        <g
           id="id-9c58edfa-8271-491a-9620-5e08d00e5543"
           style="fill:#000000;fill-opacity:1">
          <g
             transform="translate(307.596,148.214)"
             id="g1243">
            <path
               id="id-19e22e6d-be3b-4988-8a24-91de1bbf0beb"
               d="m 3.6875,-1.140625 v -0.25 H 2.90625 V -4.5 c 0,-0.140625 0,-0.203125 -0.140625,-0.203125 -0.09375,0 -0.125,0 -0.1875,0.109375 l -2.3125,3.203125 v 0.25 h 2.0625 v 0.5625 c 0,0.25 0,0.328125 -0.578125,0.328125 H 1.5625 V 0 C 1.921875,-0.015625 2.359375,-0.03125 2.609375,-0.03125 2.875,-0.03125 3.3125,-0.015625 3.671875,0 v -0.25 h -0.1875 C 2.90625,-0.25 2.90625,-0.328125 2.90625,-0.578125 v -0.5625 z M 2.375,-3.9375 v 2.546875 H 0.53125 Z m 0,0"
               style="stroke:none" />
          </g>
        </g>
      </g>
    </g>
    <g
       transform="matrix(0.352778,0,0,0.352778,31.347567,9.1996031)"
       ns2:version="1.0.1"
       ns2:texconverter="pdflatex"
       ns2:pdfconverter="inkscape"
       ns2:text="$$\\mathcal{H}_3$$"
       ns2:preamble="/home/igor/.config/inkscape/extensions/textext/default_packages.tex"
       ns2:scale="1.0000000283464388"
       ns2:alignment="middle center"
       ns2:inkscapeversion="1.0"
       ns2:jacobian_sqrt="0.352778"
       id="g1597">
      <defs
         id="id-981dc8a7-f92f-4490-8236-411aec2a9dd1">
        <g
           id="id-d658e9e6-c7a6-475b-a5bd-93295024408d">
          <symbol
             id="id-610a324b-76b0-46a3-a801-9feda73c9314"
             overflow="visible">
            <path
               id="id-c334e03b-69a6-481f-8c08-f6400e9d5676"
               d=""
               style="stroke:none" />
          </symbol>
          <symbol
             id="id-d83d9f81-d33b-4d56-938b-307ca9e04ea3"
             overflow="visible">
            <path
               id="id-033f42eb-548d-46da-9334-142fd2414110"
               d="M 3.296875,-3.34375 C 3.421875,-3.8125 3.5625,-4.3125 3.65625,-4.796875 3.78125,-5.46875 3.84375,-6.125 3.84375,-6.25 c 0,-0.5625 -0.546875,-0.5625 -0.65625,-0.5625 -0.765625,0 -1.4375,0.28125 -1.90625,0.609375 C 0.46875,-5.65625 0.203125,-5 0.203125,-4.9375 c 0,0.0625 0.078125,0.0625 0.109375,0.0625 0.078125,0 0.546875,-0.125 0.75,-0.5 0.265625,-0.5 0.5625,-0.890625 1.453125,-0.890625 C 2.9375,-6.265625 3,-5.984375 3,-5.828125 3,-5.8125 2.96875,-5.34375 2.84375,-4.65625 2.796875,-4.375 2.765625,-4.203125 2.5625,-3.34375 H 2.203125 c -0.28125,0.015625 -0.734375,0.328125 -0.734375,0.484375 0,0.0625 0,0.0625 0.21875,0.0625 h 0.71875 c -0.203125,0.703125 -0.484375,1.65625 -0.9375,2.875 C 1.375,0.3125 1.375,0.328125 1.375,0.34375 c 0,0.0625 0.078125,0.0625 0.09375,0.0625 0.140625,0 0.453125,-0.125 0.65625,-0.328125 C 2.171875,0.015625 2.1875,0 2.234375,-0.09375 2.578125,-0.984375 2.875,-1.875 3.140625,-2.796875 h 2.25 c 0.109375,0 0.296875,0 0.453125,-0.09375 -0.109375,0.421875 -0.515625,2.046875 -0.515625,2.828125 0,0.296875 0.171875,0.546875 0.59375,0.546875 1.328125,0 2.0625,-0.828125 2.0625,-1.140625 0,-0.0625 -0.046875,-0.078125 -0.09375,-0.078125 -0.078125,0 -0.609375,0.140625 -0.765625,0.53125 C 7.09375,-0.125 7.078125,-0.125 6.890625,-0.09375 6.78125,-0.0625 6.59375,-0.0625 6.578125,-0.0625 c -0.171875,0 -0.40625,-0.109375 -0.40625,-0.421875 0,-0.125 0.0625,-0.671875 0.09375,-0.890625 C 6.4375,-2.484375 6.921875,-4.359375 7.78125,-6.625 7.8125,-6.703125 7.8125,-6.71875 7.8125,-6.734375 7.8125,-6.8125 7.75,-6.8125 7.71875,-6.8125 c -0.15625,0 -0.4375,0.140625 -0.625,0.3125 -0.015625,0.015625 -0.078125,0.0625 -0.109375,0.15625 -0.40625,0.984375 -0.71875,1.984375 -1.015625,3 z m 0,0"
               style="stroke:none" />
          </symbol>
          <symbol
             id="id-83b4a128-9259-4d7f-93df-3efd7486aa3e"
             overflow="visible">
            <path
               id="id-8a06ae05-7b73-42b2-8be9-1f8c8f0da316"
               d=""
               style="stroke:none" />
          </symbol>
          <symbol
             id="id-c0ccf176-14aa-40cb-a4ab-60679d22b6c0"
             overflow="visible">
            <path
               id="id-96f77d75-5690-4df6-b18d-b3b2589d252e"
               d="m 1.90625,-2.328125 c 0.546875,0 0.9375,0.375 0.9375,1.125 0,0.859375 -0.515625,1.125 -0.90625,1.125 -0.28125,0 -0.90625,-0.078125 -1.1875,-0.5 0.328125,0 0.40625,-0.234375 0.40625,-0.390625 0,-0.21875 -0.171875,-0.375 -0.390625,-0.375 -0.1875,0 -0.390625,0.125 -0.390625,0.40625 0,0.65625 0.71875,1.078125 1.5625,1.078125 0.96875,0 1.640625,-0.65625 1.640625,-1.34375 0,-0.546875 -0.4375,-1.09375 -1.203125,-1.25 0.71875,-0.265625 0.984375,-0.78125 0.984375,-1.21875 0,-0.546875 -0.625,-0.953125 -1.40625,-0.953125 -0.765625,0 -1.359375,0.375 -1.359375,0.9375 0,0.234375 0.15625,0.359375 0.359375,0.359375 0.21875,0 0.359375,-0.15625 0.359375,-0.34375 0,-0.203125 -0.140625,-0.359375 -0.359375,-0.375 0.25,-0.296875 0.71875,-0.375 0.984375,-0.375 0.3125,0 0.75,0.15625 0.75,0.75 0,0.296875 -0.09375,0.625 -0.28125,0.828125 -0.21875,0.265625 -0.421875,0.28125 -0.765625,0.3125 -0.171875,0.015625 -0.1875,0.015625 -0.21875,0.015625 -0.015625,0 -0.078125,0.015625 -0.078125,0.09375 0,0.09375 0.0625,0.09375 0.1875,0.09375 z m 0,0"
               style="stroke:none" />
          </symbol>
        </g>
      </defs>
      <g
         transform="translate(-299.385,-139.907)"
         id="id-331205e1-d674-4e47-9e64-b3b3f23c3777">
        <g
           id="id-31d3d9e7-f31c-475b-8281-001bc9fa4bfc"
           style="fill:#000000;fill-opacity:1">
          <g
             transform="translate(299.182,146.72)"
             id="g1589">
            <path
               id="id-d1278b6b-690a-4d71-8f2d-758b2f149b2e"
               d="M 3.296875,-3.34375 C 3.421875,-3.8125 3.5625,-4.3125 3.65625,-4.796875 3.78125,-5.46875 3.84375,-6.125 3.84375,-6.25 c 0,-0.5625 -0.546875,-0.5625 -0.65625,-0.5625 -0.765625,0 -1.4375,0.28125 -1.90625,0.609375 C 0.46875,-5.65625 0.203125,-5 0.203125,-4.9375 c 0,0.0625 0.078125,0.0625 0.109375,0.0625 0.078125,0 0.546875,-0.125 0.75,-0.5 0.265625,-0.5 0.5625,-0.890625 1.453125,-0.890625 C 2.9375,-6.265625 3,-5.984375 3,-5.828125 3,-5.8125 2.96875,-5.34375 2.84375,-4.65625 2.796875,-4.375 2.765625,-4.203125 2.5625,-3.34375 H 2.203125 c -0.28125,0.015625 -0.734375,0.328125 -0.734375,0.484375 0,0.0625 0,0.0625 0.21875,0.0625 h 0.71875 c -0.203125,0.703125 -0.484375,1.65625 -0.9375,2.875 C 1.375,0.3125 1.375,0.328125 1.375,0.34375 c 0,0.0625 0.078125,0.0625 0.09375,0.0625 0.140625,0 0.453125,-0.125 0.65625,-0.328125 C 2.171875,0.015625 2.1875,0 2.234375,-0.09375 2.578125,-0.984375 2.875,-1.875 3.140625,-2.796875 h 2.25 c 0.109375,0 0.296875,0 0.453125,-0.09375 -0.109375,0.421875 -0.515625,2.046875 -0.515625,2.828125 0,0.296875 0.171875,0.546875 0.59375,0.546875 1.328125,0 2.0625,-0.828125 2.0625,-1.140625 0,-0.0625 -0.046875,-0.078125 -0.09375,-0.078125 -0.078125,0 -0.609375,0.140625 -0.765625,0.53125 C 7.09375,-0.125 7.078125,-0.125 6.890625,-0.09375 6.78125,-0.0625 6.59375,-0.0625 6.578125,-0.0625 c -0.171875,0 -0.40625,-0.109375 -0.40625,-0.421875 0,-0.125 0.0625,-0.671875 0.09375,-0.890625 C 6.4375,-2.484375 6.921875,-4.359375 7.78125,-6.625 7.8125,-6.703125 7.8125,-6.71875 7.8125,-6.734375 7.8125,-6.8125 7.75,-6.8125 7.71875,-6.8125 c -0.15625,0 -0.4375,0.140625 -0.625,0.3125 -0.015625,0.015625 -0.078125,0.0625 -0.109375,0.15625 -0.40625,0.984375 -0.71875,1.984375 -1.015625,3 z m 0,0"
               style="stroke:none" />
          </g>
        </g>
        <g
           id="id-cdd767ce-9409-4830-9fc9-cb0d499cca91"
           style="fill:#000000;fill-opacity:1">
          <g
             transform="translate(307.596,148.214)"
             id="g1593">
            <path
               id="id-353e7e66-dba5-4fb4-86ae-d7d75dfc8db8"
               d="m 1.90625,-2.328125 c 0.546875,0 0.9375,0.375 0.9375,1.125 0,0.859375 -0.515625,1.125 -0.90625,1.125 -0.28125,0 -0.90625,-0.078125 -1.1875,-0.5 0.328125,0 0.40625,-0.234375 0.40625,-0.390625 0,-0.21875 -0.171875,-0.375 -0.390625,-0.375 -0.1875,0 -0.390625,0.125 -0.390625,0.40625 0,0.65625 0.71875,1.078125 1.5625,1.078125 0.96875,0 1.640625,-0.65625 1.640625,-1.34375 0,-0.546875 -0.4375,-1.09375 -1.203125,-1.25 0.71875,-0.265625 0.984375,-0.78125 0.984375,-1.21875 0,-0.546875 -0.625,-0.953125 -1.40625,-0.953125 -0.765625,0 -1.359375,0.375 -1.359375,0.9375 0,0.234375 0.15625,0.359375 0.359375,0.359375 0.21875,0 0.359375,-0.15625 0.359375,-0.34375 0,-0.203125 -0.140625,-0.359375 -0.359375,-0.375 0.25,-0.296875 0.71875,-0.375 0.984375,-0.375 0.3125,0 0.75,0.15625 0.75,0.75 0,0.296875 -0.09375,0.625 -0.28125,0.828125 -0.21875,0.265625 -0.421875,0.28125 -0.765625,0.3125 -0.171875,0.015625 -0.1875,0.015625 -0.21875,0.015625 -0.015625,0 -0.078125,0.015625 -0.078125,0.09375 0,0.09375 0.0625,0.09375 0.1875,0.09375 z m 0,0"
               style="stroke:none" />
          </g>
        </g>
      </g>
    </g>
    <g
       transform="matrix(0.352778,0,0,0.352778,44.576734,9.1996031)"
       ns2:version="1.0.1"
       ns2:texconverter="pdflatex"
       ns2:pdfconverter="inkscape"
       ns2:text="$$\\mathcal{H}_2$$"
       ns2:preamble="/home/igor/.config/inkscape/extensions/textext/default_packages.tex"
       ns2:scale="1.0000000283464388"
       ns2:alignment="middle center"
       ns2:inkscapeversion="1.0"
       ns2:jacobian_sqrt="0.352778"
       id="g1747">
      <defs
         id="id-7742c9bd-5873-4c49-819e-2f2d9007b6ac">
        <g
           id="id-18ba83d1-3d99-492d-81ca-456292c3b2ab">
          <symbol
             id="id-b54cc596-2198-40c1-a929-c00b4584b6f2"
             overflow="visible">
            <path
               id="id-3ccf8a98-6a14-4f0e-93d1-93a9d6a90734"
               d=""
               style="stroke:none" />
          </symbol>
          <symbol
             id="id-ebd40e58-9064-4ca4-aef9-c7a38f2dcc34"
             overflow="visible">
            <path
               id="id-0a390bf0-3c23-48d6-bf93-164dac9501a8"
               d="M 3.296875,-3.34375 C 3.421875,-3.8125 3.5625,-4.3125 3.65625,-4.796875 3.78125,-5.46875 3.84375,-6.125 3.84375,-6.25 c 0,-0.5625 -0.546875,-0.5625 -0.65625,-0.5625 -0.765625,0 -1.4375,0.28125 -1.90625,0.609375 C 0.46875,-5.65625 0.203125,-5 0.203125,-4.9375 c 0,0.0625 0.078125,0.0625 0.109375,0.0625 0.078125,0 0.546875,-0.125 0.75,-0.5 0.265625,-0.5 0.5625,-0.890625 1.453125,-0.890625 C 2.9375,-6.265625 3,-5.984375 3,-5.828125 3,-5.8125 2.96875,-5.34375 2.84375,-4.65625 2.796875,-4.375 2.765625,-4.203125 2.5625,-3.34375 H 2.203125 c -0.28125,0.015625 -0.734375,0.328125 -0.734375,0.484375 0,0.0625 0,0.0625 0.21875,0.0625 h 0.71875 c -0.203125,0.703125 -0.484375,1.65625 -0.9375,2.875 C 1.375,0.3125 1.375,0.328125 1.375,0.34375 c 0,0.0625 0.078125,0.0625 0.09375,0.0625 0.140625,0 0.453125,-0.125 0.65625,-0.328125 C 2.171875,0.015625 2.1875,0 2.234375,-0.09375 2.578125,-0.984375 2.875,-1.875 3.140625,-2.796875 h 2.25 c 0.109375,0 0.296875,0 0.453125,-0.09375 -0.109375,0.421875 -0.515625,2.046875 -0.515625,2.828125 0,0.296875 0.171875,0.546875 0.59375,0.546875 1.328125,0 2.0625,-0.828125 2.0625,-1.140625 0,-0.0625 -0.046875,-0.078125 -0.09375,-0.078125 -0.078125,0 -0.609375,0.140625 -0.765625,0.53125 C 7.09375,-0.125 7.078125,-0.125 6.890625,-0.09375 6.78125,-0.0625 6.59375,-0.0625 6.578125,-0.0625 c -0.171875,0 -0.40625,-0.109375 -0.40625,-0.421875 0,-0.125 0.0625,-0.671875 0.09375,-0.890625 C 6.4375,-2.484375 6.921875,-4.359375 7.78125,-6.625 7.8125,-6.703125 7.8125,-6.71875 7.8125,-6.734375 7.8125,-6.8125 7.75,-6.8125 7.71875,-6.8125 c -0.15625,0 -0.4375,0.140625 -0.625,0.3125 -0.015625,0.015625 -0.078125,0.0625 -0.109375,0.15625 -0.40625,0.984375 -0.71875,1.984375 -1.015625,3 z m 0,0"
               style="stroke:none" />
          </symbol>
          <symbol
             id="id-05bc98e6-2355-45d6-b098-b302642d52fc"
             overflow="visible">
            <path
               id="id-bf26430f-cbf8-432b-bacb-9c68abb257da"
               d=""
               style="stroke:none" />
          </symbol>
          <symbol
             id="id-bf0eb91f-ce9b-49f1-9658-42191ac4b784"
             overflow="visible">
            <path
               id="id-a3fa76b0-aab6-4509-baeb-985c5f4150f7"
               d="M 3.515625,-1.265625 H 3.28125 c -0.015625,0.15625 -0.09375,0.5625 -0.1875,0.625 C 3.046875,-0.59375 2.515625,-0.59375 2.40625,-0.59375 H 1.125 c 0.734375,-0.640625 0.984375,-0.84375 1.390625,-1.171875 0.515625,-0.40625 1,-0.84375 1,-1.5 0,-0.84375 -0.734375,-1.359375 -1.625,-1.359375 -0.859375,0 -1.453125,0.609375 -1.453125,1.25 0,0.34375 0.296875,0.390625 0.375,0.390625 0.15625,0 0.359375,-0.125 0.359375,-0.375 0,-0.125 -0.046875,-0.375 -0.40625,-0.375 C 0.984375,-4.21875 1.453125,-4.375 1.78125,-4.375 c 0.703125,0 1.0625,0.546875 1.0625,1.109375 0,0.609375 -0.4375,1.078125 -0.65625,1.328125 L 0.515625,-0.265625 C 0.4375,-0.203125 0.4375,-0.1875 0.4375,0 h 2.875 z m 0,0"
               style="stroke:none" />
          </symbol>
        </g>
      </defs>
      <g
         transform="translate(-299.385,-139.907)"
         id="id-80304d00-8fab-4ab5-afb3-f3bf218ecbbb">
        <g
           id="id-45a616c7-77af-494b-9c62-7d86925435c5"
           style="fill:#000000;fill-opacity:1">
          <g
             transform="translate(299.182,146.72)"
             id="g1739">
            <path
               id="id-6b4924f1-9d2d-4af7-a138-ab73a68443c6"
               d="M 3.296875,-3.34375 C 3.421875,-3.8125 3.5625,-4.3125 3.65625,-4.796875 3.78125,-5.46875 3.84375,-6.125 3.84375,-6.25 c 0,-0.5625 -0.546875,-0.5625 -0.65625,-0.5625 -0.765625,0 -1.4375,0.28125 -1.90625,0.609375 C 0.46875,-5.65625 0.203125,-5 0.203125,-4.9375 c 0,0.0625 0.078125,0.0625 0.109375,0.0625 0.078125,0 0.546875,-0.125 0.75,-0.5 0.265625,-0.5 0.5625,-0.890625 1.453125,-0.890625 C 2.9375,-6.265625 3,-5.984375 3,-5.828125 3,-5.8125 2.96875,-5.34375 2.84375,-4.65625 2.796875,-4.375 2.765625,-4.203125 2.5625,-3.34375 H 2.203125 c -0.28125,0.015625 -0.734375,0.328125 -0.734375,0.484375 0,0.0625 0,0.0625 0.21875,0.0625 h 0.71875 c -0.203125,0.703125 -0.484375,1.65625 -0.9375,2.875 C 1.375,0.3125 1.375,0.328125 1.375,0.34375 c 0,0.0625 0.078125,0.0625 0.09375,0.0625 0.140625,0 0.453125,-0.125 0.65625,-0.328125 C 2.171875,0.015625 2.1875,0 2.234375,-0.09375 2.578125,-0.984375 2.875,-1.875 3.140625,-2.796875 h 2.25 c 0.109375,0 0.296875,0 0.453125,-0.09375 -0.109375,0.421875 -0.515625,2.046875 -0.515625,2.828125 0,0.296875 0.171875,0.546875 0.59375,0.546875 1.328125,0 2.0625,-0.828125 2.0625,-1.140625 0,-0.0625 -0.046875,-0.078125 -0.09375,-0.078125 -0.078125,0 -0.609375,0.140625 -0.765625,0.53125 C 7.09375,-0.125 7.078125,-0.125 6.890625,-0.09375 6.78125,-0.0625 6.59375,-0.0625 6.578125,-0.0625 c -0.171875,0 -0.40625,-0.109375 -0.40625,-0.421875 0,-0.125 0.0625,-0.671875 0.09375,-0.890625 C 6.4375,-2.484375 6.921875,-4.359375 7.78125,-6.625 7.8125,-6.703125 7.8125,-6.71875 7.8125,-6.734375 7.8125,-6.8125 7.75,-6.8125 7.71875,-6.8125 c -0.15625,0 -0.4375,0.140625 -0.625,0.3125 -0.015625,0.015625 -0.078125,0.0625 -0.109375,0.15625 -0.40625,0.984375 -0.71875,1.984375 -1.015625,3 z m 0,0"
               style="stroke:none" />
          </g>
        </g>
        <g
           id="id-f660c7b4-6ad9-40e3-aa66-28dfbc4bde85"
           style="fill:#000000;fill-opacity:1">
          <g
             transform="translate(307.596,148.214)"
             id="g1743">
            <path
               id="id-3c466ae2-af9c-4de8-ba5e-654a32da39d9"
               d="M 3.515625,-1.265625 H 3.28125 c -0.015625,0.15625 -0.09375,0.5625 -0.1875,0.625 C 3.046875,-0.59375 2.515625,-0.59375 2.40625,-0.59375 H 1.125 c 0.734375,-0.640625 0.984375,-0.84375 1.390625,-1.171875 0.515625,-0.40625 1,-0.84375 1,-1.5 0,-0.84375 -0.734375,-1.359375 -1.625,-1.359375 -0.859375,0 -1.453125,0.609375 -1.453125,1.25 0,0.34375 0.296875,0.390625 0.375,0.390625 0.15625,0 0.359375,-0.125 0.359375,-0.375 0,-0.125 -0.046875,-0.375 -0.40625,-0.375 C 0.984375,-4.21875 1.453125,-4.375 1.78125,-4.375 c 0.703125,0 1.0625,0.546875 1.0625,1.109375 0,0.609375 -0.4375,1.078125 -0.65625,1.328125 L 0.515625,-0.265625 C 0.4375,-0.203125 0.4375,-0.1875 0.4375,0 h 2.875 z m 0,0"
               style="stroke:none" />
          </g>
        </g>
      </g>
    </g>
    <g
       transform="matrix(0.352778,0,0,0.352778,55.160067,9.1996031)"
       ns2:version="1.0.1"
       ns2:texconverter="pdflatex"
       ns2:pdfconverter="inkscape"
       ns2:text="$$\\mathcal{H}_1$$"
       ns2:preamble="/home/igor/.config/inkscape/extensions/textext/default_packages.tex"
       ns2:scale="1.0000000283464388"
       ns2:alignment="middle center"
       ns2:inkscapeversion="1.0"
       ns2:jacobian_sqrt="0.352778"
       id="g1897">
      <defs
         id="id-6de4e492-6bec-473b-85e6-b711283a7e4e">
        <g
           id="id-6d546bb3-7a2b-47c2-9ee5-2d3ab59254f1">
          <symbol
             id="id-dc88bd0c-74d1-4492-891c-cf6a1e1492eb"
             overflow="visible">
            <path
               id="id-6b29a0a6-6037-452b-a189-825ba0432c45"
               d=""
               style="stroke:none" />
          </symbol>
          <symbol
             id="id-dd8d3ba1-1120-4563-bba8-f42b892950da"
             overflow="visible">
            <path
               id="id-2643c796-1e0d-4194-a6a1-5365b90c3f5b"
               d="M 3.296875,-3.34375 C 3.421875,-3.8125 3.5625,-4.3125 3.65625,-4.796875 3.78125,-5.46875 3.84375,-6.125 3.84375,-6.25 c 0,-0.5625 -0.546875,-0.5625 -0.65625,-0.5625 -0.765625,0 -1.4375,0.28125 -1.90625,0.609375 C 0.46875,-5.65625 0.203125,-5 0.203125,-4.9375 c 0,0.0625 0.078125,0.0625 0.109375,0.0625 0.078125,0 0.546875,-0.125 0.75,-0.5 0.265625,-0.5 0.5625,-0.890625 1.453125,-0.890625 C 2.9375,-6.265625 3,-5.984375 3,-5.828125 3,-5.8125 2.96875,-5.34375 2.84375,-4.65625 2.796875,-4.375 2.765625,-4.203125 2.5625,-3.34375 H 2.203125 c -0.28125,0.015625 -0.734375,0.328125 -0.734375,0.484375 0,0.0625 0,0.0625 0.21875,0.0625 h 0.71875 c -0.203125,0.703125 -0.484375,1.65625 -0.9375,2.875 C 1.375,0.3125 1.375,0.328125 1.375,0.34375 c 0,0.0625 0.078125,0.0625 0.09375,0.0625 0.140625,0 0.453125,-0.125 0.65625,-0.328125 C 2.171875,0.015625 2.1875,0 2.234375,-0.09375 2.578125,-0.984375 2.875,-1.875 3.140625,-2.796875 h 2.25 c 0.109375,0 0.296875,0 0.453125,-0.09375 -0.109375,0.421875 -0.515625,2.046875 -0.515625,2.828125 0,0.296875 0.171875,0.546875 0.59375,0.546875 1.328125,0 2.0625,-0.828125 2.0625,-1.140625 0,-0.0625 -0.046875,-0.078125 -0.09375,-0.078125 -0.078125,0 -0.609375,0.140625 -0.765625,0.53125 C 7.09375,-0.125 7.078125,-0.125 6.890625,-0.09375 6.78125,-0.0625 6.59375,-0.0625 6.578125,-0.0625 c -0.171875,0 -0.40625,-0.109375 -0.40625,-0.421875 0,-0.125 0.0625,-0.671875 0.09375,-0.890625 C 6.4375,-2.484375 6.921875,-4.359375 7.78125,-6.625 7.8125,-6.703125 7.8125,-6.71875 7.8125,-6.734375 7.8125,-6.8125 7.75,-6.8125 7.71875,-6.8125 c -0.15625,0 -0.4375,0.140625 -0.625,0.3125 -0.015625,0.015625 -0.078125,0.0625 -0.109375,0.15625 -0.40625,0.984375 -0.71875,1.984375 -1.015625,3 z m 0,0"
               style="stroke:none" />
          </symbol>
          <symbol
             id="id-aa5006ca-cb41-4e3e-a575-fec06ee1c63e"
             overflow="visible">
            <path
               id="id-787ed224-6ee5-4a02-bda9-625ce1fe70f0"
               d=""
               style="stroke:none" />
          </symbol>
          <symbol
             id="id-2e249c5b-2b37-4bdf-86c2-5c83e5620d93"
             overflow="visible">
            <path
               id="id-2533e715-f475-42fc-b17d-0cacdce226c8"
               d="m 2.328125,-4.4375 c 0,-0.1875 0,-0.1875 -0.203125,-0.1875 -0.453125,0.4375 -1.078125,0.4375 -1.359375,0.4375 v 0.25 c 0.15625,0 0.625,0 1,-0.1875 v 3.546875 c 0,0.234375 0,0.328125 -0.6875,0.328125 H 0.8125 V 0 c 0.125,0 0.984375,-0.03125 1.234375,-0.03125 0.21875,0 1.09375,0.03125 1.25,0.03125 V -0.25 H 3.03125 c -0.703125,0 -0.703125,-0.09375 -0.703125,-0.328125 z m 0,0"
               style="stroke:none" />
          </symbol>
        </g>
      </defs>
      <g
         transform="translate(-299.385,-139.907)"
         id="id-f381f8b2-394b-4515-8004-77b0ec0fe016">
        <g
           id="id-c1bc0a08-21fa-403f-b5a0-041d7203c150"
           style="fill:#000000;fill-opacity:1">
          <g
             transform="translate(299.182,146.72)"
             id="g1889">
            <path
               id="id-fc365dab-207c-41de-a87f-f2972c4d4a24"
               d="M 3.296875,-3.34375 C 3.421875,-3.8125 3.5625,-4.3125 3.65625,-4.796875 3.78125,-5.46875 3.84375,-6.125 3.84375,-6.25 c 0,-0.5625 -0.546875,-0.5625 -0.65625,-0.5625 -0.765625,0 -1.4375,0.28125 -1.90625,0.609375 C 0.46875,-5.65625 0.203125,-5 0.203125,-4.9375 c 0,0.0625 0.078125,0.0625 0.109375,0.0625 0.078125,0 0.546875,-0.125 0.75,-0.5 0.265625,-0.5 0.5625,-0.890625 1.453125,-0.890625 C 2.9375,-6.265625 3,-5.984375 3,-5.828125 3,-5.8125 2.96875,-5.34375 2.84375,-4.65625 2.796875,-4.375 2.765625,-4.203125 2.5625,-3.34375 H 2.203125 c -0.28125,0.015625 -0.734375,0.328125 -0.734375,0.484375 0,0.0625 0,0.0625 0.21875,0.0625 h 0.71875 c -0.203125,0.703125 -0.484375,1.65625 -0.9375,2.875 C 1.375,0.3125 1.375,0.328125 1.375,0.34375 c 0,0.0625 0.078125,0.0625 0.09375,0.0625 0.140625,0 0.453125,-0.125 0.65625,-0.328125 C 2.171875,0.015625 2.1875,0 2.234375,-0.09375 2.578125,-0.984375 2.875,-1.875 3.140625,-2.796875 h 2.25 c 0.109375,0 0.296875,0 0.453125,-0.09375 -0.109375,0.421875 -0.515625,2.046875 -0.515625,2.828125 0,0.296875 0.171875,0.546875 0.59375,0.546875 1.328125,0 2.0625,-0.828125 2.0625,-1.140625 0,-0.0625 -0.046875,-0.078125 -0.09375,-0.078125 -0.078125,0 -0.609375,0.140625 -0.765625,0.53125 C 7.09375,-0.125 7.078125,-0.125 6.890625,-0.09375 6.78125,-0.0625 6.59375,-0.0625 6.578125,-0.0625 c -0.171875,0 -0.40625,-0.109375 -0.40625,-0.421875 0,-0.125 0.0625,-0.671875 0.09375,-0.890625 C 6.4375,-2.484375 6.921875,-4.359375 7.78125,-6.625 7.8125,-6.703125 7.8125,-6.71875 7.8125,-6.734375 7.8125,-6.8125 7.75,-6.8125 7.71875,-6.8125 c -0.15625,0 -0.4375,0.140625 -0.625,0.3125 -0.015625,0.015625 -0.078125,0.0625 -0.109375,0.15625 -0.40625,0.984375 -0.71875,1.984375 -1.015625,3 z m 0,0"
               style="stroke:none" />
          </g>
        </g>
        <g
           id="id-7a08a189-4491-4e7c-a9f4-ec9d45a400aa"
           style="fill:#000000;fill-opacity:1">
          <g
             transform="translate(307.596,148.214)"
             id="g1893">
            <path
               id="id-05a02e5f-6212-40b5-a7c6-771c0180a02a"
               d="m 2.328125,-4.4375 c 0,-0.1875 0,-0.1875 -0.203125,-0.1875 -0.453125,0.4375 -1.078125,0.4375 -1.359375,0.4375 v 0.25 c 0.15625,0 0.625,0 1,-0.1875 v 3.546875 c 0,0.234375 0,0.328125 -0.6875,0.328125 H 0.8125 V 0 c 0.125,0 0.984375,-0.03125 1.234375,-0.03125 0.21875,0 1.09375,0.03125 1.25,0.03125 V -0.25 H 3.03125 c -0.703125,0 -0.703125,-0.09375 -0.703125,-0.328125 z m 0,0"
               style="stroke:none" />
          </g>
        </g>
      </g>
    </g>
    <text
       style="fill:black;stroke:none;stroke-opacity:1;stroke-width:0.26458333px;stroke-linejoin:miter;stroke-linecap:butt;fill-opacity:1;font-family:'Times New Roman';font-style:normal;font-weight:normal;font-size:2.82222222px;line-height:125%;letter-spacing:0px;word-spacing:0px;-inkscape-font-specification:'Times New Roman, ';font-stretch:normal;font-variant:normal;white-space:pre;shape-inside:url(#rect1932);"
       id="text1930"
       xml:space="preserve" />
    <text
       id="text1938"
       y="5.3412757"
       x="24.087421"
       style="font-style:normal;font-variant:normal;font-weight:normal;font-stretch:normal;font-size:4.23333px;line-height:125%;font-family:'Times New Roman';-inkscape-font-specification:'Times New Roman, ';letter-spacing:0px;word-spacing:0px;fill:#000000;fill-opacity:1;stroke:none;stroke-width:0.264583px;stroke-linecap:butt;stroke-linejoin:miter;stroke-opacity:1"
       xml:space="preserve"><tspan
         style="font-size:4.23333px;stroke-width:0.264583px"
         y="5.3412757"
         x="24.087421"
         id="tspan1936"
         sodipodi:role="line">1</tspan></text>
    <text
       id="text1942"
       y="5.2916665"
       x="55.82605"
       style="font-style:normal;font-variant:normal;font-weight:normal;font-stretch:normal;font-size:4.23333px;line-height:125%;font-family:'Times New Roman';-inkscape-font-specification:'Times New Roman, ';letter-spacing:0px;word-spacing:0px;fill:#000000;fill-opacity:1;stroke:none;stroke-width:0.264583px;stroke-linecap:butt;stroke-linejoin:miter;stroke-opacity:1"
       xml:space="preserve"><tspan
         style="font-size:4.23333px;stroke-width:0.264583px"
         y="5.2916665"
         x="55.82605"
         id="tspan1940"
         sodipodi:role="line">0</tspan></text>
    <text
       xml:space="preserve"
       style="font-style:normal;font-variant:normal;font-weight:normal;font-stretch:normal;font-size:4.23333px;line-height:125%;font-family:'Times New Roman';-inkscape-font-specification:'Times New Roman, ';letter-spacing:0px;word-spacing:0px;fill:#000000;fill-opacity:1;stroke:none;stroke-width:0.264583px;stroke-linecap:butt;stroke-linejoin:miter;stroke-opacity:1"
       x="39.962418"
       y="5.3412757"
       id="text1938-0"><tspan
         sodipodi:role="line"
         id="tspan1936-7"
         x="39.962418"
         y="5.3412757"
         style="font-size:4.23333px;stroke-width:0.264583px">1</tspan></text>
    <text
       xml:space="preserve"
       style="font-style:normal;font-variant:normal;font-weight:normal;font-stretch:normal;font-size:4.23333px;line-height:125%;font-family:'Times New Roman';-inkscape-font-specification:'Times New Roman, ';letter-spacing:0px;word-spacing:0px;fill:#000000;fill-opacity:1;stroke:none;stroke-width:0.264583px;stroke-linecap:butt;stroke-linejoin:miter;stroke-opacity:1"
       x="50.545753"
       y="5.3412757"
       id="text1938-8"><tspan
         sodipodi:role="line"
         id="tspan1936-6"
         x="50.545753"
         y="5.3412757"
         style="font-size:4.23333px;stroke-width:0.264583px">1</tspan></text>
    <text
       xml:space="preserve"
       style="font-style:normal;font-variant:normal;font-weight:normal;font-stretch:normal;font-size:4.23333px;line-height:125%;font-family:'Times New Roman';-inkscape-font-specification:'Times New Roman, ';letter-spacing:0px;word-spacing:0px;fill:#000000;fill-opacity:1;stroke:none;stroke-width:0.264583px;stroke-linecap:butt;stroke-linejoin:miter;stroke-opacity:1"
       x="34.670753"
       y="5.3412757"
       id="text1938-88"><tspan
         sodipodi:role="line"
         id="tspan1936-4"
         x="34.670753"
         y="5.3412757"
         style="font-size:4.23333px;stroke-width:0.264583px">1</tspan></text>
    <text
       xml:space="preserve"
       style="font-style:normal;font-variant:normal;font-weight:normal;font-stretch:normal;font-size:4.23333px;line-height:125%;font-family:'Times New Roman';-inkscape-font-specification:'Times New Roman, ';letter-spacing:0px;word-spacing:0px;fill:#000000;fill-opacity:1;stroke:none;stroke-width:0.264583px;stroke-linecap:butt;stroke-linejoin:miter;stroke-opacity:1"
       x="45.242718"
       y="5.2916665"
       id="text1942-3"><tspan
         sodipodi:role="line"
         id="tspan1940-1"
         x="45.242718"
         y="5.2916665"
         style="font-size:4.23333px;stroke-width:0.264583px">0</tspan></text>
    <text
       xml:space="preserve"
       style="font-style:normal;font-variant:normal;font-weight:normal;font-stretch:normal;font-size:4.23333px;line-height:125%;font-family:'Times New Roman';-inkscape-font-specification:'Times New Roman, ';letter-spacing:0px;word-spacing:0px;fill:#000000;fill-opacity:1;stroke:none;stroke-width:0.264583px;stroke-linecap:butt;stroke-linejoin:miter;stroke-opacity:1"
       x="29.367722"
       y="5.2916665"
       id="text1942-4"><tspan
         sodipodi:role="line"
         id="tspan1940-9"
         x="29.367722"
         y="5.2916665"
         style="font-size:4.23333px;stroke-width:0.264583px">0</tspan></text>
    <text
       xml:space="preserve"
       style="font-style:normal;font-variant:normal;font-weight:normal;font-stretch:normal;font-size:1.41111px;line-height:125%;font-family:'Times New Roman';-inkscape-font-specification:'Times New Roman, ';letter-spacing:0px;word-spacing:0px;fill:#000000;fill-opacity:1;stroke:none;stroke-width:0.264583px;stroke-linecap:butt;stroke-linejoin:miter;stroke-opacity:1"
       x="58.410431"
       y="6.2765145"
       id="text970"><tspan
         sodipodi:role="line"
         id="tspan968"
         x="58.410431"
         y="6.2765145"
         style="font-size:1.41111px;stroke-width:0.264583px">0</tspan></text>
    <text
       xml:space="preserve"
       style="font-style:normal;font-variant:normal;font-weight:normal;font-stretch:normal;font-size:1.41111px;line-height:125%;font-family:'Times New Roman';-inkscape-font-specification:'Times New Roman, ';letter-spacing:0px;word-spacing:0px;fill:#000000;fill-opacity:1;stroke:none;stroke-width:0.264583px;stroke-linecap:butt;stroke-linejoin:miter;stroke-opacity:1"
       x="53.11768"
       y="6.2930508"
       id="text974"><tspan
         sodipodi:role="line"
         id="tspan972"
         x="53.11768"
         y="6.2930508"
         style="font-size:1.41111px;stroke-width:0.264583px">1</tspan></text>
    <text
       xml:space="preserve"
       style="font-style:normal;font-variant:normal;font-weight:normal;font-stretch:normal;font-size:1.41111px;line-height:125%;font-family:'Times New Roman';-inkscape-font-specification:'Times New Roman, ';letter-spacing:0px;word-spacing:0px;fill:#000000;fill-opacity:1;stroke:none;stroke-width:0.264583px;stroke-linecap:butt;stroke-linejoin:miter;stroke-opacity:1"
       x="47.780247"
       y="6.2930508"
       id="text978"><tspan
         sodipodi:role="line"
         id="tspan976"
         x="47.780247"
         y="6.2930508"
         style="font-size:1.41111px;stroke-width:0.264583px">2</tspan></text>
    <text
       xml:space="preserve"
       style="font-style:normal;font-variant:normal;font-weight:normal;font-stretch:normal;font-size:2.82223px;line-height:125%;font-family:'Times New Roman';-inkscape-font-specification:'Times New Roman, ';letter-spacing:0px;word-spacing:0px;fill:#000000;fill-opacity:1;stroke:none;stroke-width:0.264583px;stroke-linecap:butt;stroke-linejoin:miter;stroke-opacity:1"
       x="42.532429"
       y="6.2765145"
       id="text982"><tspan
         sodipodi:role="line"
         id="tspan980"
         x="42.532429"
         y="6.2765145"
         style="font-size:1.41111px;stroke-width:0.264583px">3</tspan></text>
    <text
       xml:space="preserve"
       style="font-style:normal;font-variant:normal;font-weight:normal;font-stretch:normal;font-size:2.82223px;line-height:125%;font-family:'Times New Roman';-inkscape-font-specification:'Times New Roman, ';letter-spacing:0px;word-spacing:0px;fill:#000000;fill-opacity:1;stroke:none;stroke-width:0.264583px;stroke-linecap:butt;stroke-linejoin:miter;stroke-opacity:1"
       x="37.207664"
       y="6.2930508"
       id="text986"><tspan
         sodipodi:role="line"
         id="tspan984"
         x="37.207664"
         y="6.2930508"
         style="font-size:1.41111px;stroke-width:0.264583px">4</tspan></text>
    <text
       xml:space="preserve"
       style="font-style:normal;font-variant:normal;font-weight:normal;font-stretch:normal;font-size:2.82223px;line-height:125%;font-family:'Times New Roman';-inkscape-font-specification:'Times New Roman, ';letter-spacing:0px;word-spacing:0px;fill:#000000;fill-opacity:1;stroke:none;stroke-width:0.264583px;stroke-linecap:butt;stroke-linejoin:miter;stroke-opacity:1"
       x="31.939487"
       y="6.2765145"
       id="text990"><tspan
         sodipodi:role="line"
         id="tspan988"
         x="31.939487"
         y="6.2765145"
         style="font-size:1.41111px;stroke-width:0.264583px">5</tspan></text>
    <text
       xml:space="preserve"
       style="font-style:normal;font-variant:normal;font-weight:normal;font-stretch:normal;font-size:2.82223px;line-height:125%;font-family:'Times New Roman';-inkscape-font-specification:'Times New Roman, ';letter-spacing:0px;word-spacing:0px;fill:#000000;fill-opacity:1;stroke:none;stroke-width:0.264583px;stroke-linecap:butt;stroke-linejoin:miter;stroke-opacity:1"
       x="26.63117"
       y="6.2765145"
       id="text994"><tspan
         sodipodi:role="line"
         id="tspan992"
         x="26.63117"
         y="6.2765145"
         style="font-size:1.41111px;stroke-width:0.264583px">6</tspan></text>
    <text
       xml:space="preserve"
       style="font-style:normal;font-variant:normal;font-weight:normal;font-stretch:normal;font-size:2.82223px;line-height:125%;font-family:'Times New Roman';-inkscape-font-specification:'Times New Roman, ';letter-spacing:0px;word-spacing:0px;fill:#000000;fill-opacity:1;stroke:none;stroke-width:0.264583px;stroke-linecap:butt;stroke-linejoin:miter;stroke-opacity:1"
       x="21.257246"
       y="6.2737584"
       id="text998"><tspan
         sodipodi:role="line"
         id="tspan996"
         x="21.257246"
         y="6.2737584"
         style="font-size:1.41111px;stroke-width:0.264583px">7</tspan></text>
    <text
       xml:space="preserve"
       style="font-style:normal;font-variant:normal;font-weight:normal;font-stretch:normal;font-size:1.41111px;line-height:125%;font-family:'Times New Roman';-inkscape-font-specification:'Times New Roman, ';letter-spacing:0px;word-spacing:0px;fill:#000000;fill-opacity:1;stroke:none;stroke-width:0.264583px;stroke-linecap:butt;stroke-linejoin:miter;stroke-opacity:1"
       x="4.8446794"
       y="6.2765145"
       id="text1002"><tspan
         sodipodi:role="line"
         id="tspan1000"
         x="4.8446794"
         y="6.2765145"
         style="font-size:1.41111px;stroke-width:0.264583px">63</tspan></text>
    <text
       id="text1942-4-3"
       y="5.2916665"
       x="18.784389"
       style="font-style:normal;font-variant:normal;font-weight:normal;font-stretch:normal;font-size:4.23333px;line-height:125%;font-family:'Times New Roman';-inkscape-font-specification:'Times New Roman, ';letter-spacing:0px;word-spacing:0px;fill:#000000;fill-opacity:1;stroke:none;stroke-width:0.264583px;stroke-linecap:butt;stroke-linejoin:miter;stroke-opacity:1"
       xml:space="preserve"><tspan
         style="font-size:4.23333px;stroke-width:0.264583px"
         y="5.2916665"
         x="18.784389"
         id="tspan1940-9-6"
         sodipodi:role="line">0</tspan></text>
    <text
       id="text1942-4-7"
       y="5.2916665"
       x="2.909389"
       style="font-style:normal;font-variant:normal;font-weight:normal;font-stretch:normal;font-size:4.23333px;line-height:125%;font-family:'Times New Roman';-inkscape-font-specification:'Times New Roman, ';letter-spacing:0px;word-spacing:0px;fill:#000000;fill-opacity:1;stroke:none;stroke-width:0.264583px;stroke-linecap:butt;stroke-linejoin:miter;stroke-opacity:1"
       xml:space="preserve"><tspan
         style="font-size:4.23333px;stroke-width:0.264583px"
         y="5.2916665"
         x="2.909389"
         id="tspan1940-9-5"
         sodipodi:role="line">0</tspan></text>
  </g>
</svg>
