<?xml version="1.0" encoding="UTF-8" standalone="no"?>
<svg
   xmlns:ns8="http://www.iki.fi/pav/software/textext/"
   xmlns:dc="http://purl.org/dc/elements/1.1/"
   xmlns:cc="http://creativecommons.org/ns#"
   xmlns:rdf="http://www.w3.org/1999/02/22-rdf-syntax-ns#"
   xmlns:svg="http://www.w3.org/2000/svg"
   xmlns="http://www.w3.org/2000/svg"
   xmlns:sodipodi="http://sodipodi.sourceforge.net/DTD/sodipodi-0.dtd"
   xmlns:inkscape="http://www.inkscape.org/namespaces/inkscape"
   sodipodi:docname="exchange_matrix.svg"
   inkscape:version="1.0 (4035a4fb49, 2020-05-01)"
   id="svg8"
   version="1.1"
   viewBox="0 0 94.34201 10.696913"
   height="10.696913mm"
   width="94.34201mm">
  <defs
     id="defs2" />
  <sodipodi:namedview
     fit-margin-bottom="0"
     fit-margin-right="0"
     fit-margin-left="0"
     fit-margin-top="0"
     inkscape:window-maximized="1"
     inkscape:window-y="0"
     inkscape:window-x="0"
     inkscape:window-height="1049"
     inkscape:window-width="1890"
     showgrid="false"
     inkscape:document-rotation="0"
     inkscape:current-layer="layer1"
     inkscape:document-units="mm"
     inkscape:cy="51.865742"
     inkscape:cx="68.392015"
     inkscape:zoom="0.89182209"
     inkscape:pageshadow="2"
     inkscape:pageopacity="0.0"
     borderopacity="1.0"
     bordercolor="#666666"
     pagecolor="#ffffff"
     id="base" />
  <metadata
     id="metadata5">
    <rdf:RDF>
      <cc:Work
         rdf:about="">
        <dc:format>image/svg+xml</dc:format>
        <dc:type
           rdf:resource="http://purl.org/dc/dcmitype/StillImage" />
        <dc:title></dc:title>
      </cc:Work>
    </rdf:RDF>
  </metadata>
  <g
     transform="translate(-58.661502,-142.8182)"
     id="layer1"
     inkscape:groupmode="layer"
     inkscape:label="Layer 1">
    <g
       transform="matrix(0.529167,0,0,0.529167,58.6617,142.818)"
       ns8:version="1.0.1"
       ns8:texconverter="pdflatex"
       ns8:pdfconverter="inkscape"
       ns8:text="$$\n\t\\hat H = \\mathbf{S}^1 \\cdot \\mathbf{S}^2 =\n\t\\frac{1}{2}\\left[ S^1_+ S^2_- + S^1_- S^2_+ \\right] + S^1_z S^2_z \n$$"
       ns8:preamble="/home/igor/.config/inkscape/extensions/textext/default_packages.tex"
       ns8:scale="1.5"
       ns8:alignment="middle center"
       ns8:jacobian_sqrt="0.529167"
       id="g827">
      <defs
         id="id-869c9416-504e-4eb2-aaac-57f9de2ca97b">
        <g
           id="id-31c41612-e494-4102-9722-b1578a06a3e9">
          <symbol
             id="id-5726946b-8787-45cf-8bd2-fb76fcac8b36"
             overflow="visible">
            <path
               id="id-4aba68a8-abcc-496f-b321-3acf5e15e4dd"
               d=""
               style="stroke:none" />
          </symbol>
          <symbol
             id="id-d43658b6-15b5-47ac-ab99-98a7a32981c7"
             overflow="visible">
            <path
               id="id-34e26e72-cb8d-4ad1-8222-06b056a80aac"
               d="M 2.5,-6.921875 1.15625,-5.5625 1.328125,-5.390625 2.5,-6.40625 3.640625,-5.390625 3.8125,-5.5625 Z m 0,0"
               style="stroke:none" />
          </symbol>
          <symbol
             id="id-f1c1c37d-9bc4-4eac-a257-6320c0cccb92"
             overflow="visible">
            <path
               id="id-6a2810cf-0b51-4860-bd97-8f63a8b4cbb4"
               d="m 6.84375,-3.265625 c 0.15625,0 0.34375,0 0.34375,-0.1875 C 7.1875,-3.65625 7,-3.65625 6.859375,-3.65625 h -5.96875 c -0.140625,0 -0.328125,0 -0.328125,0.203125 0,0.1875 0.1875,0.1875 0.328125,0.1875 z m 0.015625,1.9375 c 0.140625,0 0.328125,0 0.328125,-0.203125 0,-0.1875 -0.1875,-0.1875 -0.34375,-0.1875 H 0.890625 c -0.140625,0 -0.328125,0 -0.328125,0.1875 0,0.203125 0.1875,0.203125 0.328125,0.203125 z m 0,0"
               style="stroke:none" />
          </symbol>
          <symbol
             id="id-2e1967d7-e821-4785-8d0d-714d0e49d1d0"
             overflow="visible">
            <path
               id="id-76871dfd-2859-457a-9bb0-c7447117f63e"
               d="m 2.9375,-6.375 c 0,-0.25 0,-0.265625 -0.234375,-0.265625 C 2.078125,-6 1.203125,-6 0.890625,-6 v 0.3125 c 0.203125,0 0.78125,0 1.296875,-0.265625 v 5.171875 c 0,0.359375 -0.03125,0.46875 -0.921875,0.46875 h -0.3125 V 0 c 0.34375,-0.03125 1.203125,-0.03125 1.609375,-0.03125 0.390625,0 1.265625,0 1.609375,0.03125 v -0.3125 h -0.3125 c -0.90625,0 -0.921875,-0.109375 -0.921875,-0.46875 z m 0,0"
               style="stroke:none" />
          </symbol>
          <symbol
             id="id-749c2eef-8e90-4f30-af24-46ed4f7dd50a"
             overflow="visible">
            <path
               id="id-2b14a823-a4db-4792-98a8-62bf8558cee8"
               d="m 1.265625,-0.765625 1.0625,-1.03125 c 1.546875,-1.375 2.140625,-1.90625 2.140625,-2.90625 0,-1.140625 -0.890625,-1.9375 -2.109375,-1.9375 -1.125,0 -1.859375,0.921875 -1.859375,1.8125 0,0.546875 0.5,0.546875 0.53125,0.546875 0.171875,0 0.515625,-0.109375 0.515625,-0.53125 0,-0.25 -0.1875,-0.515625 -0.53125,-0.515625 -0.078125,0 -0.09375,0 -0.125,0.015625 0.21875,-0.65625 0.765625,-1.015625 1.34375,-1.015625 0.90625,0 1.328125,0.8125 1.328125,1.625 C 3.5625,-3.90625 3.078125,-3.125 2.515625,-2.5 l -1.90625,2.125 C 0.5,-0.265625 0.5,-0.234375 0.5,0 H 4.203125 L 4.46875,-1.734375 H 4.234375 C 4.171875,-1.4375 4.109375,-1 4,-0.84375 3.9375,-0.765625 3.28125,-0.765625 3.0625,-0.765625 Z m 0,0"
               style="stroke:none" />
          </symbol>
          <symbol
             id="id-cfa99640-f14f-4dbb-978f-9b0b041292c1"
             overflow="visible">
            <path
               id="id-4501183d-c0b4-4523-8723-40bfb7a9c02f"
               d="m 4.078125,-2.296875 h 2.78125 C 7,-2.296875 7.1875,-2.296875 7.1875,-2.5 7.1875,-2.6875 7,-2.6875 6.859375,-2.6875 h -2.78125 v -2.796875 c 0,-0.140625 0,-0.328125 -0.203125,-0.328125 -0.203125,0 -0.203125,0.1875 -0.203125,0.328125 V -2.6875 h -2.78125 c -0.140625,0 -0.328125,0 -0.328125,0.1875 0,0.203125 0.1875,0.203125 0.328125,0.203125 h 2.78125 V 0.5 c 0,0.140625 0,0.328125 0.203125,0.328125 0.203125,0 0.203125,-0.1875 0.203125,-0.328125 z m 0,0"
               style="stroke:none" />
          </symbol>
          <symbol
             id="id-c05551a5-710c-4043-8108-708153d40b51"
             overflow="visible">
            <path
               id="id-1a9e1d04-d854-4309-9f0d-7d73affebf4e"
               d=""
               style="stroke:none" />
          </symbol>
          <symbol
             id="id-8d8b6f94-f450-47e4-a270-683dde6a4ed1"
             overflow="visible">
            <path
               id="id-6a39ff15-021f-4400-91f2-a5e0b82cb5c0"
               d="M 7.609375,-6.046875 C 7.703125,-6.40625 7.71875,-6.5 8.4375,-6.5 c 0.265625,0 0.34375,0 0.34375,-0.203125 0,-0.109375 -0.109375,-0.109375 -0.140625,-0.109375 -0.28125,0 -1,0.03125 -1.28125,0.03125 -0.28125,0 -0.984375,-0.03125 -1.28125,-0.03125 -0.078125,0 -0.1875,0 -0.1875,0.203125 0,0.109375 0.09375,0.109375 0.28125,0.109375 0.015625,0 0.203125,0 0.375,0.015625 0.1875,0.03125 0.265625,0.03125 0.265625,0.171875 0,0.03125 0,0.046875 -0.03125,0.1875 L 6.1875,-3.703125 H 3.140625 l 0.59375,-2.34375 C 3.8125,-6.40625 3.84375,-6.5 4.5625,-6.5 c 0.265625,0 0.34375,0 0.34375,-0.203125 0,-0.109375 -0.109375,-0.109375 -0.140625,-0.109375 -0.28125,0 -1,0.03125 -1.28125,0.03125 -0.28125,0 -0.984375,-0.03125 -1.28125,-0.03125 -0.078125,0 -0.1875,0 -0.1875,0.203125 0,0.109375 0.09375,0.109375 0.28125,0.109375 0.015625,0 0.203125,0 0.375,0.015625 0.171875,0.03125 0.265625,0.03125 0.265625,0.171875 0,0.03125 0,0.0625 -0.03125,0.1875 L 1.5625,-0.78125 c -0.09375,0.390625 -0.109375,0.46875 -0.90625,0.46875 -0.171875,0 -0.265625,0 -0.265625,0.203125 C 0.390625,0 0.515625,0 0.53125,0 0.8125,0 1.515625,-0.03125 1.796875,-0.03125 2,-0.03125 2.21875,-0.015625 2.4375,-0.015625 2.65625,-0.015625 2.875,0 3.078125,0 3.15625,0 3.28125,0 3.28125,-0.203125 3.28125,-0.3125 3.1875,-0.3125 3,-0.3125 c -0.375,0 -0.640625,0 -0.640625,-0.171875 0,-0.0625 0.015625,-0.109375 0.015625,-0.171875 l 0.6875,-2.734375 h 3.03125 c -0.40625,1.65625 -0.640625,2.609375 -0.6875,2.75 C 5.3125,-0.3125 5.125,-0.3125 4.5,-0.3125 c -0.140625,0 -0.234375,0 -0.234375,0.203125 C 4.265625,0 4.390625,0 4.40625,0 4.6875,0 5.390625,-0.03125 5.671875,-0.03125 5.875,-0.03125 6.09375,-0.015625 6.3125,-0.015625 6.53125,-0.015625 6.75,0 6.953125,0 7.03125,0 7.15625,0 7.15625,-0.203125 7.15625,-0.3125 7.0625,-0.3125 6.875,-0.3125 c -0.359375,0 -0.640625,0 -0.640625,-0.171875 0,-0.0625 0.015625,-0.109375 0.03125,-0.171875 z m 0,0"
               style="stroke:none" />
          </symbol>
          <symbol
             id="id-3ca09bdf-0141-4f98-879d-73bff82a1ef9"
             overflow="visible">
            <path
               id="id-9d14df96-9a01-4617-a3ee-9968cfb2982a"
               d="m 6.4375,-6.921875 c 0,-0.03125 -0.03125,-0.109375 -0.125,-0.109375 -0.046875,0 -0.046875,0.015625 -0.171875,0.15625 L 5.65625,-6.3125 c -0.25,-0.46875 -0.765625,-0.71875 -1.421875,-0.71875 -1.265625,0 -2.453125,1.15625 -2.453125,2.359375 0,0.796875 0.515625,1.265625 1.03125,1.40625 l 1.0625,0.28125 c 0.375,0.09375 0.921875,0.25 0.921875,1.0625 0,0.890625 -0.8125,1.828125 -1.796875,1.828125 -0.640625,0 -1.75,-0.21875 -1.75,-1.453125 0,-0.234375 0.0625,-0.484375 0.0625,-0.53125 0.015625,-0.046875 0.015625,-0.0625 0.015625,-0.078125 0,-0.09375 -0.0625,-0.109375 -0.109375,-0.109375 -0.046875,0 -0.078125,0.015625 -0.109375,0.046875 -0.03125,0.03125 -0.59375,2.3125 -0.59375,2.34375 0,0.046875 0.046875,0.09375 0.109375,0.09375 0.046875,0 0.0625,-0.015625 0.1875,-0.15625 L 1.296875,-0.5 c 0.421875,0.578125 1.109375,0.71875 1.6875,0.71875 1.359375,0 2.53125,-1.328125 2.53125,-2.5625 0,-0.6875 -0.34375,-1.03125 -0.484375,-1.171875 C 4.796875,-3.734375 4.640625,-3.78125 3.765625,-4 3.53125,-4.0625 3.1875,-4.171875 3.09375,-4.1875 2.828125,-4.28125 2.484375,-4.5625 2.484375,-5.09375 c 0,-0.8125 0.796875,-1.65625 1.75,-1.65625 0.8125,0 1.421875,0.4375 1.421875,1.546875 0,0.3125 -0.03125,0.5 -0.03125,0.5625 0,0 0,0.09375 0.109375,0.09375 0.109375,0 0.125,-0.03125 0.15625,-0.203125 z m 0,0"
               style="stroke:none" />
          </symbol>
          <symbol
             id="id-82e954a9-ef09-4496-88e5-087b879da276"
             overflow="visible">
            <path
               id="id-ddbc16dd-89c5-4f65-a2c6-da275d31dfaa"
               d=""
               style="stroke:none" />
          </symbol>
          <symbol
             id="id-e8e56a4d-7781-4048-a1fc-c3fa891a8b48"
             overflow="visible">
            <path
               id="id-d56d93ba-c997-4bd1-98c3-e78c147ceb5a"
               d="M 4,-4.125 2.5625,-4.4375 C 2.15625,-4.53125 1.609375,-4.859375 1.609375,-5.46875 c 0,-0.4375 0.28125,-1.046875 1.265625,-1.046875 0.796875,0 1.8125,0.328125 2.046875,1.6875 0.03125,0.25 0.03125,0.265625 0.234375,0.265625 0.25,0 0.25,-0.046875 0.25,-0.28125 v -1.828125 c 0,-0.1875 0,-0.28125 -0.1875,-0.28125 -0.078125,0 -0.078125,0.015625 -0.1875,0.109375 l -0.453125,0.4375 C 4,-6.859375 3.34375,-6.953125 2.875,-6.953125 c -1.515625,0 -2.234375,0.96875 -2.234375,2.015625 0,0.640625 0.328125,1.09375 0.53125,1.3125 0.5,0.5 0.828125,0.5625 1.921875,0.796875 0.875,0.203125 1.046875,0.21875 1.265625,0.4375 C 4.5,-2.25 4.75,-1.984375 4.75,-1.53125 c 0,0.484375 -0.25,1.171875 -1.296875,1.171875 -0.75,0 -2.265625,-0.203125 -2.34375,-1.6875 C 1.09375,-2.21875 1.09375,-2.265625 0.875,-2.265625 c -0.234375,0 -0.234375,0.046875 -0.234375,0.28125 v 1.8125 c 0,0.1875 0,0.28125 0.171875,0.28125 0.09375,0 0.109375,-0.015625 0.1875,-0.09375 L 1.46875,-0.4375 c 0.65625,0.484375 1.578125,0.546875 1.984375,0.546875 1.65625,0 2.265625,-1.125 2.265625,-2.140625 C 5.71875,-3.125 4.921875,-3.9375 4,-4.125 Z m 0,0"
               style="stroke:none" />
          </symbol>
          <symbol
             id="id-2e8b1c4a-b1dc-4544-a596-633ab75b029c"
             overflow="visible">
            <path
               id="id-d6795cff-1151-4bd4-97eb-612c6451bd50"
               d=""
               style="stroke:none" />
          </symbol>
          <symbol
             id="id-be95d6a1-a134-4a58-9a44-30a100bafdea"
             overflow="visible">
            <path
               id="id-0d560b23-2207-4a17-b0fa-3fae791fd6ca"
               d="m 2.328125,-4.4375 c 0,-0.1875 0,-0.1875 -0.203125,-0.1875 -0.453125,0.4375 -1.078125,0.4375 -1.359375,0.4375 v 0.25 c 0.15625,0 0.625,0 1,-0.1875 v 3.546875 c 0,0.234375 0,0.328125 -0.6875,0.328125 H 0.8125 V 0 c 0.125,0 0.984375,-0.03125 1.234375,-0.03125 0.21875,0 1.09375,0.03125 1.25,0.03125 V -0.25 H 3.03125 c -0.703125,0 -0.703125,-0.09375 -0.703125,-0.328125 z m 0,0"
               style="stroke:none" />
          </symbol>
          <symbol
             id="id-a7987a4d-9d60-4752-a033-15f024c4c639"
             overflow="visible">
            <path
               id="id-da393e04-510d-4141-99bd-a243b6495073"
               d="M 3.515625,-1.265625 H 3.28125 c -0.015625,0.15625 -0.09375,0.5625 -0.1875,0.625 C 3.046875,-0.59375 2.515625,-0.59375 2.40625,-0.59375 H 1.125 c 0.734375,-0.640625 0.984375,-0.84375 1.390625,-1.171875 0.515625,-0.40625 1,-0.84375 1,-1.5 0,-0.84375 -0.734375,-1.359375 -1.625,-1.359375 -0.859375,0 -1.453125,0.609375 -1.453125,1.25 0,0.34375 0.296875,0.390625 0.375,0.390625 0.15625,0 0.359375,-0.125 0.359375,-0.375 0,-0.125 -0.046875,-0.375 -0.40625,-0.375 C 0.984375,-4.21875 1.453125,-4.375 1.78125,-4.375 c 0.703125,0 1.0625,0.546875 1.0625,1.109375 0,0.609375 -0.4375,1.078125 -0.65625,1.328125 L 0.515625,-0.265625 C 0.4375,-0.203125 0.4375,-0.1875 0.4375,0 h 2.875 z m 0,0"
               style="stroke:none" />
          </symbol>
          <symbol
             id="id-6c1a5d18-f144-42ee-9461-e13434dd9495"
             overflow="visible">
            <path
               id="id-b9c47b23-e0fd-494e-9ec2-a62c7847d365"
               d="m 3.21875,-1.578125 h 2.140625 c 0.09375,0 0.25,0 0.25,-0.15625 0,-0.1875 -0.15625,-0.1875 -0.25,-0.1875 H 3.21875 V -4.0625 c 0,-0.078125 0,-0.25 -0.15625,-0.25 -0.171875,0 -0.171875,0.15625 -0.171875,0.25 v 2.140625 H 0.75 c -0.09375,0 -0.265625,0 -0.265625,0.171875 0,0.171875 0.15625,0.171875 0.265625,0.171875 H 2.890625 V 0.5625 c 0,0.09375 0,0.265625 0.15625,0.265625 0.171875,0 0.171875,-0.171875 0.171875,-0.265625 z m 0,0"
               style="stroke:none" />
          </symbol>
          <symbol
             id="id-5651f2f0-a917-4976-9f1c-a66933373e53"
             overflow="visible">
            <path
               id="id-017a53d7-8804-4a84-99e5-8c05fe0f2adf"
               d=""
               style="stroke:none" />
          </symbol>
          <symbol
             id="id-e310bbb0-af5d-4b86-8c4c-43c8d195d7ad"
             overflow="visible">
            <path
               id="id-77a68852-f0ab-4ac1-a8e9-86bd6b34c8a3"
               d="m 1.90625,-2.5 c 0,-0.28125 -0.234375,-0.515625 -0.515625,-0.515625 -0.296875,0 -0.53125,0.234375 -0.53125,0.515625 0,0.296875 0.234375,0.53125 0.53125,0.53125 0.28125,0 0.515625,-0.234375 0.515625,-0.53125 z m 0,0"
               style="stroke:none" />
          </symbol>
          <symbol
             id="id-2aff8f92-9214-45b1-9692-100969797cce"
             overflow="visible">
            <path
               id="id-ab98ba25-205b-41db-9792-3b227b366cbc"
               d=""
               style="stroke:none" />
          </symbol>
          <symbol
             id="id-7d3ddc1c-5eee-4752-ad4d-ad013fa14f1f"
             overflow="visible">
            <path
               id="id-46b53b03-7cd3-4e77-bee6-604bbe3125c9"
               d="m 2.015625,11.546875 h 1.90625 V 11.15625 H 2.40625 V 0 h 1.515625 v -0.40625 h -1.90625 z m 0,0"
               style="stroke:none" />
          </symbol>
          <symbol
             id="id-3ed50faf-59cd-43de-b444-ca8970e1fdee"
             overflow="visible">
            <path
               id="id-f2561065-3766-4171-a8f4-afa3020c4541"
               d="M 2.140625,11.546875 V -0.40625 H 0.21875 V 0 H 1.734375 V 11.15625 H 0.21875 v 0.390625 z m 0,0"
               style="stroke:none" />
          </symbol>
          <symbol
             id="id-0c559e28-d6bb-4e5e-81f8-992524da2c17"
             overflow="visible">
            <path
               id="id-07904600-5234-4604-8232-a4ac3d47ca54"
               d=""
               style="stroke:none" />
          </symbol>
          <symbol
             id="id-4282cdbe-f532-4167-9a0d-91cef705e2be"
             overflow="visible">
            <path
               id="id-19411656-5911-4637-8cb0-005cabfa4245"
               d="m 5.1875,-1.578125 c 0.109375,0 0.28125,0 0.28125,-0.15625 0,-0.1875 -0.171875,-0.1875 -0.28125,-0.1875 H 1.03125 c -0.109375,0 -0.28125,0 -0.28125,0.171875 0,0.171875 0.15625,0.171875 0.28125,0.171875 z m 0,0"
               style="stroke:none" />
          </symbol>
          <symbol
             id="id-1b02012d-3349-4b7d-81e1-7f3b450b3662"
             overflow="visible">
            <path
               id="id-6b276a8e-d3f2-41dd-9829-faf83ec53f2d"
               d=""
               style="stroke:none" />
          </symbol>
          <symbol
             id="id-d381f417-c831-4be0-89f8-77cdaf1287f8"
             overflow="visible">
            <path
               id="id-422cd918-1c0e-4b2f-a756-75c65720e8f4"
               d="m 1.171875,-0.609375 c 0.1875,-0.1875 0.3125,-0.3125 0.890625,-0.796875 0.15625,-0.109375 0.671875,-0.53125 0.875,-0.71875 0.421875,-0.421875 0.6875,-0.78125 0.6875,-0.859375 0,-0.09375 -0.078125,-0.09375 -0.109375,-0.09375 -0.0625,0 -0.09375,0.015625 -0.125,0.078125 -0.21875,0.3125 -0.359375,0.421875 -0.53125,0.421875 -0.078125,0 -0.1875,0 -0.390625,-0.203125 -0.234375,-0.25 -0.390625,-0.296875 -0.546875,-0.296875 -0.5625,0 -0.9375,0.609375 -0.9375,0.8125 0,0.078125 0.0625,0.09375 0.109375,0.09375 0.09375,0 0.109375,-0.015625 0.125,-0.09375 0.109375,-0.25 0.5,-0.265625 0.609375,-0.265625 0.171875,0 0.34375,0.046875 0.4375,0.0625 0.390625,0.078125 0.4375,0.078125 0.609375,0.078125 -0.171875,0.203125 -0.296875,0.328125 -0.96875,0.84375 -0.546875,0.4375 -0.734375,0.609375 -0.859375,0.75 -0.421875,0.40625 -0.625,0.71875 -0.625,0.78125 0,0.078125 0.09375,0.078125 0.125,0.078125 0.0625,0 0.078125,0 0.109375,-0.0625 0.1875,-0.265625 0.40625,-0.421875 0.640625,-0.421875 0.09375,0 0.1875,0 0.375,0.171875 0.21875,0.21875 0.359375,0.3125 0.59375,0.3125 C 3,0.0625 3.46875,-0.78125 3.46875,-1.015625 3.46875,-1.09375 3.390625,-1.09375 3.359375,-1.09375 3.265625,-1.09375 3.25,-1.0625 3.21875,-0.984375 3.09375,-0.640625 2.6875,-0.46875 2.34375,-0.46875 2.1875,-0.46875 2,-0.515625 1.828125,-0.546875 1.515625,-0.625 1.453125,-0.625 1.328125,-0.625 c -0.015625,0 -0.109375,0 -0.15625,0.015625 z m 0,0"
               style="stroke:none" />
          </symbol>
        </g>
      </defs>
      <g
         transform="translate(-216.201,-135.54)"
         id="id-b56cab51-15ea-4784-91f5-0c864eb49821">
        <g
           id="id-f706461f-d2aa-4e2f-8bdd-1127dcb93ca5"
           style="fill:#000000;fill-opacity:1">
          <g
             transform="translate(218.418,146.403)"
             id="g694">
            <path
               id="id-2d17da5e-a4b4-4529-906d-a843f8f38ecb"
               d="M 2.5,-6.921875 1.15625,-5.5625 1.328125,-5.390625 2.5,-6.40625 3.640625,-5.390625 3.8125,-5.5625 Z m 0,0"
               style="stroke:none" />
          </g>
        </g>
        <g
           id="id-0dcd7cb3-6075-4d63-b5b1-1116c1c8e4e8"
           style="fill:#000000;fill-opacity:1">
          <g
             transform="translate(215.81,148.921)"
             id="g698">
            <path
               id="id-65bf76cc-34e1-47dc-823b-7d2601fec86f"
               d="M 7.609375,-6.046875 C 7.703125,-6.40625 7.71875,-6.5 8.4375,-6.5 c 0.265625,0 0.34375,0 0.34375,-0.203125 0,-0.109375 -0.109375,-0.109375 -0.140625,-0.109375 -0.28125,0 -1,0.03125 -1.28125,0.03125 -0.28125,0 -0.984375,-0.03125 -1.28125,-0.03125 -0.078125,0 -0.1875,0 -0.1875,0.203125 0,0.109375 0.09375,0.109375 0.28125,0.109375 0.015625,0 0.203125,0 0.375,0.015625 0.1875,0.03125 0.265625,0.03125 0.265625,0.171875 0,0.03125 0,0.046875 -0.03125,0.1875 L 6.1875,-3.703125 H 3.140625 l 0.59375,-2.34375 C 3.8125,-6.40625 3.84375,-6.5 4.5625,-6.5 c 0.265625,0 0.34375,0 0.34375,-0.203125 0,-0.109375 -0.109375,-0.109375 -0.140625,-0.109375 -0.28125,0 -1,0.03125 -1.28125,0.03125 -0.28125,0 -0.984375,-0.03125 -1.28125,-0.03125 -0.078125,0 -0.1875,0 -0.1875,0.203125 0,0.109375 0.09375,0.109375 0.28125,0.109375 0.015625,0 0.203125,0 0.375,0.015625 0.171875,0.03125 0.265625,0.03125 0.265625,0.171875 0,0.03125 0,0.0625 -0.03125,0.1875 L 1.5625,-0.78125 c -0.09375,0.390625 -0.109375,0.46875 -0.90625,0.46875 -0.171875,0 -0.265625,0 -0.265625,0.203125 C 0.390625,0 0.515625,0 0.53125,0 0.8125,0 1.515625,-0.03125 1.796875,-0.03125 2,-0.03125 2.21875,-0.015625 2.4375,-0.015625 2.65625,-0.015625 2.875,0 3.078125,0 3.15625,0 3.28125,0 3.28125,-0.203125 3.28125,-0.3125 3.1875,-0.3125 3,-0.3125 c -0.375,0 -0.640625,0 -0.640625,-0.171875 0,-0.0625 0.015625,-0.109375 0.015625,-0.171875 l 0.6875,-2.734375 h 3.03125 c -0.40625,1.65625 -0.640625,2.609375 -0.6875,2.75 C 5.3125,-0.3125 5.125,-0.3125 4.5,-0.3125 c -0.140625,0 -0.234375,0 -0.234375,0.203125 C 4.265625,0 4.390625,0 4.40625,0 4.6875,0 5.390625,-0.03125 5.671875,-0.03125 5.875,-0.03125 6.09375,-0.015625 6.3125,-0.015625 6.53125,-0.015625 6.75,0 6.953125,0 7.03125,0 7.15625,0 7.15625,-0.203125 7.15625,-0.3125 7.0625,-0.3125 6.875,-0.3125 c -0.359375,0 -0.640625,0 -0.640625,-0.171875 0,-0.0625 0.015625,-0.109375 0.03125,-0.171875 z m 0,0"
               style="stroke:none" />
          </g>
        </g>
        <g
           id="id-8af2fdab-e098-431c-a593-bd89e5a6e939"
           style="fill:#000000;fill-opacity:1">
          <g
             transform="translate(227.668,148.921)"
             id="g702">
            <path
               id="id-08e864b6-435e-41e0-8918-acc7b7e888a6"
               d="m 6.84375,-3.265625 c 0.15625,0 0.34375,0 0.34375,-0.1875 C 7.1875,-3.65625 7,-3.65625 6.859375,-3.65625 h -5.96875 c -0.140625,0 -0.328125,0 -0.328125,0.203125 0,0.1875 0.1875,0.1875 0.328125,0.1875 z m 0.015625,1.9375 c 0.140625,0 0.328125,0 0.328125,-0.203125 0,-0.1875 -0.1875,-0.1875 -0.34375,-0.1875 H 0.890625 c -0.140625,0 -0.328125,0 -0.328125,0.1875 0,0.203125 0.1875,0.203125 0.328125,0.203125 z m 0,0"
               style="stroke:none" />
          </g>
        </g>
        <g
           id="id-488366ad-9bae-41ba-a7f1-e0cf23097a84"
           style="fill:#000000;fill-opacity:1">
          <g
             transform="translate(238.184,148.921)"
             id="g706">
            <path
               id="id-3b22bbd1-7a61-499b-8959-c6527b6d6342"
               d="M 4,-4.125 2.5625,-4.4375 C 2.15625,-4.53125 1.609375,-4.859375 1.609375,-5.46875 c 0,-0.4375 0.28125,-1.046875 1.265625,-1.046875 0.796875,0 1.8125,0.328125 2.046875,1.6875 0.03125,0.25 0.03125,0.265625 0.234375,0.265625 0.25,0 0.25,-0.046875 0.25,-0.28125 v -1.828125 c 0,-0.1875 0,-0.28125 -0.1875,-0.28125 -0.078125,0 -0.078125,0.015625 -0.1875,0.109375 l -0.453125,0.4375 C 4,-6.859375 3.34375,-6.953125 2.875,-6.953125 c -1.515625,0 -2.234375,0.96875 -2.234375,2.015625 0,0.640625 0.328125,1.09375 0.53125,1.3125 0.5,0.5 0.828125,0.5625 1.921875,0.796875 0.875,0.203125 1.046875,0.21875 1.265625,0.4375 C 4.5,-2.25 4.75,-1.984375 4.75,-1.53125 c 0,0.484375 -0.25,1.171875 -1.296875,1.171875 -0.75,0 -2.265625,-0.203125 -2.34375,-1.6875 C 1.09375,-2.21875 1.09375,-2.265625 0.875,-2.265625 c -0.234375,0 -0.234375,0.046875 -0.234375,0.28125 v 1.8125 c 0,0.1875 0,0.28125 0.171875,0.28125 0.09375,0 0.109375,-0.015625 0.1875,-0.09375 L 1.46875,-0.4375 c 0.65625,0.484375 1.578125,0.546875 1.984375,0.546875 1.65625,0 2.265625,-1.125 2.265625,-2.140625 C 5.71875,-3.125 4.921875,-3.9375 4,-4.125 Z m 0,0"
               style="stroke:none" />
          </g>
        </g>
        <g
           id="id-146178d0-d743-478f-84f7-6193c691487e"
           style="fill:#000000;fill-opacity:1">
          <g
             transform="translate(244.549,144.808)"
             id="g710">
            <path
               id="id-1c98b852-74ff-415e-b55f-0b709ba72b71"
               d="m 2.328125,-4.4375 c 0,-0.1875 0,-0.1875 -0.203125,-0.1875 -0.453125,0.4375 -1.078125,0.4375 -1.359375,0.4375 v 0.25 c 0.15625,0 0.625,0 1,-0.1875 v 3.546875 c 0,0.234375 0,0.328125 -0.6875,0.328125 H 0.8125 V 0 c 0.125,0 0.984375,-0.03125 1.234375,-0.03125 0.21875,0 1.09375,0.03125 1.25,0.03125 V -0.25 H 3.03125 c -0.703125,0 -0.703125,-0.09375 -0.703125,-0.328125 z m 0,0"
               style="stroke:none" />
          </g>
        </g>
        <g
           id="id-34247d1d-a053-4b93-ab3f-f9e81f837389"
           style="fill:#000000;fill-opacity:1">
          <g
             transform="translate(251.232,148.921)"
             id="g714">
            <path
               id="id-7d36eb41-8879-46c3-988a-343ef4a137c2"
               d="m 1.90625,-2.5 c 0,-0.28125 -0.234375,-0.515625 -0.515625,-0.515625 -0.296875,0 -0.53125,0.234375 -0.53125,0.515625 0,0.296875 0.234375,0.53125 0.53125,0.53125 0.28125,0 0.515625,-0.234375 0.515625,-0.53125 z m 0,0"
               style="stroke:none" />
          </g>
        </g>
        <g
           id="id-630b41e1-b680-4693-8afd-b7a5d1fe5c6b"
           style="fill:#000000;fill-opacity:1">
          <g
             transform="translate(256.213,148.921)"
             id="g718">
            <path
               id="id-f084b164-188c-4c7d-b800-c4e0726a6b0a"
               d="M 4,-4.125 2.5625,-4.4375 C 2.15625,-4.53125 1.609375,-4.859375 1.609375,-5.46875 c 0,-0.4375 0.28125,-1.046875 1.265625,-1.046875 0.796875,0 1.8125,0.328125 2.046875,1.6875 0.03125,0.25 0.03125,0.265625 0.234375,0.265625 0.25,0 0.25,-0.046875 0.25,-0.28125 v -1.828125 c 0,-0.1875 0,-0.28125 -0.1875,-0.28125 -0.078125,0 -0.078125,0.015625 -0.1875,0.109375 l -0.453125,0.4375 C 4,-6.859375 3.34375,-6.953125 2.875,-6.953125 c -1.515625,0 -2.234375,0.96875 -2.234375,2.015625 0,0.640625 0.328125,1.09375 0.53125,1.3125 0.5,0.5 0.828125,0.5625 1.921875,0.796875 0.875,0.203125 1.046875,0.21875 1.265625,0.4375 C 4.5,-2.25 4.75,-1.984375 4.75,-1.53125 c 0,0.484375 -0.25,1.171875 -1.296875,1.171875 -0.75,0 -2.265625,-0.203125 -2.34375,-1.6875 C 1.09375,-2.21875 1.09375,-2.265625 0.875,-2.265625 c -0.234375,0 -0.234375,0.046875 -0.234375,0.28125 v 1.8125 c 0,0.1875 0,0.28125 0.171875,0.28125 0.09375,0 0.109375,-0.015625 0.1875,-0.09375 L 1.46875,-0.4375 c 0.65625,0.484375 1.578125,0.546875 1.984375,0.546875 1.65625,0 2.265625,-1.125 2.265625,-2.140625 C 5.71875,-3.125 4.921875,-3.9375 4,-4.125 Z m 0,0"
               style="stroke:none" />
          </g>
        </g>
        <g
           id="id-4130806d-efa2-43b7-9e25-9b651d8a2351"
           style="fill:#000000;fill-opacity:1">
          <g
             transform="translate(262.578,144.808)"
             id="g722">
            <path
               id="id-6cfae07b-d929-4362-83a7-ec4aa8e97a7a"
               d="M 3.515625,-1.265625 H 3.28125 c -0.015625,0.15625 -0.09375,0.5625 -0.1875,0.625 C 3.046875,-0.59375 2.515625,-0.59375 2.40625,-0.59375 H 1.125 c 0.734375,-0.640625 0.984375,-0.84375 1.390625,-1.171875 0.515625,-0.40625 1,-0.84375 1,-1.5 0,-0.84375 -0.734375,-1.359375 -1.625,-1.359375 -0.859375,0 -1.453125,0.609375 -1.453125,1.25 0,0.34375 0.296875,0.390625 0.375,0.390625 0.15625,0 0.359375,-0.125 0.359375,-0.375 0,-0.125 -0.046875,-0.375 -0.40625,-0.375 C 0.984375,-4.21875 1.453125,-4.375 1.78125,-4.375 c 0.703125,0 1.0625,0.546875 1.0625,1.109375 0,0.609375 -0.4375,1.078125 -0.65625,1.328125 L 0.515625,-0.265625 C 0.4375,-0.203125 0.4375,-0.1875 0.4375,0 h 2.875 z m 0,0"
               style="stroke:none" />
          </g>
        </g>
        <g
           id="id-047953b5-7031-4608-bbfd-d401417ea82e"
           style="fill:#000000;fill-opacity:1">
          <g
             transform="translate(269.815,148.921)"
             id="g726">
            <path
               id="id-80fb1739-1401-4dbc-84f1-49f55c4cfbd1"
               d="m 6.84375,-3.265625 c 0.15625,0 0.34375,0 0.34375,-0.1875 C 7.1875,-3.65625 7,-3.65625 6.859375,-3.65625 h -5.96875 c -0.140625,0 -0.328125,0 -0.328125,0.203125 0,0.1875 0.1875,0.1875 0.328125,0.1875 z m 0.015625,1.9375 c 0.140625,0 0.328125,0 0.328125,-0.203125 0,-0.1875 -0.1875,-0.1875 -0.34375,-0.1875 H 0.890625 c -0.140625,0 -0.328125,0 -0.328125,0.1875 0,0.203125 0.1875,0.203125 0.328125,0.203125 z m 0,0"
               style="stroke:none" />
          </g>
        </g>
        <g
           id="id-a31828df-737b-485d-8fc5-22b050e25537"
           style="fill:#000000;fill-opacity:1">
          <g
             transform="translate(281.527,142.181)"
             id="g730">
            <path
               id="id-c8582c7b-939d-429e-9b0b-043f8ad2fa0b"
               d="m 2.9375,-6.375 c 0,-0.25 0,-0.265625 -0.234375,-0.265625 C 2.078125,-6 1.203125,-6 0.890625,-6 v 0.3125 c 0.203125,0 0.78125,0 1.296875,-0.265625 v 5.171875 c 0,0.359375 -0.03125,0.46875 -0.921875,0.46875 h -0.3125 V 0 c 0.34375,-0.03125 1.203125,-0.03125 1.609375,-0.03125 0.390625,0 1.265625,0 1.609375,0.03125 v -0.3125 h -0.3125 c -0.90625,0 -0.921875,-0.109375 -0.921875,-0.46875 z m 0,0"
               style="stroke:none" />
          </g>
        </g>
        <path
           id="id-43a8986a-3f0b-401d-85fe-75ba6c30ec75"
           transform="matrix(1,0,0,-1,281.527,146.43)"
           d="M 3.4375e-4,3.125e-4 H 4.980813"
           style="fill:none;stroke:#000000;stroke-width:0.398;stroke-linecap:butt;stroke-linejoin:miter;stroke-miterlimit:10;stroke-opacity:1" />
        <g
           id="id-1528520b-e20d-4e9f-9bf2-cf7a13168c59"
           style="fill:#000000;fill-opacity:1">
          <g
             transform="translate(281.527,155.755)"
             id="g735">
            <path
               id="id-376f5618-7a63-4249-b92d-4975a676b294"
               d="m 1.265625,-0.765625 1.0625,-1.03125 c 1.546875,-1.375 2.140625,-1.90625 2.140625,-2.90625 0,-1.140625 -0.890625,-1.9375 -2.109375,-1.9375 -1.125,0 -1.859375,0.921875 -1.859375,1.8125 0,0.546875 0.5,0.546875 0.53125,0.546875 0.171875,0 0.515625,-0.109375 0.515625,-0.53125 0,-0.25 -0.1875,-0.515625 -0.53125,-0.515625 -0.078125,0 -0.09375,0 -0.125,0.015625 0.21875,-0.65625 0.765625,-1.015625 1.34375,-1.015625 0.90625,0 1.328125,0.8125 1.328125,1.625 C 3.5625,-3.90625 3.078125,-3.125 2.515625,-2.5 l -1.90625,2.125 C 0.5,-0.265625 0.5,-0.234375 0.5,0 H 4.203125 L 4.46875,-1.734375 H 4.234375 C 4.171875,-1.4375 4.109375,-1 4,-0.84375 3.9375,-0.765625 3.28125,-0.765625 3.0625,-0.765625 Z m 0,0"
               style="stroke:none" />
          </g>
        </g>
        <g
           id="id-d6b5febd-8c43-45e6-bd2d-bf96f67cf446"
           style="fill:#000000;fill-opacity:1">
          <g
             transform="translate(289.364,140.851)"
             id="g739">
            <path
               id="id-69497f37-b457-42ee-95a1-bc44ad767403"
               d="m 2.015625,11.546875 h 1.90625 V 11.15625 H 2.40625 V 0 h 1.515625 v -0.40625 h -1.90625 z m 0,0"
               style="stroke:none" />
          </g>
        </g>
        <g
           id="id-efe15df4-c717-4af5-b826-41874b424e78"
           style="fill:#000000;fill-opacity:1">
          <g
             transform="translate(293.515,148.921)"
             id="g743">
            <path
               id="id-f3adf42e-0006-49c2-9d1e-5986b934e9a0"
               d="m 6.4375,-6.921875 c 0,-0.03125 -0.03125,-0.109375 -0.125,-0.109375 -0.046875,0 -0.046875,0.015625 -0.171875,0.15625 L 5.65625,-6.3125 c -0.25,-0.46875 -0.765625,-0.71875 -1.421875,-0.71875 -1.265625,0 -2.453125,1.15625 -2.453125,2.359375 0,0.796875 0.515625,1.265625 1.03125,1.40625 l 1.0625,0.28125 c 0.375,0.09375 0.921875,0.25 0.921875,1.0625 0,0.890625 -0.8125,1.828125 -1.796875,1.828125 -0.640625,0 -1.75,-0.21875 -1.75,-1.453125 0,-0.234375 0.0625,-0.484375 0.0625,-0.53125 0.015625,-0.046875 0.015625,-0.0625 0.015625,-0.078125 0,-0.09375 -0.0625,-0.109375 -0.109375,-0.109375 -0.046875,0 -0.078125,0.015625 -0.109375,0.046875 -0.03125,0.03125 -0.59375,2.3125 -0.59375,2.34375 0,0.046875 0.046875,0.09375 0.109375,0.09375 0.046875,0 0.0625,-0.015625 0.1875,-0.15625 L 1.296875,-0.5 c 0.421875,0.578125 1.109375,0.71875 1.6875,0.71875 1.359375,0 2.53125,-1.328125 2.53125,-2.5625 0,-0.6875 -0.34375,-1.03125 -0.484375,-1.171875 C 4.796875,-3.734375 4.640625,-3.78125 3.765625,-4 3.53125,-4.0625 3.1875,-4.171875 3.09375,-4.1875 2.828125,-4.28125 2.484375,-4.5625 2.484375,-5.09375 c 0,-0.8125 0.796875,-1.65625 1.75,-1.65625 0.8125,0 1.421875,0.4375 1.421875,1.546875 0,0.3125 -0.03125,0.5 -0.03125,0.5625 0,0 0,0.09375 0.109375,0.09375 0.109375,0 0.125,-0.03125 0.15625,-0.203125 z m 0,0"
               style="stroke:none" />
          </g>
        </g>
        <g
           id="id-60a0fa3b-e611-4b57-9efd-2078ed258f09"
           style="fill:#000000;fill-opacity:1">
          <g
             transform="translate(300.198,144.808)"
             id="g747">
            <path
               id="id-93320291-7138-4cc9-954e-659d0d04934b"
               d="m 2.328125,-4.4375 c 0,-0.1875 0,-0.1875 -0.203125,-0.1875 -0.453125,0.4375 -1.078125,0.4375 -1.359375,0.4375 v 0.25 c 0.15625,0 0.625,0 1,-0.1875 v 3.546875 c 0,0.234375 0,0.328125 -0.6875,0.328125 H 0.8125 V 0 c 0.125,0 0.984375,-0.03125 1.234375,-0.03125 0.21875,0 1.09375,0.03125 1.25,0.03125 V -0.25 H 3.03125 c -0.703125,0 -0.703125,-0.09375 -0.703125,-0.328125 z m 0,0"
               style="stroke:none" />
          </g>
        </g>
        <g
           id="id-e5e4c1eb-2af6-471c-bccc-10eea529a8fb"
           style="fill:#000000;fill-opacity:1">
          <g
             transform="translate(299.624,151.384)"
             id="g751">
            <path
               id="id-4a83117e-1ced-403a-9f21-c8a0c08fd0bc"
               d="m 3.21875,-1.578125 h 2.140625 c 0.09375,0 0.25,0 0.25,-0.15625 0,-0.1875 -0.15625,-0.1875 -0.25,-0.1875 H 3.21875 V -4.0625 c 0,-0.078125 0,-0.25 -0.15625,-0.25 -0.171875,0 -0.171875,0.15625 -0.171875,0.25 v 2.140625 H 0.75 c -0.09375,0 -0.265625,0 -0.265625,0.171875 0,0.171875 0.15625,0.171875 0.265625,0.171875 H 2.890625 V 0.5625 c 0,0.09375 0,0.265625 0.15625,0.265625 0.171875,0 0.171875,-0.171875 0.171875,-0.265625 z m 0,0"
               style="stroke:none" />
          </g>
        </g>
        <g
           id="id-e6dd7f84-fd7d-4081-a063-8852fc0eceee"
           style="fill:#000000;fill-opacity:1">
          <g
             transform="translate(306.238,148.921)"
             id="g755">
            <path
               id="id-9d8b7f5e-4ebd-455b-aa51-d7bf97bf2983"
               d="m 6.4375,-6.921875 c 0,-0.03125 -0.03125,-0.109375 -0.125,-0.109375 -0.046875,0 -0.046875,0.015625 -0.171875,0.15625 L 5.65625,-6.3125 c -0.25,-0.46875 -0.765625,-0.71875 -1.421875,-0.71875 -1.265625,0 -2.453125,1.15625 -2.453125,2.359375 0,0.796875 0.515625,1.265625 1.03125,1.40625 l 1.0625,0.28125 c 0.375,0.09375 0.921875,0.25 0.921875,1.0625 0,0.890625 -0.8125,1.828125 -1.796875,1.828125 -0.640625,0 -1.75,-0.21875 -1.75,-1.453125 0,-0.234375 0.0625,-0.484375 0.0625,-0.53125 0.015625,-0.046875 0.015625,-0.0625 0.015625,-0.078125 0,-0.09375 -0.0625,-0.109375 -0.109375,-0.109375 -0.046875,0 -0.078125,0.015625 -0.109375,0.046875 -0.03125,0.03125 -0.59375,2.3125 -0.59375,2.34375 0,0.046875 0.046875,0.09375 0.109375,0.09375 0.046875,0 0.0625,-0.015625 0.1875,-0.15625 L 1.296875,-0.5 c 0.421875,0.578125 1.109375,0.71875 1.6875,0.71875 1.359375,0 2.53125,-1.328125 2.53125,-2.5625 0,-0.6875 -0.34375,-1.03125 -0.484375,-1.171875 C 4.796875,-3.734375 4.640625,-3.78125 3.765625,-4 3.53125,-4.0625 3.1875,-4.171875 3.09375,-4.1875 2.828125,-4.28125 2.484375,-4.5625 2.484375,-5.09375 c 0,-0.8125 0.796875,-1.65625 1.75,-1.65625 0.8125,0 1.421875,0.4375 1.421875,1.546875 0,0.3125 -0.03125,0.5 -0.03125,0.5625 0,0 0,0.09375 0.109375,0.09375 0.109375,0 0.125,-0.03125 0.15625,-0.203125 z m 0,0"
               style="stroke:none" />
          </g>
        </g>
        <g
           id="id-2468a94d-1c38-4e35-b1e5-da915c5d270b"
           style="fill:#000000;fill-opacity:1">
          <g
             transform="translate(312.921,144.808)"
             id="g759">
            <path
               id="id-22b741ad-9812-4dc0-958d-5a77303855bc"
               d="M 3.515625,-1.265625 H 3.28125 c -0.015625,0.15625 -0.09375,0.5625 -0.1875,0.625 C 3.046875,-0.59375 2.515625,-0.59375 2.40625,-0.59375 H 1.125 c 0.734375,-0.640625 0.984375,-0.84375 1.390625,-1.171875 0.515625,-0.40625 1,-0.84375 1,-1.5 0,-0.84375 -0.734375,-1.359375 -1.625,-1.359375 -0.859375,0 -1.453125,0.609375 -1.453125,1.25 0,0.34375 0.296875,0.390625 0.375,0.390625 0.15625,0 0.359375,-0.125 0.359375,-0.375 0,-0.125 -0.046875,-0.375 -0.40625,-0.375 C 0.984375,-4.21875 1.453125,-4.375 1.78125,-4.375 c 0.703125,0 1.0625,0.546875 1.0625,1.109375 0,0.609375 -0.4375,1.078125 -0.65625,1.328125 L 0.515625,-0.265625 C 0.4375,-0.203125 0.4375,-0.1875 0.4375,0 h 2.875 z m 0,0"
               style="stroke:none" />
          </g>
        </g>
        <g
           id="id-f14e2d6f-3812-4c16-b734-6dc33012696a"
           style="fill:#000000;fill-opacity:1">
          <g
             transform="translate(312.347,151.384)"
             id="g763">
            <path
               id="id-d669cdde-ed9a-4568-aa15-91d2ad3f2f2c"
               d="m 5.1875,-1.578125 c 0.109375,0 0.28125,0 0.28125,-0.15625 0,-0.1875 -0.171875,-0.1875 -0.28125,-0.1875 H 1.03125 c -0.109375,0 -0.28125,0 -0.28125,0.171875 0,0.171875 0.15625,0.171875 0.28125,0.171875 z m 0,0"
               style="stroke:none" />
          </g>
        </g>
        <g
           id="id-3f40aea7-6acd-40e2-a560-54ed937eded2"
           style="fill:#000000;fill-opacity:1">
          <g
             transform="translate(321.286,148.921)"
             id="g767">
            <path
               id="id-6b4b1cba-a9d6-4f17-aee3-09ca281adad0"
               d="m 4.078125,-2.296875 h 2.78125 C 7,-2.296875 7.1875,-2.296875 7.1875,-2.5 7.1875,-2.6875 7,-2.6875 6.859375,-2.6875 h -2.78125 v -2.796875 c 0,-0.140625 0,-0.328125 -0.203125,-0.328125 -0.203125,0 -0.203125,0.1875 -0.203125,0.328125 V -2.6875 h -2.78125 c -0.140625,0 -0.328125,0 -0.328125,0.1875 0,0.203125 0.1875,0.203125 0.328125,0.203125 h 2.78125 V 0.5 c 0,0.140625 0,0.328125 0.203125,0.328125 0.203125,0 0.203125,-0.1875 0.203125,-0.328125 z m 0,0"
               style="stroke:none" />
          </g>
        </g>
        <g
           id="id-baa81153-70a2-4fe0-8329-bb0a08c79135"
           style="fill:#000000;fill-opacity:1">
          <g
             transform="translate(331.248,148.921)"
             id="g771">
            <path
               id="id-9de3749a-a02a-49ca-bb24-3ca0c2c36799"
               d="m 6.4375,-6.921875 c 0,-0.03125 -0.03125,-0.109375 -0.125,-0.109375 -0.046875,0 -0.046875,0.015625 -0.171875,0.15625 L 5.65625,-6.3125 c -0.25,-0.46875 -0.765625,-0.71875 -1.421875,-0.71875 -1.265625,0 -2.453125,1.15625 -2.453125,2.359375 0,0.796875 0.515625,1.265625 1.03125,1.40625 l 1.0625,0.28125 c 0.375,0.09375 0.921875,0.25 0.921875,1.0625 0,0.890625 -0.8125,1.828125 -1.796875,1.828125 -0.640625,0 -1.75,-0.21875 -1.75,-1.453125 0,-0.234375 0.0625,-0.484375 0.0625,-0.53125 0.015625,-0.046875 0.015625,-0.0625 0.015625,-0.078125 0,-0.09375 -0.0625,-0.109375 -0.109375,-0.109375 -0.046875,0 -0.078125,0.015625 -0.109375,0.046875 -0.03125,0.03125 -0.59375,2.3125 -0.59375,2.34375 0,0.046875 0.046875,0.09375 0.109375,0.09375 0.046875,0 0.0625,-0.015625 0.1875,-0.15625 L 1.296875,-0.5 c 0.421875,0.578125 1.109375,0.71875 1.6875,0.71875 1.359375,0 2.53125,-1.328125 2.53125,-2.5625 0,-0.6875 -0.34375,-1.03125 -0.484375,-1.171875 C 4.796875,-3.734375 4.640625,-3.78125 3.765625,-4 3.53125,-4.0625 3.1875,-4.171875 3.09375,-4.1875 2.828125,-4.28125 2.484375,-4.5625 2.484375,-5.09375 c 0,-0.8125 0.796875,-1.65625 1.75,-1.65625 0.8125,0 1.421875,0.4375 1.421875,1.546875 0,0.3125 -0.03125,0.5 -0.03125,0.5625 0,0 0,0.09375 0.109375,0.09375 0.109375,0 0.125,-0.03125 0.15625,-0.203125 z m 0,0"
               style="stroke:none" />
          </g>
        </g>
        <g
           id="id-70776c84-c499-445c-822b-80f91d5b9896"
           style="fill:#000000;fill-opacity:1">
          <g
             transform="translate(337.932,144.808)"
             id="g775">
            <path
               id="id-2f57ae60-058f-4a84-9336-232dd19c2339"
               d="m 2.328125,-4.4375 c 0,-0.1875 0,-0.1875 -0.203125,-0.1875 -0.453125,0.4375 -1.078125,0.4375 -1.359375,0.4375 v 0.25 c 0.15625,0 0.625,0 1,-0.1875 v 3.546875 c 0,0.234375 0,0.328125 -0.6875,0.328125 H 0.8125 V 0 c 0.125,0 0.984375,-0.03125 1.234375,-0.03125 0.21875,0 1.09375,0.03125 1.25,0.03125 V -0.25 H 3.03125 c -0.703125,0 -0.703125,-0.09375 -0.703125,-0.328125 z m 0,0"
               style="stroke:none" />
          </g>
        </g>
        <g
           id="id-77bfc940-bc19-45a4-8c3e-3c928f9236a9"
           style="fill:#000000;fill-opacity:1">
          <g
             transform="translate(337.357,151.384)"
             id="g779">
            <path
               id="id-22aa2247-bde4-4e64-ba1d-ed2573f8194d"
               d="m 5.1875,-1.578125 c 0.109375,0 0.28125,0 0.28125,-0.15625 0,-0.1875 -0.171875,-0.1875 -0.28125,-0.1875 H 1.03125 c -0.109375,0 -0.28125,0 -0.28125,0.171875 0,0.171875 0.15625,0.171875 0.28125,0.171875 z m 0,0"
               style="stroke:none" />
          </g>
        </g>
        <g
           id="id-4f45cf99-2a73-4cea-b978-3aa4235edcf0"
           style="fill:#000000;fill-opacity:1">
          <g
             transform="translate(344.082,148.921)"
             id="g783">
            <path
               id="id-519484ee-1b9b-4d80-a709-0674d19eb057"
               d="m 6.4375,-6.921875 c 0,-0.03125 -0.03125,-0.109375 -0.125,-0.109375 -0.046875,0 -0.046875,0.015625 -0.171875,0.15625 L 5.65625,-6.3125 c -0.25,-0.46875 -0.765625,-0.71875 -1.421875,-0.71875 -1.265625,0 -2.453125,1.15625 -2.453125,2.359375 0,0.796875 0.515625,1.265625 1.03125,1.40625 l 1.0625,0.28125 c 0.375,0.09375 0.921875,0.25 0.921875,1.0625 0,0.890625 -0.8125,1.828125 -1.796875,1.828125 -0.640625,0 -1.75,-0.21875 -1.75,-1.453125 0,-0.234375 0.0625,-0.484375 0.0625,-0.53125 0.015625,-0.046875 0.015625,-0.0625 0.015625,-0.078125 0,-0.09375 -0.0625,-0.109375 -0.109375,-0.109375 -0.046875,0 -0.078125,0.015625 -0.109375,0.046875 -0.03125,0.03125 -0.59375,2.3125 -0.59375,2.34375 0,0.046875 0.046875,0.09375 0.109375,0.09375 0.046875,0 0.0625,-0.015625 0.1875,-0.15625 L 1.296875,-0.5 c 0.421875,0.578125 1.109375,0.71875 1.6875,0.71875 1.359375,0 2.53125,-1.328125 2.53125,-2.5625 0,-0.6875 -0.34375,-1.03125 -0.484375,-1.171875 C 4.796875,-3.734375 4.640625,-3.78125 3.765625,-4 3.53125,-4.0625 3.1875,-4.171875 3.09375,-4.1875 2.828125,-4.28125 2.484375,-4.5625 2.484375,-5.09375 c 0,-0.8125 0.796875,-1.65625 1.75,-1.65625 0.8125,0 1.421875,0.4375 1.421875,1.546875 0,0.3125 -0.03125,0.5 -0.03125,0.5625 0,0 0,0.09375 0.109375,0.09375 0.109375,0 0.125,-0.03125 0.15625,-0.203125 z m 0,0"
               style="stroke:none" />
          </g>
        </g>
        <g
           id="id-4fb47b93-a428-4ef9-96d0-5ea26b370e13"
           style="fill:#000000;fill-opacity:1">
          <g
             transform="translate(350.765,144.808)"
             id="g787">
            <path
               id="id-2e42eb68-a791-434a-864b-2208c84334c9"
               d="M 3.515625,-1.265625 H 3.28125 c -0.015625,0.15625 -0.09375,0.5625 -0.1875,0.625 C 3.046875,-0.59375 2.515625,-0.59375 2.40625,-0.59375 H 1.125 c 0.734375,-0.640625 0.984375,-0.84375 1.390625,-1.171875 0.515625,-0.40625 1,-0.84375 1,-1.5 0,-0.84375 -0.734375,-1.359375 -1.625,-1.359375 -0.859375,0 -1.453125,0.609375 -1.453125,1.25 0,0.34375 0.296875,0.390625 0.375,0.390625 0.15625,0 0.359375,-0.125 0.359375,-0.375 0,-0.125 -0.046875,-0.375 -0.40625,-0.375 C 0.984375,-4.21875 1.453125,-4.375 1.78125,-4.375 c 0.703125,0 1.0625,0.546875 1.0625,1.109375 0,0.609375 -0.4375,1.078125 -0.65625,1.328125 L 0.515625,-0.265625 C 0.4375,-0.203125 0.4375,-0.1875 0.4375,0 h 2.875 z m 0,0"
               style="stroke:none" />
          </g>
        </g>
        <g
           id="id-b76c770f-f923-4d7f-b841-acaaab54ade9"
           style="fill:#000000;fill-opacity:1">
          <g
             transform="translate(350.191,151.384)"
             id="g791">
            <path
               id="id-4c0d32d8-5aed-4f1c-b33f-61277ca7462b"
               d="m 3.21875,-1.578125 h 2.140625 c 0.09375,0 0.25,0 0.25,-0.15625 0,-0.1875 -0.15625,-0.1875 -0.25,-0.1875 H 3.21875 V -4.0625 c 0,-0.078125 0,-0.25 -0.15625,-0.25 -0.171875,0 -0.171875,0.15625 -0.171875,0.25 v 2.140625 H 0.75 c -0.09375,0 -0.265625,0 -0.265625,0.171875 0,0.171875 0.15625,0.171875 0.265625,0.171875 H 2.890625 V 0.5625 c 0,0.09375 0,0.265625 0.15625,0.265625 0.171875,0 0.171875,-0.171875 0.171875,-0.265625 z m 0,0"
               style="stroke:none" />
          </g>
        </g>
        <g
           id="id-5e0312c4-c584-4a07-ad55-d5460dd5ead1"
           style="fill:#000000;fill-opacity:1">
          <g
             transform="translate(356.805,140.851)"
             id="g795">
            <path
               id="id-7272b23b-0db7-4901-85b7-b33dac3aaa33"
               d="M 2.140625,11.546875 V -0.40625 H 0.21875 V 0 H 1.734375 V 11.15625 H 0.21875 v 0.390625 z m 0,0"
               style="stroke:none" />
          </g>
        </g>
        <g
           id="id-bb53dbbf-6f6b-4949-b668-e432f47f9d45"
           style="fill:#000000;fill-opacity:1">
          <g
             transform="translate(363.17,148.921)"
             id="g799">
            <path
               id="id-d83109d5-72ee-4cde-aa49-1492eee6cf9c"
               d="m 4.078125,-2.296875 h 2.78125 C 7,-2.296875 7.1875,-2.296875 7.1875,-2.5 7.1875,-2.6875 7,-2.6875 6.859375,-2.6875 h -2.78125 v -2.796875 c 0,-0.140625 0,-0.328125 -0.203125,-0.328125 -0.203125,0 -0.203125,0.1875 -0.203125,0.328125 V -2.6875 h -2.78125 c -0.140625,0 -0.328125,0 -0.328125,0.1875 0,0.203125 0.1875,0.203125 0.328125,0.203125 h 2.78125 V 0.5 c 0,0.140625 0,0.328125 0.203125,0.328125 0.203125,0 0.203125,-0.1875 0.203125,-0.328125 z m 0,0"
               style="stroke:none" />
          </g>
        </g>
        <g
           id="id-16acb699-fc1e-4df7-92f1-9dfbe5ddb2bd"
           style="fill:#000000;fill-opacity:1">
          <g
             transform="translate(373.133,148.921)"
             id="g803">
            <path
               id="id-7e90038f-d6fb-4d5c-aadd-4967e21e3a08"
               d="m 6.4375,-6.921875 c 0,-0.03125 -0.03125,-0.109375 -0.125,-0.109375 -0.046875,0 -0.046875,0.015625 -0.171875,0.15625 L 5.65625,-6.3125 c -0.25,-0.46875 -0.765625,-0.71875 -1.421875,-0.71875 -1.265625,0 -2.453125,1.15625 -2.453125,2.359375 0,0.796875 0.515625,1.265625 1.03125,1.40625 l 1.0625,0.28125 c 0.375,0.09375 0.921875,0.25 0.921875,1.0625 0,0.890625 -0.8125,1.828125 -1.796875,1.828125 -0.640625,0 -1.75,-0.21875 -1.75,-1.453125 0,-0.234375 0.0625,-0.484375 0.0625,-0.53125 0.015625,-0.046875 0.015625,-0.0625 0.015625,-0.078125 0,-0.09375 -0.0625,-0.109375 -0.109375,-0.109375 -0.046875,0 -0.078125,0.015625 -0.109375,0.046875 -0.03125,0.03125 -0.59375,2.3125 -0.59375,2.34375 0,0.046875 0.046875,0.09375 0.109375,0.09375 0.046875,0 0.0625,-0.015625 0.1875,-0.15625 L 1.296875,-0.5 c 0.421875,0.578125 1.109375,0.71875 1.6875,0.71875 1.359375,0 2.53125,-1.328125 2.53125,-2.5625 0,-0.6875 -0.34375,-1.03125 -0.484375,-1.171875 C 4.796875,-3.734375 4.640625,-3.78125 3.765625,-4 3.53125,-4.0625 3.1875,-4.171875 3.09375,-4.1875 2.828125,-4.28125 2.484375,-4.5625 2.484375,-5.09375 c 0,-0.8125 0.796875,-1.65625 1.75,-1.65625 0.8125,0 1.421875,0.4375 1.421875,1.546875 0,0.3125 -0.03125,0.5 -0.03125,0.5625 0,0 0,0.09375 0.109375,0.09375 0.109375,0 0.125,-0.03125 0.15625,-0.203125 z m 0,0"
               style="stroke:none" />
          </g>
        </g>
        <g
           id="id-b43e029a-277e-49fa-b99b-d01c5c68755a"
           style="fill:#000000;fill-opacity:1">
          <g
             transform="translate(379.816,144.808)"
             id="g807">
            <path
               id="id-7c31580c-e1b2-4b47-8887-20beb260ff73"
               d="m 2.328125,-4.4375 c 0,-0.1875 0,-0.1875 -0.203125,-0.1875 -0.453125,0.4375 -1.078125,0.4375 -1.359375,0.4375 v 0.25 c 0.15625,0 0.625,0 1,-0.1875 v 3.546875 c 0,0.234375 0,0.328125 -0.6875,0.328125 H 0.8125 V 0 c 0.125,0 0.984375,-0.03125 1.234375,-0.03125 0.21875,0 1.09375,0.03125 1.25,0.03125 V -0.25 H 3.03125 c -0.703125,0 -0.703125,-0.09375 -0.703125,-0.328125 z m 0,0"
               style="stroke:none" />
          </g>
        </g>
        <g
           id="id-d729d2bb-5704-4eed-9395-8635b5ef0ea6"
           style="fill:#000000;fill-opacity:1">
          <g
             transform="translate(379.242,151.384)"
             id="g811">
            <path
               id="id-977cbd9d-323d-46a1-bf62-93fbf600f055"
               d="m 1.171875,-0.609375 c 0.1875,-0.1875 0.3125,-0.3125 0.890625,-0.796875 0.15625,-0.109375 0.671875,-0.53125 0.875,-0.71875 0.421875,-0.421875 0.6875,-0.78125 0.6875,-0.859375 0,-0.09375 -0.078125,-0.09375 -0.109375,-0.09375 -0.0625,0 -0.09375,0.015625 -0.125,0.078125 -0.21875,0.3125 -0.359375,0.421875 -0.53125,0.421875 -0.078125,0 -0.1875,0 -0.390625,-0.203125 -0.234375,-0.25 -0.390625,-0.296875 -0.546875,-0.296875 -0.5625,0 -0.9375,0.609375 -0.9375,0.8125 0,0.078125 0.0625,0.09375 0.109375,0.09375 0.09375,0 0.109375,-0.015625 0.125,-0.09375 0.109375,-0.25 0.5,-0.265625 0.609375,-0.265625 0.171875,0 0.34375,0.046875 0.4375,0.0625 0.390625,0.078125 0.4375,0.078125 0.609375,0.078125 -0.171875,0.203125 -0.296875,0.328125 -0.96875,0.84375 -0.546875,0.4375 -0.734375,0.609375 -0.859375,0.75 -0.421875,0.40625 -0.625,0.71875 -0.625,0.78125 0,0.078125 0.09375,0.078125 0.125,0.078125 0.0625,0 0.078125,0 0.109375,-0.0625 0.1875,-0.265625 0.40625,-0.421875 0.640625,-0.421875 0.09375,0 0.1875,0 0.375,0.171875 0.21875,0.21875 0.359375,0.3125 0.59375,0.3125 C 3,0.0625 3.46875,-0.78125 3.46875,-1.015625 3.46875,-1.09375 3.390625,-1.09375 3.359375,-1.09375 3.265625,-1.09375 3.25,-1.0625 3.21875,-0.984375 3.09375,-0.640625 2.6875,-0.46875 2.34375,-0.46875 2.1875,-0.46875 2,-0.515625 1.828125,-0.546875 1.515625,-0.625 1.453125,-0.625 1.328125,-0.625 c -0.015625,0 -0.109375,0 -0.15625,0.015625 z m 0,0"
               style="stroke:none" />
          </g>
        </g>
        <g
           id="id-031bcae3-c1f7-4317-8b20-5605fc52dada"
           style="fill:#000000;fill-opacity:1">
          <g
             transform="translate(384.286,148.921)"
             id="g815">
            <path
               id="id-dd9d841f-1c3b-47c8-8338-b61d49fdedd6"
               d="m 6.4375,-6.921875 c 0,-0.03125 -0.03125,-0.109375 -0.125,-0.109375 -0.046875,0 -0.046875,0.015625 -0.171875,0.15625 L 5.65625,-6.3125 c -0.25,-0.46875 -0.765625,-0.71875 -1.421875,-0.71875 -1.265625,0 -2.453125,1.15625 -2.453125,2.359375 0,0.796875 0.515625,1.265625 1.03125,1.40625 l 1.0625,0.28125 c 0.375,0.09375 0.921875,0.25 0.921875,1.0625 0,0.890625 -0.8125,1.828125 -1.796875,1.828125 -0.640625,0 -1.75,-0.21875 -1.75,-1.453125 0,-0.234375 0.0625,-0.484375 0.0625,-0.53125 0.015625,-0.046875 0.015625,-0.0625 0.015625,-0.078125 0,-0.09375 -0.0625,-0.109375 -0.109375,-0.109375 -0.046875,0 -0.078125,0.015625 -0.109375,0.046875 -0.03125,0.03125 -0.59375,2.3125 -0.59375,2.34375 0,0.046875 0.046875,0.09375 0.109375,0.09375 0.046875,0 0.0625,-0.015625 0.1875,-0.15625 L 1.296875,-0.5 c 0.421875,0.578125 1.109375,0.71875 1.6875,0.71875 1.359375,0 2.53125,-1.328125 2.53125,-2.5625 0,-0.6875 -0.34375,-1.03125 -0.484375,-1.171875 C 4.796875,-3.734375 4.640625,-3.78125 3.765625,-4 3.53125,-4.0625 3.1875,-4.171875 3.09375,-4.1875 2.828125,-4.28125 2.484375,-4.5625 2.484375,-5.09375 c 0,-0.8125 0.796875,-1.65625 1.75,-1.65625 0.8125,0 1.421875,0.4375 1.421875,1.546875 0,0.3125 -0.03125,0.5 -0.03125,0.5625 0,0 0,0.09375 0.109375,0.09375 0.109375,0 0.125,-0.03125 0.15625,-0.203125 z m 0,0"
               style="stroke:none" />
          </g>
        </g>
        <g
           id="id-7f7cb8f5-d25b-42a5-b1c1-9994936f586a"
           style="fill:#000000;fill-opacity:1">
          <g
             transform="translate(390.969,144.808)"
             id="g819">
            <path
               id="id-546658ed-5c7d-4290-aeee-21c2e65f66f0"
               d="M 3.515625,-1.265625 H 3.28125 c -0.015625,0.15625 -0.09375,0.5625 -0.1875,0.625 C 3.046875,-0.59375 2.515625,-0.59375 2.40625,-0.59375 H 1.125 c 0.734375,-0.640625 0.984375,-0.84375 1.390625,-1.171875 0.515625,-0.40625 1,-0.84375 1,-1.5 0,-0.84375 -0.734375,-1.359375 -1.625,-1.359375 -0.859375,0 -1.453125,0.609375 -1.453125,1.25 0,0.34375 0.296875,0.390625 0.375,0.390625 0.15625,0 0.359375,-0.125 0.359375,-0.375 0,-0.125 -0.046875,-0.375 -0.40625,-0.375 C 0.984375,-4.21875 1.453125,-4.375 1.78125,-4.375 c 0.703125,0 1.0625,0.546875 1.0625,1.109375 0,0.609375 -0.4375,1.078125 -0.65625,1.328125 L 0.515625,-0.265625 C 0.4375,-0.203125 0.4375,-0.1875 0.4375,0 h 2.875 z m 0,0"
               style="stroke:none" />
          </g>
        </g>
        <g
           id="id-a09611b3-9e01-4314-bd0c-668690cdf626"
           style="fill:#000000;fill-opacity:1">
          <g
             transform="translate(390.395,151.384)"
             id="g823">
            <path
               id="id-011ef26a-2b93-4965-88f9-929abf357104"
               d="m 1.171875,-0.609375 c 0.1875,-0.1875 0.3125,-0.3125 0.890625,-0.796875 0.15625,-0.109375 0.671875,-0.53125 0.875,-0.71875 0.421875,-0.421875 0.6875,-0.78125 0.6875,-0.859375 0,-0.09375 -0.078125,-0.09375 -0.109375,-0.09375 -0.0625,0 -0.09375,0.015625 -0.125,0.078125 -0.21875,0.3125 -0.359375,0.421875 -0.53125,0.421875 -0.078125,0 -0.1875,0 -0.390625,-0.203125 -0.234375,-0.25 -0.390625,-0.296875 -0.546875,-0.296875 -0.5625,0 -0.9375,0.609375 -0.9375,0.8125 0,0.078125 0.0625,0.09375 0.109375,0.09375 0.09375,0 0.109375,-0.015625 0.125,-0.09375 0.109375,-0.25 0.5,-0.265625 0.609375,-0.265625 0.171875,0 0.34375,0.046875 0.4375,0.0625 0.390625,0.078125 0.4375,0.078125 0.609375,0.078125 -0.171875,0.203125 -0.296875,0.328125 -0.96875,0.84375 -0.546875,0.4375 -0.734375,0.609375 -0.859375,0.75 -0.421875,0.40625 -0.625,0.71875 -0.625,0.78125 0,0.078125 0.09375,0.078125 0.125,0.078125 0.0625,0 0.078125,0 0.109375,-0.0625 0.1875,-0.265625 0.40625,-0.421875 0.640625,-0.421875 0.09375,0 0.1875,0 0.375,0.171875 0.21875,0.21875 0.359375,0.3125 0.59375,0.3125 C 3,0.0625 3.46875,-0.78125 3.46875,-1.015625 3.46875,-1.09375 3.390625,-1.09375 3.359375,-1.09375 3.265625,-1.09375 3.25,-1.0625 3.21875,-0.984375 3.09375,-0.640625 2.6875,-0.46875 2.34375,-0.46875 2.1875,-0.46875 2,-0.515625 1.828125,-0.546875 1.515625,-0.625 1.453125,-0.625 1.328125,-0.625 c -0.015625,0 -0.109375,0 -0.15625,0.015625 z m 0,0"
               style="stroke:none" />
          </g>
        </g>
      </g>
    </g>
  </g>
</svg>
