<?xml version="1.0" encoding="UTF-8" standalone="no"?>
<svg
   xmlns:ns2="http://www.iki.fi/pav/software/textext/"
   xmlns:dc="http://purl.org/dc/elements/1.1/"
   xmlns:cc="http://creativecommons.org/ns#"
   xmlns:rdf="http://www.w3.org/1999/02/22-rdf-syntax-ns#"
   xmlns:svg="http://www.w3.org/2000/svg"
   xmlns="http://www.w3.org/2000/svg"
   xmlns:sodipodi="http://sodipodi.sourceforge.net/DTD/sodipodi-0.dtd"
   xmlns:inkscape="http://www.inkscape.org/namespaces/inkscape"
   id="svg8"
   version="1.1"
   viewBox="0 0 156.68889 36.954539"
   height="36.95454mm"
   width="156.6889mm"
   inkscape:version="1.0.2 (e86c870879, 2021-01-15)"
   sodipodi:docname="logo.svg"
   inkscape:export-xdpi="159.20084"
   inkscape:export-ydpi="159.20084">
  <defs
     id="defs2">
    <defs
       id="id-bb1e4de6-71d9-4ed3-b086-cd8c08793979">
      <g
         id="id-339632e3-8398-4d40-b87b-929539a2bce5">
        <symbol
           id="id-b4252609-a7ac-4888-bcfd-1a5c8f00f242"
           overflow="visible">
          <path
             id="id-09c85a74-51f3-4162-8fc7-ad038c8e5e59"
             d=""
             style="stroke:none" />
        </symbol>
        <symbol
           id="id-704ced5c-f28d-45f2-a263-4d49782ff4f8"
           overflow="visible">
          <path
             id="id-023aadb9-5331-44b8-8ac5-378219033c67"
             d="M 2.546875,2.5 V 2.09375 h -0.96875 v -9.171875 h 0.96875 v -0.40625 h -1.375 V 2.5 Z m 0,0"
             style="stroke:none" />
        </symbol>
        <symbol
           id="id-223c53bd-ef6b-46b3-9968-a90967ec7824"
           overflow="visible">
          <path
             id="id-448e3420-80f0-48dd-946d-24292f1b3917"
             d="M 2.5,-6.921875 1.15625,-5.5625 1.328125,-5.390625 2.5,-6.40625 3.640625,-5.390625 3.8125,-5.5625 Z m 0,0"
             style="stroke:none" />
        </symbol>
        <symbol
           id="id-94445543-d104-4e91-a48b-8affef14060d"
           overflow="visible">
          <path
             id="id-0a6b4867-e165-45e9-9aaa-ef85c2c51fa7"
             d="M 1.578125,-7.484375 H 0.21875 v 0.40625 H 1.1875 V 2.09375 H 0.21875 V 2.5 h 1.359375 z m 0,0"
             style="stroke:none" />
        </symbol>
        <symbol
           id="id-a24a145d-661f-4140-819a-42dd78cc3d33"
           overflow="visible">
          <path
             id="id-13e308e8-b517-4e96-90df-58fe8797b58c"
             d=""
             style="stroke:none" />
        </symbol>
        <symbol
           id="id-b20fb3e8-e88a-4d1b-b939-6c41f21501d6"
           overflow="visible">
          <path
             id="id-d7020fe7-7536-4196-990a-0faa69980142"
             d="M 3.734375,-6.03125 C 3.8125,-6.390625 3.84375,-6.5 4.78125,-6.5 c 0.296875,0 0.375,0 0.375,-0.1875 0,-0.125 -0.109375,-0.125 -0.15625,-0.125 -0.328125,0 -1.140625,0.03125 -1.46875,0.03125 -0.296875,0 -1.03125,-0.03125 -1.328125,-0.03125 -0.0625,0 -0.1875,0 -0.1875,0.203125 0,0.109375 0.09375,0.109375 0.28125,0.109375 0.015625,0 0.203125,0 0.375,0.015625 0.171875,0.03125 0.265625,0.03125 0.265625,0.171875 0,0.03125 0,0.0625 -0.03125,0.1875 L 1.5625,-0.78125 c -0.09375,0.390625 -0.109375,0.46875 -0.90625,0.46875 -0.171875,0 -0.265625,0 -0.265625,0.203125 C 0.390625,0 0.484375,0 0.65625,0 h 4.625 C 5.515625,0 5.515625,0 5.578125,-0.171875 L 6.375,-2.328125 c 0.03125,-0.109375 0.03125,-0.125 0.03125,-0.140625 0,-0.03125 -0.03125,-0.109375 -0.109375,-0.109375 -0.09375,0 -0.109375,0.0625 -0.171875,0.21875 -0.34375,0.90625 -0.78125,2.046875 -2.5,2.046875 H 2.6875 c -0.140625,0 -0.171875,0 -0.21875,0 -0.109375,-0.015625 -0.140625,-0.03125 -0.140625,-0.109375 0,-0.03125 0,-0.046875 0.046875,-0.21875 z m 0,0"
             style="stroke:none" />
        </symbol>
        <symbol
           id="id-6b041f04-f35c-4b04-bfd4-76181eb5ad90"
           overflow="visible">
          <path
             id="id-e71172dd-6eb3-4bde-995b-d46ebf415c56"
             d="m 2.03125,-0.015625 c 0,-0.65625 -0.25,-1.046875 -0.640625,-1.046875 -0.328125,0 -0.53125,0.25 -0.53125,0.53125 C 0.859375,-0.265625 1.0625,0 1.390625,0 1.5,0 1.640625,-0.046875 1.734375,-0.125 1.765625,-0.15625 1.78125,-0.15625 1.78125,-0.15625 c 0.015625,0 0.015625,0 0.015625,0.140625 0,0.75 -0.34375,1.34375 -0.671875,1.671875 -0.109375,0.109375 -0.109375,0.125 -0.109375,0.15625 0,0.078125 0.046875,0.109375 0.09375,0.109375 0.109375,0 0.921875,-0.765625 0.921875,-1.9375 z m 0,0"
             style="stroke:none" />
        </symbol>
        <symbol
           id="id-3e95ee44-52c6-4144-9a2c-15b0762b9110"
           overflow="visible">
          <path
             id="id-09f4dc57-0831-4a8b-8ba4-32f16ad15b0d"
             d="m 7.578125,-6.921875 c 0,-0.03125 -0.015625,-0.109375 -0.109375,-0.109375 -0.03125,0 -0.046875,0.015625 -0.15625,0.125 L 6.625,-6.140625 C 6.53125,-6.28125 6.078125,-7.03125 4.96875,-7.03125 2.734375,-7.03125 0.5,-4.828125 0.5,-2.515625 0.5,-0.875 1.671875,0.21875 3.203125,0.21875 c 0.859375,0 1.625,-0.390625 2.15625,-0.859375 0.921875,-0.8125 1.09375,-1.71875 1.09375,-1.75 C 6.453125,-2.5 6.34375,-2.5 6.328125,-2.5 c -0.0625,0 -0.109375,0.03125 -0.125,0.109375 -0.09375,0.28125 -0.328125,1 -1.015625,1.578125 -0.6875,0.546875 -1.3125,0.71875 -1.828125,0.71875 -0.890625,0 -1.953125,-0.515625 -1.953125,-2.0625 0,-0.578125 0.203125,-2.1875 1.203125,-3.359375 0.609375,-0.703125 1.546875,-1.203125 2.4375,-1.203125 1.015625,0 1.609375,0.765625 1.609375,1.921875 0,0.40625 -0.03125,0.40625 -0.03125,0.515625 0,0.09375 0.109375,0.09375 0.140625,0.09375 0.125,0 0.125,-0.015625 0.1875,-0.203125 z m 0,0"
             style="stroke:none" />
        </symbol>
      </g>
    </defs>
    <defs
       id="id-40610b40-ced0-4d2d-8a82-2bd260beecc3">
      <g
         id="id-70ac5d96-7e49-409c-9b77-8f3721f95921">
        <symbol
           id="id-583eb6cd-55f8-4e20-ab93-4fd916a416d8"
           overflow="visible">
          <path
             id="id-84c24bc5-c5b7-4055-b79c-702da7ef05bc"
             d=""
             style="stroke:none" />
        </symbol>
        <symbol
           id="id-467cc044-8fe9-46ee-84ff-8fafc0459d52"
           overflow="visible">
          <path
             id="id-4229882d-cd0a-4400-8518-a6ea7ec59135"
             d="M 2.546875,2.5 V 2.09375 h -0.96875 v -9.171875 h 0.96875 v -0.40625 h -1.375 V 2.5 Z m 0,0"
             style="stroke:none" />
        </symbol>
        <symbol
           id="id-ef022b36-2524-4d96-a1b8-041b515b5bf6"
           overflow="visible">
          <path
             id="id-c771b000-8411-4147-b5bd-3fd69983a5af"
             d="M 2.5,-6.921875 1.15625,-5.5625 1.328125,-5.390625 2.5,-6.40625 3.640625,-5.390625 3.8125,-5.5625 Z m 0,0"
             style="stroke:none" />
        </symbol>
        <symbol
           id="id-6002e58c-aecc-4aa1-88b7-7c0284de6cf0"
           overflow="visible">
          <path
             id="id-0c242665-12f9-4542-892c-7bf665e307c3"
             d="M 1.578125,-7.484375 H 0.21875 v 0.40625 H 1.1875 V 2.09375 H 0.21875 V 2.5 h 1.359375 z m 0,0"
             style="stroke:none" />
        </symbol>
        <symbol
           id="id-11bccbe7-19d1-4dd5-82ae-353070a0158e"
           overflow="visible">
          <path
             id="id-5f510a30-99e9-43e4-a848-5b644784f0c2"
             d=""
             style="stroke:none" />
        </symbol>
        <symbol
           id="id-4a343bf7-9e72-4beb-bfdd-22200ae014c2"
           overflow="visible">
          <path
             id="id-f08c342e-ffb5-46f1-848b-ff633d4f638c"
             d="M 1.796875,-0.921875 C 2.328125,-1.765625 2.5,-2.40625 2.625,-2.9375 2.984375,-4.3125 3.359375,-5.5 3.984375,-6.1875 4.09375,-6.3125 4.171875,-6.40625 4.5,-6.40625 c 0.6875,0 0.703125,0.6875 0.703125,0.828125 0,0.171875 -0.046875,0.3125 -0.046875,0.359375 0,0.078125 0.0625,0.078125 0.0625,0.078125 0.171875,0 0.4375,-0.109375 0.6875,-0.296875 0.171875,-0.140625 0.265625,-0.234375 0.265625,-0.640625 0,-0.546875 -0.28125,-0.953125 -0.84375,-0.953125 -0.3125,0 -1.1875,0.078125 -2.171875,1.0625 -0.796875,0.828125 -1.265625,2.625 -1.453125,3.359375 -0.171875,0.703125 -0.25,1 -0.5625,1.609375 -0.0625,0.109375 -0.328125,0.546875 -0.46875,0.6875 C 0.40625,-0.0625 0.3125,0.109375 0.3125,0.15625 c 0,0.015625 0.015625,0.0625 0.09375,0.0625 0.03125,0 0.234375,-0.046875 0.5,-0.203125 0.171875,-0.109375 0.1875,-0.125 0.421875,-0.359375 0.5,0 0.84375,0.09375 1.46875,0.28125 0.515625,0.125 1.015625,0.28125 1.53125,0.28125 0.8125,0 1.625,-0.609375 1.9375,-1.046875 C 6.46875,-1.09375 6.53125,-1.34375 6.53125,-1.375 c 0,-0.078125 -0.0625,-0.078125 -0.078125,-0.078125 -0.15625,0 -0.390625,0.125 -0.5625,0.234375 C 5.625,-1.046875 5.609375,-0.984375 5.546875,-0.8125 5.5,-0.65625 5.4375,-0.578125 5.390625,-0.515625 5.3125,-0.40625 5.296875,-0.40625 5.15625,-0.40625 4.671875,-0.40625 4.171875,-0.546875 3.515625,-0.734375 3.234375,-0.8125 2.6875,-0.96875 2.1875,-0.96875 c -0.125,0 -0.265625,0.015625 -0.390625,0.046875 z m 0,0"
             style="stroke:none" />
        </symbol>
        <symbol
           id="id-c52cbd05-1a6a-4d86-ac85-f09d72b762bc"
           overflow="visible">
          <path
             id="id-cad8d8ef-a060-4575-8cc0-0735bc5e751e"
             d="m 4.9375,-1.5625 c 0,-0.0625 -0.046875,-0.078125 -0.09375,-0.078125 -0.171875,0 -0.40625,0.15625 -0.421875,0.15625 -0.1875,0.125 -0.234375,0.203125 -0.359375,0.375 -0.296875,0.46875 -0.75,0.796875 -1.390625,0.796875 -0.890625,0 -1.703125,-0.640625 -1.703125,-2.140625 0,-0.890625 0.359375,-2.078125 0.890625,-2.875 0.4375,-0.640625 0.96875,-1.15625 2,-1.15625 0.375,0 0.609375,0.140625 0.609375,0.515625 0,0.34375 -0.359375,1.046875 -0.484375,1.25 -0.0625,0.109375 -0.0625,0.140625 -0.0625,0.15625 0,0.0625 0.0625,0.0625 0.109375,0.0625 0.203125,0 0.578125,-0.21875 0.6875,-0.375 0.03125,-0.046875 0.609375,-1.015625 0.609375,-1.53125 0,-0.546875 -0.453125,-0.625 -0.8125,-0.625 -1.4375,0 -2.625,0.953125 -3.09375,1.515625 C 0.234375,-4.09375 0.125,-2.546875 0.125,-2.03125 0.125,-0.5625 0.859375,0.234375 2.015625,0.234375 3.625,0.234375 4.9375,-1.3125 4.9375,-1.5625 Z m 0,0"
             style="stroke:none" />
        </symbol>
        <symbol
           id="id-2f66a349-1e56-4e65-aa23-94b8c62e6abe"
           overflow="visible">
          <path
             id="id-e2b9ee79-e8aa-426d-b785-e9ec22e65f06"
             d=""
             style="stroke:none" />
        </symbol>
        <symbol
           id="id-15635dd2-70dd-4b81-b85d-702e5b434459"
           overflow="visible">
          <path
             id="id-94ec9de1-9f18-45d9-9b8f-3e5bca588df9"
             d="m 2.03125,-0.015625 c 0,-0.65625 -0.25,-1.046875 -0.640625,-1.046875 -0.328125,0 -0.53125,0.25 -0.53125,0.53125 C 0.859375,-0.265625 1.0625,0 1.390625,0 1.5,0 1.640625,-0.046875 1.734375,-0.125 1.765625,-0.15625 1.78125,-0.15625 1.78125,-0.15625 c 0.015625,0 0.015625,0 0.015625,0.140625 0,0.75 -0.34375,1.34375 -0.671875,1.671875 -0.109375,0.109375 -0.109375,0.125 -0.109375,0.15625 0,0.078125 0.046875,0.109375 0.09375,0.109375 0.109375,0 0.921875,-0.765625 0.921875,-1.9375 z m 0,0"
             style="stroke:none" />
        </symbol>
      </g>
    </defs>
  </defs>
  <sodipodi:namedview
     id="base"
     pagecolor="#ffffff"
     bordercolor="#666666"
     borderopacity="1.0"
     inkscape:pageopacity="0.0"
     inkscape:pageshadow="2"
     inkscape:zoom="1.8409606"
     inkscape:cx="285.33757"
     inkscape:cy="129.02563"
     inkscape:document-units="mm"
     inkscape:current-layer="id-4848aa88-5e56-4ffb-bc1b-93e8332acfcc"
     inkscape:document-rotation="0"
     showgrid="false"
     inkscape:window-width="1890"
     inkscape:window-height="1051"
     inkscape:window-x="0"
     inkscape:window-y="0"
     inkscape:window-maximized="1"
     fit-margin-top="0"
     fit-margin-left="0"
     fit-margin-right="0"
     fit-margin-bottom="0"
     gridtolerance="10000" />
  <metadata
     id="metadata5">
    <rdf:RDF>
      <cc:Work
         rdf:about="">
        <dc:format>image/svg+xml</dc:format>
        <dc:type
           rdf:resource="http://purl.org/dc/dcmitype/StillImage" />
        <dc:title></dc:title>
      </cc:Work>
    </rdf:RDF>
  </metadata>
  <g
     inkscape:label="Layer 1"
     inkscape:groupmode="layer"
     id="layer1"
     transform="translate(74.802442,3.3228897)">
    <g
       id="g69"
       ns2:jacobian_sqrt="0.352778"
       ns2:alignment="middle center"
       ns2:scale="1.0"
       ns2:preamble="/home/igor/.config/inkscape/extensions/textext/default_packages.tex"
       ns2:text="$$\\left\\{\\hat L, \\hat C\\right\\}_\\pm$$"
       ns2:pdfconverter="inkscape"
       ns2:texconverter="pdflatex"
       ns2:version="1.0.1"
       transform="matrix(0.352778,0,0,0.352778,74.1754,63.1729)">
      <defs
         id="id-e709d92e-bd9f-442d-90f2-7f1c2b3183a8">
        <g
           id="id-99307029-5728-4026-b4c3-a6054efee4b1">
          <symbol
             overflow="visible"
             id="id-c2d5e123-cdfc-4757-9821-2f31ad6d6e2b">
            <path
               style="stroke:none"
               d=""
               id="id-b4ba3ec3-09b5-4e9f-8875-71e8917c8c5b" />
          </symbol>
          <symbol
             overflow="visible"
             id="id-0b575625-37b0-40bf-96e6-e51f65cd5c36">
            <path
               style="stroke:none"
               d="m 3.703125,11.328125 c 0,-0.640625 0,-0.78125 -0.109375,-1.0625 C 3.296875,9.359375 2.40625,8.828125 1.75,8.578125 2.90625,8.078125 3.46875,7.421875 3.65625,6.71875 3.671875,6.59375 3.703125,6.421875 3.703125,6.375 V 1.890625 c 0,-0.828125 0.65625,-1.46875 1.59375,-1.859375 0.140625,-0.078125 0.15625,-0.078125 0.15625,-0.234375 0,-0.1875 -0.015625,-0.203125 -0.203125,-0.203125 -0.28125,0 -1.03125,0.375 -1.4375,0.6875 -0.328125,0.265625 -0.859375,0.828125 -0.875,1.5 0,0.796875 0,1.609375 0,2.40625 v 1.546875 c 0,0.890625 0,1.21875 -0.515625,1.828125 -0.125,0.140625 -0.40625,0.453125 -1.09375,0.78125 -0.125,0.0625 -0.140625,0.0625 -0.140625,0.21875 0,0.15625 0.015625,0.171875 0.203125,0.265625 C 2.453125,9.3125 2.9375,10.15625 2.9375,10.78125 v 4.15625 c 0,0.46875 0,1.0625 0.515625,1.578125 0.21875,0.21875 0.421875,0.4375 0.90625,0.6875 0.109375,0.0625 0.625,0.328125 0.890625,0.328125 0.1875,0 0.203125,0 0.203125,-0.203125 0,-0.125 0,-0.15625 -0.09375,-0.1875 -0.578125,-0.25 -1.46875,-0.71875 -1.640625,-1.65625 C 3.703125,15.375 3.703125,15.046875 3.703125,14.8125 Z m 0,0"
               id="id-3b6a780b-fe34-4fec-aa95-7755ce87fad8" />
          </symbol>
          <symbol
             overflow="visible"
             id="id-8f5890f9-b700-4458-8423-b7497a6bb5d0">
            <path
               style="stroke:none"
               d="m 3.703125,11.390625 c 0,-0.875 0,-1.203125 0.515625,-1.828125 C 4.328125,9.453125 4.640625,9.109375 5.3125,8.796875 5.4375,8.734375 5.453125,8.71875 5.453125,8.578125 5.453125,8.46875 5.453125,8.4375 5.4375,8.40625 5.421875,8.390625 5.40625,8.390625 5.25,8.3125 4.203125,7.828125 3.703125,6.984375 3.703125,6.34375 V 2.203125 c 0,-0.46875 0,-1.0625 -0.515625,-1.578125 C 2.96875,0.40625 2.765625,0.1875 2.28125,-0.0625 2.1875,-0.109375 1.65625,-0.40625 1.390625,-0.40625 c -0.1875,0 -0.203125,0.015625 -0.203125,0.203125 0,0.140625 0,0.171875 0.09375,0.21875 0.390625,0.15625 1.453125,0.609375 1.640625,1.625 C 2.9375,1.75 2.9375,2.09375 2.9375,2.328125 V 5.8125 c 0,0.640625 0,0.78125 0.109375,1.0625 0.296875,0.90625 1.1875,1.421875 1.84375,1.6875 -1.15625,0.484375 -1.71875,1.15625 -1.90625,1.859375 C 2.953125,10.53125 2.9375,10.71875 2.9375,10.765625 V 15.25 c 0,0.8125 -0.625,1.4375 -1.59375,1.859375 -0.140625,0.0625 -0.15625,0.07813 -0.15625,0.21875 0,0.203125 0.015625,0.203125 0.203125,0.203125 0.28125,0 1.015625,-0.359375 1.4375,-0.671875 0.328125,-0.265625 0.859375,-0.828125 0.875,-1.5 0,-0.8125 0,-1.609375 0,-2.40625 z m 0,0"
               id="id-fc8a29e5-1b56-4ada-8e8d-8d3561cc9881" />
          </symbol>
          <symbol
             overflow="visible"
             id="id-58fcc08c-b91e-44e2-a246-a2de8f166560">
            <path
               style="stroke:none"
               d=""
               id="id-92745f0f-3fab-4864-adb1-8e857160a99d" />
          </symbol>
          <symbol
             overflow="visible"
             id="id-c9f55579-1b82-464b-a545-de5f12b9005e">
            <path
               style="stroke:none"
               d="M 2.5,-6.921875 1.15625,-5.5625 1.328125,-5.390625 2.5,-6.40625 3.640625,-5.390625 3.8125,-5.5625 Z m 0,0"
               id="id-858a583e-6e36-42c2-a998-63ef32d60a30" />
          </symbol>
          <symbol
             overflow="visible"
             id="id-461efe67-ff52-433d-96bd-e4013e7572d3">
            <path
               style="stroke:none"
               d=""
               id="id-4614b0ad-1202-4263-bfd2-73bb8f89558c" />
          </symbol>
          <symbol
             overflow="visible"
             id="id-1424676d-b960-4873-b967-fbd894c76591">
            <path
               style="stroke:none"
               d="M 3.734375,-6.03125 C 3.8125,-6.390625 3.84375,-6.5 4.78125,-6.5 c 0.296875,0 0.375,0 0.375,-0.1875 0,-0.125 -0.109375,-0.125 -0.15625,-0.125 -0.328125,0 -1.140625,0.03125 -1.46875,0.03125 -0.296875,0 -1.03125,-0.03125 -1.328125,-0.03125 -0.0625,0 -0.1875,0 -0.1875,0.203125 0,0.109375 0.09375,0.109375 0.28125,0.109375 0.015625,0 0.203125,0 0.375,0.015625 0.171875,0.03125 0.265625,0.03125 0.265625,0.171875 0,0.03125 0,0.0625 -0.03125,0.1875 L 1.5625,-0.78125 c -0.09375,0.390625 -0.109375,0.46875 -0.90625,0.46875 -0.171875,0 -0.265625,0 -0.265625,0.203125 C 0.390625,0 0.484375,0 0.65625,0 h 4.625 C 5.515625,0 5.515625,0 5.578125,-0.171875 L 6.375,-2.328125 c 0.03125,-0.109375 0.03125,-0.125 0.03125,-0.140625 0,-0.03125 -0.03125,-0.109375 -0.109375,-0.109375 -0.09375,0 -0.109375,0.0625 -0.171875,0.21875 -0.34375,0.90625 -0.78125,2.046875 -2.5,2.046875 H 2.6875 c -0.140625,0 -0.171875,0 -0.21875,0 -0.109375,-0.015625 -0.140625,-0.03125 -0.140625,-0.109375 0,-0.03125 0,-0.046875 0.046875,-0.21875 z m 0,0"
               id="id-5500207d-4a5c-493a-affe-487bea00de93" />
          </symbol>
          <symbol
             overflow="visible"
             id="id-f7ec0e6e-d15c-4220-9f36-5d1fafc83b31">
            <path
               style="stroke:none"
               d="m 2.03125,-0.015625 c 0,-0.65625 -0.25,-1.046875 -0.640625,-1.046875 -0.328125,0 -0.53125,0.25 -0.53125,0.53125 C 0.859375,-0.265625 1.0625,0 1.390625,0 1.5,0 1.640625,-0.046875 1.734375,-0.125 1.765625,-0.15625 1.78125,-0.15625 1.78125,-0.15625 c 0.015625,0 0.015625,0 0.015625,0.140625 0,0.75 -0.34375,1.34375 -0.671875,1.671875 -0.109375,0.109375 -0.109375,0.125 -0.109375,0.15625 0,0.078125 0.046875,0.109375 0.09375,0.109375 0.109375,0 0.921875,-0.765625 0.921875,-1.9375 z m 0,0"
               id="id-31f782e2-4e3f-4051-8c9b-8bca914cd0d4" />
          </symbol>
          <symbol
             overflow="visible"
             id="id-6d16943b-370b-4239-b5b0-27514203b3e2">
            <path
               style="stroke:none"
               d="m 7.578125,-6.921875 c 0,-0.03125 -0.015625,-0.109375 -0.109375,-0.109375 -0.03125,0 -0.046875,0.015625 -0.15625,0.125 L 6.625,-6.140625 C 6.53125,-6.28125 6.078125,-7.03125 4.96875,-7.03125 2.734375,-7.03125 0.5,-4.828125 0.5,-2.515625 0.5,-0.875 1.671875,0.21875 3.203125,0.21875 c 0.859375,0 1.625,-0.390625 2.15625,-0.859375 0.921875,-0.8125 1.09375,-1.71875 1.09375,-1.75 C 6.453125,-2.5 6.34375,-2.5 6.328125,-2.5 c -0.0625,0 -0.109375,0.03125 -0.125,0.109375 -0.09375,0.28125 -0.328125,1 -1.015625,1.578125 -0.6875,0.546875 -1.3125,0.71875 -1.828125,0.71875 -0.890625,0 -1.953125,-0.515625 -1.953125,-2.0625 0,-0.578125 0.203125,-2.1875 1.203125,-3.359375 0.609375,-0.703125 1.546875,-1.203125 2.4375,-1.203125 1.015625,0 1.609375,0.765625 1.609375,1.921875 0,0.40625 -0.03125,0.40625 -0.03125,0.515625 0,0.09375 0.109375,0.09375 0.140625,0.09375 0.125,0 0.125,-0.015625 0.1875,-0.203125 z m 0,0"
               id="id-3da06a56-f68f-4938-815e-65129718b433" />
          </symbol>
          <symbol
             overflow="visible"
             id="id-92d8f2f6-cb61-4b44-a844-618b3e654844">
            <path
               style="stroke:none"
               d=""
               id="id-ceb6552c-de71-4bb3-9f0f-18f78528aa5f" />
          </symbol>
          <symbol
             overflow="visible"
             id="id-c7c5b9e4-5a00-4bc4-9984-c40b0aa28c19">
            <path
               style="stroke:none"
               d="m 3.28125,-2.21875 h 2.125 c 0.109375,0 0.265625,0 0.265625,-0.171875 0,-0.171875 -0.15625,-0.171875 -0.265625,-0.171875 h -2.125 v -2.09375 c 0,-0.125 0,-0.296875 -0.171875,-0.296875 -0.171875,0 -0.171875,0.15625 -0.171875,0.265625 v 2.125 h -2.125 c -0.109375,0 -0.28125,0 -0.28125,0.171875 0,0.171875 0.171875,0.171875 0.28125,0.171875 h 2.125 v 2.0625 h -2.125 c -0.109375,0 -0.28125,0 -0.28125,0.171875 0,0.171875 0.171875,0.171875 0.28125,0.171875 h 4.59375 c 0.109375,0 0.265625,0 0.265625,-0.171875 0,-0.171875 -0.15625,-0.171875 -0.265625,-0.171875 h -2.125 z m 0,0"
               id="id-387e2bba-9868-4089-a335-571593cb2798" />
          </symbol>
        </g>
      </defs>
      <g
         id="id-4848aa88-5e56-4ffb-bc1b-93e8332acfcc"
         transform="translate(-287.286,-135.255)">
        <g
           id="g1314">
          <rect
             inkscape:export-ydpi="300.04071"
             inkscape:export-xdpi="300.04071"
             style="fill:#e6e6e6;fill-opacity:1;stroke:#cccccc;stroke-width:0.982555;stroke-linecap:round;stroke-linejoin:bevel;stroke-miterlimit:4;stroke-dasharray:none;stroke-opacity:1"
             id="rect1542-3"
             width="438.87418"
             height="100.02376"
             x="-130.21774"
             y="-49.002567"
             ry="17.447784" />
          <rect
             inkscape:export-ydpi="300.04071"
             inkscape:export-xdpi="300.04071"
             ry="17.447784"
             y="-52.741989"
             x="-134.52545"
             height="100.02375"
             width="438.87418"
             id="rect1542"
             style="fill:#ffffff;fill-opacity:1;stroke:#cccccc;stroke-width:0.982555;stroke-linecap:round;stroke-linejoin:bevel;stroke-miterlimit:4;stroke-dasharray:none;stroke-opacity:1" />
          <g
             inkscape:export-ydpi="300.04071"
             inkscape:export-xdpi="300.04071"
             transform="matrix(4.5200423,0,0,4.5868681,-489.73636,136.58014)"
             id="g2388"
             style="stroke-width:0.329429">
            <g
               style="fill:#000000;fill-opacity:1;stroke-width:0.329429"
               id="id-bdce84c8-1f16-4a10-bf80-cb29a2be3288"
               transform="matrix(1.41111,0,0,1.41111,-336.2779,-232.51293)">
              <g
                 id="g1366"
                 transform="translate(294.293,146.72)"
                 style="stroke-width:0.329429">
                <path
                   style="stroke:none;stroke-width:0.329429"
                   d="M 2.546875,2.5 V 2.09375 h -0.96875 v -9.171875 h 0.96875 v -0.40625 h -1.375 V 2.5 Z m 0,0"
                   id="id-c4ea56fc-e765-4d1e-b364-78c7faeffa75" />
              </g>
            </g>
            <g
               style="fill:#ff5555;fill-opacity:1;stroke-width:0.329429"
               id="id-6a1e5286-4eef-46af-bdc4-43d2e0e63140"
               transform="matrix(1.41111,0,0,1.41111,-336.2779,-232.51293)">
              <g
                 id="g1370"
                 transform="translate(299.39,144.201)"
                 style="fill:#ff5555;stroke-width:0.329429">
                <path
                   style="fill:#ff5555;stroke:none;stroke-width:0.329429"
                   d="M 2.5,-6.921875 1.15625,-5.5625 1.328125,-5.390625 2.5,-6.40625 3.640625,-5.390625 3.8125,-5.5625 Z m 0,0"
                   id="id-3d30932f-0739-4f54-97da-575399415ed4" />
              </g>
            </g>
            <g
               style="fill:#ff0000;fill-opacity:1;stroke-width:0.329429"
               id="id-bd624c2f-b9dd-4212-b5ec-e6e4765aa9a3"
               transform="matrix(1.41111,0,0,1.41111,-336.2779,-232.51293)">
              <g
                 id="g1374"
                 transform="translate(297.061,146.72)"
                 style="fill:#ff0000;stroke-width:0.329429">
                <path
                   style="fill:#ff5555;stroke:none;stroke-width:0.329429"
                   d="M 1.796875,-0.921875 C 2.328125,-1.765625 2.5,-2.40625 2.625,-2.9375 2.984375,-4.3125 3.359375,-5.5 3.984375,-6.1875 4.09375,-6.3125 4.171875,-6.40625 4.5,-6.40625 c 0.6875,0 0.703125,0.6875 0.703125,0.828125 0,0.171875 -0.046875,0.3125 -0.046875,0.359375 0,0.078125 0.0625,0.078125 0.0625,0.078125 0.171875,0 0.4375,-0.109375 0.6875,-0.296875 0.171875,-0.140625 0.265625,-0.234375 0.265625,-0.640625 0,-0.546875 -0.28125,-0.953125 -0.84375,-0.953125 -0.3125,0 -1.1875,0.078125 -2.171875,1.0625 -0.796875,0.828125 -1.265625,2.625 -1.453125,3.359375 -0.171875,0.703125 -0.25,1 -0.5625,1.609375 -0.0625,0.109375 -0.328125,0.546875 -0.46875,0.6875 C 0.40625,-0.0625 0.3125,0.109375 0.3125,0.15625 c 0,0.015625 0.015625,0.0625 0.09375,0.0625 0.03125,0 0.234375,-0.046875 0.5,-0.203125 0.171875,-0.109375 0.1875,-0.125 0.421875,-0.359375 0.5,0 0.84375,0.09375 1.46875,0.28125 0.515625,0.125 1.015625,0.28125 1.53125,0.28125 0.8125,0 1.625,-0.609375 1.9375,-1.046875 C 6.46875,-1.09375 6.53125,-1.34375 6.53125,-1.375 c 0,-0.078125 -0.0625,-0.078125 -0.078125,-0.078125 -0.15625,0 -0.390625,0.125 -0.5625,0.234375 C 5.625,-1.046875 5.609375,-0.984375 5.546875,-0.8125 5.5,-0.65625 5.4375,-0.578125 5.390625,-0.515625 5.3125,-0.40625 5.296875,-0.40625 5.15625,-0.40625 4.671875,-0.40625 4.171875,-0.546875 3.515625,-0.734375 3.234375,-0.8125 2.6875,-0.96875 2.1875,-0.96875 c -0.125,0 -0.265625,0.015625 -0.390625,0.046875 z m 0,0"
                   id="id-16941003-4942-42bc-b313-cf354346d48e" />
              </g>
            </g>
            <g
               style="fill:#000000;fill-opacity:1;stroke-width:0.329429"
               id="id-d688560d-5df7-47ba-aa43-5af6cda75c19"
               transform="matrix(1.41111,0,0,1.41111,-336.2779,-232.51293)">
              <g
                 id="g1378"
                 transform="translate(303.932,146.72)"
                 style="stroke-width:0.329429">
                <path
                   style="stroke:none;stroke-width:0.329429"
                   d="m 2.03125,-0.015625 c 0,-0.65625 -0.25,-1.046875 -0.640625,-1.046875 -0.328125,0 -0.53125,0.25 -0.53125,0.53125 C 0.859375,-0.265625 1.0625,0 1.390625,0 1.5,0 1.640625,-0.046875 1.734375,-0.125 1.765625,-0.15625 1.78125,-0.15625 1.78125,-0.15625 c 0.015625,0 0.015625,0 0.015625,0.140625 0,0.75 -0.34375,1.34375 -0.671875,1.671875 -0.109375,0.109375 -0.109375,0.125 -0.109375,0.15625 0,0.078125 0.046875,0.109375 0.09375,0.109375 0.109375,0 0.921875,-0.765625 0.921875,-1.9375 z m 0,0"
                   id="id-5f85710f-e6bd-4ee3-889e-b08eb6011b27" />
              </g>
            </g>
            <g
               style="fill:#80ff80;fill-opacity:1;stroke-width:0.329429"
               id="id-372fe3ac-2f29-49fb-bab8-3bbf25e9c8d2"
               transform="matrix(1.41111,0,0,1.41111,-336.2779,-232.51293)">
              <g
                 id="g1382"
                 transform="translate(310.167,144.201)"
                 style="fill:#80ff80;stroke-width:0.329429">
                <path
                   style="fill:#80ff80;stroke:none;stroke-width:0.329429"
                   d="M 2.5,-6.921875 1.15625,-5.5625 1.328125,-5.390625 2.5,-6.40625 3.640625,-5.390625 3.8125,-5.5625 Z m 0,0"
                   id="id-7014cd03-ec3e-40d5-ba04-bc38d7346dfa" />
              </g>
            </g>
            <g
               style="fill:#80ff80;fill-opacity:1;stroke-width:0.329429"
               id="id-58666616-ffa0-47a5-adc4-3b05d1af8795"
               transform="matrix(1.41111,0,0,1.41111,-336.2779,-232.51293)">
              <g
                 id="g1386"
                 transform="translate(308.36,146.72)"
                 style="fill:#80ff80;stroke-width:0.329429">
                <path
                   style="fill:#80ff80;stroke:none;stroke-width:0.329429"
                   d="m 4.9375,-1.5625 c 0,-0.0625 -0.046875,-0.078125 -0.09375,-0.078125 -0.171875,0 -0.40625,0.15625 -0.421875,0.15625 -0.1875,0.125 -0.234375,0.203125 -0.359375,0.375 -0.296875,0.46875 -0.75,0.796875 -1.390625,0.796875 -0.890625,0 -1.703125,-0.640625 -1.703125,-2.140625 0,-0.890625 0.359375,-2.078125 0.890625,-2.875 0.4375,-0.640625 0.96875,-1.15625 2,-1.15625 0.375,0 0.609375,0.140625 0.609375,0.515625 0,0.34375 -0.359375,1.046875 -0.484375,1.25 -0.0625,0.109375 -0.0625,0.140625 -0.0625,0.15625 0,0.0625 0.0625,0.0625 0.109375,0.0625 0.203125,0 0.578125,-0.21875 0.6875,-0.375 0.03125,-0.046875 0.609375,-1.015625 0.609375,-1.53125 0,-0.546875 -0.453125,-0.625 -0.8125,-0.625 -1.4375,0 -2.625,0.953125 -3.09375,1.515625 C 0.234375,-4.09375 0.125,-2.546875 0.125,-2.03125 0.125,-0.5625 0.859375,0.234375 2.015625,0.234375 3.625,0.234375 4.9375,-1.3125 4.9375,-1.5625 Z m 0,0"
                   id="id-99ee19ff-884d-44ed-be52-ebe792d497dd" />
              </g>
            </g>
            <g
               style="fill:#000000;fill-opacity:1;stroke-width:0.329429"
               id="id-7c6426de-c8f1-4c7d-9594-8df11a4c5b28"
               transform="matrix(1.41111,0,0,1.41111,-336.2779,-232.51293)">
              <g
                 id="g1390"
                 transform="translate(314.187,146.72)"
                 style="stroke-width:0.329429">
                <path
                   style="stroke:none;stroke-width:0.329429"
                   d="M 1.578125,-7.484375 H 0.21875 v 0.40625 H 1.1875 V 2.09375 H 0.21875 V 2.5 h 1.359375 z m 0,0"
                   id="id-0a2f8406-0ea4-4959-a7af-cbc36095e389" />
              </g>
            </g>
          </g>
          <g
             id="g1276">
            <g
               aria-label="libcommute"
               transform="scale(0.9926888,1.007365)"
               id="text2392"
               style="font-style:normal;font-variant:normal;font-weight:normal;font-stretch:normal;font-size:50.2365px;line-height:125%;font-family:'Times New Roman';-inkscape-font-specification:'Times New Roman, ';letter-spacing:0px;word-spacing:0px;fill:#000000;fill-opacity:1;stroke:none;stroke-width:1.55149px;stroke-linecap:butt;stroke-linejoin:miter;stroke-opacity:1">
              <path
                 d="m 34.068975,10.398602 q 0,-0.147177 0.02453,-0.4415318 0.04906,-0.2943545 0.07359,-0.5641795 0.04906,-0.2943544 0.04906,-0.4415317 l 6.230503,-24.872954 q 0.196236,-0.858534 0.245295,-1.349125 0,-0.809475 -3.262429,-0.809475 -0.49059,0 -0.49059,-0.662298 0.02453,-0.122647 0.09812,-0.441531 0.09812,-0.318884 0.220766,-0.490591 0.147177,-0.171707 0.392472,-0.171707 l 6.770154,-0.53965 q 0.613238,0 0.613238,0.637768 L 37.797466,9.1475953 q -0.367944,0.8094749 -0.367944,2.4038947 0,2.1586 1.471773,2.1586 1.545361,0 2.305777,-1.913304 0.784945,-1.937834 1.398184,-4.7096721 0.09812,-0.2943545 0.417002,-0.2943545 h 0.588709 q 0.196236,0 0.318884,0.1717068 0.147177,0.1471772 0.147177,0.318884 -0.588709,2.4284246 -1.0793,3.8511378 -0.466061,1.398184 -1.520831,2.649191 -1.054771,1.251006 -2.67372,1.251006 -2.011423,0 -3.385077,-1.300066 -1.349125,-1.300065 -1.349125,-3.336017 z"
                 style="font-style:normal;font-variant:normal;font-weight:normal;font-stretch:normal;font-family:cmmi10;-inkscape-font-specification:cmmi10;stroke-width:1.55149px"
                 id="path1234" />
              <path
                 d="m 50.749064,10.864663 q 0,-0.9321224 0.392472,-1.9623631 L 55.21344,-1.9152276 q 0.662298,-1.8397156 0.662298,-3.0171335 0,-1.496302 -1.10383,-1.496302 -1.986893,0 -3.286958,2.0604814 -1.275536,2.0359519 -1.888775,4.5624946 -0.09812,0.31888404 -0.417002,0.31888404 h -0.588709 q -0.417002,0 -0.417002,-0.46606128 v -0.14717725 q 0.809475,-2.99260401 2.477483,-5.29838081 1.668009,-2.3303064 4.219081,-2.3303064 1.790657,0 3.017134,1.177418 1.251007,1.1774179 1.251007,2.9926039 0,0.9321226 -0.417003,1.9623633 l -4.071903,10.792998 q -0.686828,1.6680086 -0.686828,3.0171336 0,1.496302 1.152889,1.496302 1.962363,0 3.262429,-2.085011 1.324595,-2.1095405 1.864245,-4.5379651 0.09812,-0.2943545 0.392473,-0.2943545 h 0.613238 q 0.196236,0 0.318884,0.1471773 0.122648,0.1226477 0.122648,0.2943544 0,0.049059 -0.04906,0.1471773 -0.686827,2.8454266 -2.403895,5.2493216 -1.692539,2.403895 -4.219081,2.403895 -1.766127,0 -3.017134,-1.201947 -1.251006,-1.226477 -1.251006,-2.968075 z m 5.666324,-26.835318 q 0,-1.05477 0.883063,-1.913304 0.883063,-0.858534 1.937834,-0.858534 0.858534,0 1.398184,0.53965 0.564179,0.515121 0.564179,1.324595 0,1.128359 -0.907593,1.986893 -0.883064,0.834005 -1.962363,0.834005 -0.809475,0 -1.373655,-0.53965 -0.539649,-0.56418 -0.539649,-1.373655 z"
                 style="font-style:normal;font-variant:normal;font-weight:normal;font-stretch:normal;font-family:cmmi10;-inkscape-font-specification:cmmi10;stroke-width:1.55149px"
                 id="path1236" />
              <path
                 d="m 72.801122,15.034685 q -3.041663,0 -4.734202,-2.379365 -1.692538,-2.379366 -1.692538,-5.5682061 0,-0.4660613 0.220766,-1.815186 0.245295,-1.3736543 0.245295,-1.6925384 l 4.856849,-19.5009845 q 0.196237,-0.858534 0.245296,-1.349125 0,-0.809475 -3.262429,-0.809475 -0.490591,0 -0.490591,-0.662298 0.02453,-0.122647 0.09812,-0.441531 0.09812,-0.318884 0.220766,-0.490591 0.147177,-0.171707 0.392473,-0.171707 l 6.770153,-0.53965 q 0.613239,0 0.613239,0.637768 l -3.728491,14.8158429 q 2.845427,-2.7963677 5.739913,-2.7963677 2.13407,0 3.654902,1.1283589 1.545361,1.1283589 2.305776,2.9680744 0.760416,1.8397156 0.760416,3.92472657 0,2.42842453 -0.956652,5.02855593 -0.932122,2.5756018 -2.600131,4.80779 -1.668009,2.207659 -3.900197,3.556783 -2.232188,1.349125 -4.758731,1.349125 z m 0.09812,-1.324595 q 1.717068,0 3.21337,-1.422713 1.496302,-1.447243 2.428424,-3.2378998 1.005712,-2.0114224 1.864246,-5.4455581 0.883063,-3.45866528 0.883063,-5.5191467 0,-1.7906565 -0.760416,-3.1397813 -0.735886,-1.3736542 -2.354836,-1.3736542 -1.815186,0 -3.483195,1.3491247 -1.643479,1.3245952 -2.894485,3.1643108 l -1.398184,5.6908535 q -0.809475,3.1643108 -0.858534,5.0776149 0,1.8887742 0.809475,3.3850762 0.834004,1.471773 2.551072,1.471773 z"
                 style="font-style:normal;font-variant:normal;font-weight:normal;font-stretch:normal;font-family:cmmi10;-inkscape-font-specification:cmmi10;stroke-width:1.55149px"
                 id="path1238" />
              <path
                 d="m 91.566217,8.4852977 q 0,2.1831293 1.103829,3.7039603 1.128359,1.520832 3.21337,1.520832 2.992604,0 5.739914,-1.373654 2.77184,-1.373655 4.51343,-3.8020792 0.14718,-0.1471772 0.39248,-0.1471772 0.24529,0 0.49059,0.2943545 0.26982,0.2698249 0.26982,0.5151203 0,0.1962363 -0.0981,0.2943545 -1.83971,2.5756021 -4.95496,4.0719041 -3.115255,1.471772 -6.451272,1.471772 -2.403895,0 -4.243611,-1.128359 -1.839716,-1.152888 -2.845427,-3.066192 -1.005711,-1.9133045 -1.005711,-4.3171995 0,-3.3850767 1.888775,-6.72109425 1.888774,-3.33601755 5.028556,-5.42102855 3.139781,-2.1095405 6.59845,-2.1095405 2.25671,0 4.04737,1.1038293 1.81519,1.0792998 1.81519,3.2133699 0,1.3736543 -0.80948,2.3548359 -0.78494,0.95665211 -2.13407,0.95665211 -0.80947,0 -1.37365,-0.49059082 -0.53965,-0.51512039 -0.53965,-1.32459519 0,-1.177418 0.85853,-2.0114224 0.85854,-0.8340044 2.01142,-0.8340044 h 0.0981 q -0.58871,-0.8585339 -1.71707,-1.2510065 -1.10383,-0.4170022 -2.30577,-0.4170022 -2.943548,0 -5.151207,2.5265427 -2.207658,2.5020131 -3.336017,6.0097375 -1.103829,3.4831948 -1.103829,6.3776806 z"
                 style="font-style:normal;font-variant:normal;font-weight:normal;font-stretch:normal;font-family:cmmi10;-inkscape-font-specification:cmmi10;stroke-width:1.55149px"
                 id="path1240" />
              <path
                 d="m 117.49395,15.034685 q -2.37937,0 -4.24361,-1.128359 -1.83972,-1.128359 -2.84543,-3.041663 -1.00571,-1.913304 -1.00571,-4.3417285 0,-3.4096062 1.88877,-6.74562379 1.91331,-3.33601761 5.05309,-5.42102851 3.16431,-2.085011 6.62297,-2.085011 1.86425,0 3.31149,0.6377681 1.47177,0.637768 2.55107,1.7906564 1.0793,1.1528885 1.64348,2.6982495 0.58871,1.5453611 0.58871,3.36054714 0,2.62466086 -1.10383,5.17573316 -1.10383,2.5265427 -3.04166,4.6115535 -1.9133,2.060482 -4.39079,3.286959 -2.47748,1.201947 -5.02855,1.201947 z m 0.0981,-1.324595 q 2.23219,0 4.07191,-1.520832 1.86424,-1.520831 3.04166,-3.826608 1.20195,-2.3303064 1.83972,-4.9059082 0.63776,-2.57560175 0.63776,-4.6606127 0,-2.1831292 -1.10382,-3.7039607 -1.0793,-1.5208315 -3.21337,-1.5208315 -2.94355,0 -5.15121,2.5265427 -2.20766,2.5020131 -3.33602,6.0097375 -1.10382,3.4831948 -1.10382,6.3776806 0,2.1831293 1.10382,3.7039603 1.12836,1.520832 3.21337,1.520832 z"
                 style="font-style:normal;font-variant:normal;font-weight:normal;font-stretch:normal;font-family:cmmi10;-inkscape-font-specification:cmmi10;stroke-width:1.55149px"
                 id="path1242" />
              <path
                 d="m 135.57221,13.611972 q 0,-0.294355 0.0491,-0.441532 l 3.75302,-14.9875495 q 0.36794,-1.3981838 0.36794,-2.452954 0,-2.1585996 -1.47177,-2.1585996 -1.56989,0 -2.3303,1.8887746 -0.76042,1.8642451 -1.47178,4.7342014 0,0.14717725 -0.14717,0.24529541 -0.14718,0.0735886 -0.26983,0.0735886 h -0.58871 q -0.17171,0 -0.29435,-0.17170679 -0.12265,-0.19623633 -0.12265,-0.34341357 0.53965,-2.18312918 1.03024,-3.70396068 0.51512,-1.5208315 1.56989,-2.7718381 1.0793,-1.2510066 2.67372,-1.2510066 1.88878,0 3.33602,1.2019475 1.44724,1.177418 1.44724,3.0171335 1.4963,-1.9623632 3.50773,-3.0907221 2.01142,-1.1283589 4.26814,-1.1283589 2.37936,0 4.09643,1.226477 1.7416,1.2019475 1.7416,3.4341358 1.54536,-2.1831292 3.60584,-3.4096062 2.08501,-1.2510066 4.53796,-1.2510066 2.60014,0 4.17003,1.4227134 1.59442,1.3981838 1.59442,3.9983151 0,2.06048147 -0.93213,4.9794968 -0.90759,2.9190154 -2.28124,6.5248579 -0.71136,1.7415976 -0.71136,3.0171336 0,1.496302 1.17742,1.496302 1.96236,0 3.26243,-2.109541 1.30006,-2.1095401 1.83971,-4.5134351 0.14718,-0.2943545 0.417,-0.2943545 h 0.58871 q 0.19624,0 0.31889,0.1471773 0.14717,0.1226477 0.14717,0.2943544 0,0.049059 -0.049,0.1471773 -0.68683,2.8454266 -2.4039,5.2493216 -1.69254,2.403895 -4.24361,2.403895 -1.76613,0 -3.01713,-1.201947 -1.25101,-1.226477 -1.25101,-2.968075 0,-0.8830633 0.417,-1.9623631 1.42272,-3.7775493 2.35484,-6.7456237 0.95665,-2.96807447 0.95665,-5.2247922 0,-1.3981839 -0.56418,-2.3793655 -0.56418,-0.9811816 -1.88877,-0.9811816 -2.74731,0 -4.75874,1.6925383 -2.01142,1.6680088 -3.48319,4.43984689 -0.0981,0.49059081 -0.14718,0.76041576 l -3.2379,12.90253815 q -0.1717,0.686828 -0.78494,1.177418 -0.58871,0.490591 -1.3246,0.490591 -0.58871,0 -1.05477,-0.392472 -0.44153,-0.392473 -0.44153,-1.030241 0,-0.294355 0.0491,-0.441532 l 3.21337,-12.80442031 q 0.51512,-2.06048139 0.51512,-3.43413569 0,-1.3981839 -0.58871,-2.3793655 -0.56418,-0.9811816 -1.93783,-0.9811816 -1.83972,0 -3.38508,0.8094748 -1.54536,0.8094749 -2.69825,2.1585996 -1.15289,1.3245952 -2.10954,3.16431079 L 139.17805,13.366676 q -0.1717,0.686828 -0.78494,1.177418 -0.58871,0.490591 -1.3246,0.490591 -0.61323,0 -1.05477,-0.392472 -0.44153,-0.392473 -0.44153,-1.030241 z"
                 style="font-style:normal;font-variant:normal;font-weight:normal;font-stretch:normal;font-family:cmmi10;-inkscape-font-specification:cmmi10;stroke-width:1.55149px"
                 id="path1244" />
              <path
                 d="m 179.67633,13.611972 q 0,-0.294355 0.0491,-0.441532 l 3.75302,-14.9875495 q 0.36794,-1.3981838 0.36794,-2.452954 0,-2.1585996 -1.47177,-2.1585996 -1.56989,0 -2.33031,1.8887746 -0.76041,1.8642451 -1.47177,4.7342014 0,0.14717725 -0.14718,0.24529541 -0.14717,0.0735886 -0.26982,0.0735886 h -0.58871 q -0.17171,0 -0.29435,-0.17170679 -0.12265,-0.19623633 -0.12265,-0.34341357 0.53965,-2.18312918 1.03024,-3.70396068 0.51512,-1.5208315 1.56989,-2.7718381 1.0793,-1.2510066 2.67372,-1.2510066 1.88877,0 3.33602,1.2019475 1.44724,1.177418 1.44724,3.0171335 1.4963,-1.9623632 3.50772,-3.0907221 2.01143,-1.1283589 4.26814,-1.1283589 2.37937,0 4.09644,1.226477 1.74159,1.2019475 1.74159,3.4341358 1.54537,-2.1831292 3.60585,-3.4096062 2.08501,-1.2510066 4.53796,-1.2510066 2.60013,0 4.17002,1.4227134 1.59442,1.3981838 1.59442,3.9983151 0,2.06048147 -0.93212,4.9794968 -0.90759,2.9190154 -2.28125,6.5248579 -0.71135,1.7415976 -0.71135,3.0171336 0,1.496302 1.17742,1.496302 1.96236,0 3.26242,-2.109541 1.30007,-2.1095401 1.83972,-4.5134351 0.14718,-0.2943545 0.417,-0.2943545 h 0.58871 q 0.19624,0 0.31889,0.1471773 0.14717,0.1226477 0.14717,0.2943544 0,0.049059 -0.0491,0.1471773 -0.68682,2.8454266 -2.40389,5.2493216 -1.69254,2.403895 -4.24361,2.403895 -1.76613,0 -3.01714,-1.201947 -1.251,-1.226477 -1.251,-2.968075 0,-0.8830633 0.417,-1.9623631 1.42271,-3.7775493 2.35484,-6.7456237 0.95665,-2.96807447 0.95665,-5.2247922 0,-1.3981839 -0.56418,-2.3793655 -0.56418,-0.9811816 -1.88878,-0.9811816 -2.7473,0 -4.75873,1.6925383 -2.01142,1.6680088 -3.48319,4.43984689 -0.0981,0.49059081 -0.14718,0.76041576 l -3.2379,12.90253815 q -0.17171,0.686828 -0.78494,1.177418 -0.58871,0.490591 -1.3246,0.490591 -0.58871,0 -1.05477,-0.392472 -0.44153,-0.392473 -0.44153,-1.030241 0,-0.294355 0.0491,-0.441532 l 3.21337,-12.80442031 q 0.51512,-2.06048139 0.51512,-3.43413569 0,-1.3981839 -0.58871,-2.3793655 -0.56418,-0.9811816 -1.93783,-0.9811816 -1.83972,0 -3.38508,0.8094748 -1.54536,0.8094749 -2.69825,2.1585996 -1.15289,1.3245952 -2.10954,3.16431079 L 183.28217,13.366676 q -0.1717,0.686828 -0.78494,1.177418 -0.58871,0.490591 -1.3246,0.490591 -0.61324,0 -1.05477,-0.392472 -0.44153,-0.392473 -0.44153,-1.030241 z"
                 style="font-style:normal;font-variant:normal;font-weight:normal;font-stretch:normal;font-family:cmmi10;-inkscape-font-specification:cmmi10;stroke-width:1.55149px"
                 id="path1246" />
              <path
                 d="m 225.22768,9.0004181 q 0,-1.6434792 0.44154,-3.3605471 0.44153,-1.7415974 1.22647,-3.8511379 0.80948,-2.1340701 1.39819,-3.7039607 0.66229,-1.8397156 0.66229,-3.0171335 0,-1.496302 -1.10383,-1.496302 -1.98689,0 -3.28695,2.0604814 -1.27554,2.0359519 -1.88878,4.5624946 -0.0981,0.31888404 -0.417,0.31888404 h -0.58871 q -0.417,0 -0.417,-0.46606128 v -0.14717725 q 0.80947,-2.99260401 2.47748,-5.29838081 1.66801,-2.3303064 4.21908,-2.3303064 1.79066,0 3.01714,1.177418 1.251,1.1774179 1.251,2.9926039 0,0.9321226 -0.417,1.9623633 -0.22076,0.61323854 -1.00571,2.67372 -0.78495,2.0604814 -1.20195,3.4096062 -0.417,1.3491247 -0.68682,2.6491904 -0.26983,1.3000657 -0.26983,2.6001313 0,1.6680087 0.71136,2.8208977 0.71135,1.152888 2.30577,1.152888 3.21337,0 5.6418,-3.9737857 0.0491,-0.1962363 0.0736,-0.3679431 0.0491,-0.1962363 0.0736,-0.3679431 l 3.60584,-14.5705473 q 0.1717,-0.6622976 0.78494,-1.1283589 0.61324,-0.4905908 1.3246,-0.4905908 0.61324,0 1.05477,0.3924726 0.46606,0.3924727 0.46606,1.0302408 0,0.2943545 -0.0491,0.3924726 l -3.63037,14.4724292 q -0.34341,1.4963017 -0.34341,2.4529537 0,2.1586 1.44724,2.1586 1.61895,0 2.40389,-1.986893 0.80948,-2.0114222 1.37366,-4.6360831 0.0981,-0.2943545 0.39247,-0.2943545 h 0.61324 q 0.19624,0 0.31888,0.1717068 0.12265,0.1717068 0.12265,0.318884 -0.53965,2.1585996 -1.05477,3.7039608 -0.49059,1.545361 -1.56989,2.796368 -1.0793,1.251006 -2.69825,1.251006 -1.59442,0 -2.86996,-0.858534 -1.251,-0.883063 -1.69253,-2.379365 -1.15289,1.471772 -2.67372,2.354836 -1.52084,0.883063 -3.21337,0.883063 -2.89449,0 -4.61156,-1.56989 -1.71707,-1.594421 -1.71707,-4.4643769 z"
                 style="font-style:normal;font-variant:normal;font-weight:normal;font-stretch:normal;font-family:cmmi10;-inkscape-font-specification:cmmi10;stroke-width:1.55149px"
                 id="path1248" />
              <path
                 d="m 251.74412,10.398602 q 0,-0.7358863 0.14717,-1.3981839 l 3.63038,-14.4233701 h -5.27386 q -0.51512,0 -0.51512,-0.6622976 0.19624,-1.1038293 0.6623,-1.1038293 h 5.56821 l 2.01142,-8.1928671 q 0.19624,-0.662297 0.78494,-1.128358 0.58871,-0.466062 1.3246,-0.466062 0.63777,0 1.05477,0.392473 0.44153,0.367943 0.44153,1.005711 0,0.147177 -0.0245,0.245296 0,0.07359 -0.0245,0.171706 l -2.01142,7.9721011 h 5.17573 q 0.51512,0 0.51512,0.6622976 -0.0245,0.1226477 -0.0981,0.4170022 -0.0736,0.2943545 -0.19624,0.4905908 -0.12265,0.1962363 -0.36794,0.1962363 h -5.47009 l -3.60584,14.5214883 q -0.36795,1.4227137 -0.36795,2.4529537 0,2.1586 1.47178,2.1586 2.20765,0 3.90019,-2.060481 1.71707,-2.0850115 2.62466,-4.5624951 0.19624,-0.2943545 0.39248,-0.2943545 h 0.61323 q 0.19624,0 0.31889,0.1471773 0.12265,0.1226477 0.12265,0.2943544 0,0.098118 -0.0491,0.1471773 -1.10383,3.0416626 -3.21337,5.3474396 -2.10954,2.305777 -4.83232,2.305777 -1.98689,0 -3.36055,-1.300066 -1.34912,-1.300065 -1.34912,-3.336017 z"
                 style="font-style:normal;font-variant:normal;font-weight:normal;font-stretch:normal;font-family:cmmi10;-inkscape-font-specification:cmmi10;stroke-width:1.55149px"
                 id="path1250" />
              <path
                 d="m 276.86237,15.034685 q -2.4039,0 -4.21908,-1.251006 -1.79066,-1.251007 -2.74731,-3.360548 -0.93212,-2.1340696 -0.93212,-4.4889055 0,-3.581313 1.79065,-6.72109423 1.81519,-3.16431077 4.90591,-5.05308547 3.09072,-1.8887746 6.62298,-1.8887746 2.1586,0 3.75302,1.1283589 1.61895,1.1038293 1.61895,3.1888403 0,2.89448582 -2.30578,4.31719919 -2.30578,1.39818381 -5.20026,1.74159741 -2.89449,0.318884 -6.40221,0.318884 h -0.14718 q -0.80947,2.992604 -0.80947,5.1266741 0,2.2321879 1.03024,3.9247269 1.03024,1.692538 3.13978,1.692538 2.9926,0 5.73991,-1.373654 2.77184,-1.373655 4.51344,-3.8020792 0.14717,-0.1471772 0.39247,-0.1471772 0.24529,0 0.49059,0.2943545 0.26982,0.2698249 0.26982,0.5151203 0,0.1962363 -0.0981,0.2943545 -1.83972,2.5756021 -4.95497,4.0719041 -3.11525,1.471772 -6.45127,1.471772 z M 273.8943,1.6660854 q 2.91901,0 5.39649,-0.269825 2.47749,-0.2698249 4.48891,-1.34912474 2.01142,-1.10382936 2.01142,-3.40960616 0,-0.9321226 -0.51512,-1.6189497 -0.51512,-0.7113567 -1.34912,-1.0792998 -0.80948,-0.3679431 -1.69254,-0.3679431 -2.13407,0 -3.85114,1.1528884 -1.69254,1.1528884 -2.79637,3.0171335 -1.10383,1.83971558 -1.69253,3.9247266 z"
                 style="font-style:normal;font-variant:normal;font-weight:normal;font-stretch:normal;font-family:cmmi10;-inkscape-font-specification:cmmi10;stroke-width:1.55149px"
                 id="path1252" />
            </g>
          </g>
        </g>
      </g>
    </g>
  </g>
</svg>
