<?xml version="1.0" encoding="UTF-8" standalone="no"?>
<svg
   xmlns:ns8="http://www.iki.fi/pav/software/textext/"
   xmlns:dc="http://purl.org/dc/elements/1.1/"
   xmlns:cc="http://creativecommons.org/ns#"
   xmlns:rdf="http://www.w3.org/1999/02/22-rdf-syntax-ns#"
   xmlns:svg="http://www.w3.org/2000/svg"
   xmlns="http://www.w3.org/2000/svg"
   xmlns:sodipodi="http://sodipodi.sourceforge.net/DTD/sodipodi-0.dtd"
   xmlns:inkscape="http://www.inkscape.org/namespaces/inkscape"
   id="svg8"
   version="1.1"
   viewBox="0 0 52.230477 12.317329"
   height="12.317329mm"
   width="52.23048mm"
   inkscape:version="1.0.2 (e86c870879, 2021-01-15)"
   sodipodi:docname="logo_small.svg"
   inkscape:export-xdpi="159.20084"
   inkscape:export-ydpi="159.20084">
  <defs
     id="defs2">
    <defs
       id="id-bb1e4de6-71d9-4ed3-b086-cd8c08793979">
      <g
         id="id-339632e3-8398-4d40-b87b-929539a2bce5">
        <symbol
           id="id-b4252609-a7ac-4888-bcfd-1a5c8f00f242"
           overflow="visible">
          <path
             id="id-09c85a74-51f3-4162-8fc7-ad038c8e5e59"
             d=""
             style="stroke:none" />
        </symbol>
        <symbol
           id="id-704ced5c-f28d-45f2-a263-4d49782ff4f8"
           overflow="visible">
          <path
             id="id-023aadb9-5331-44b8-8ac5-378219033c67"
             d="M 2.546875,2.5 V 2.09375 h -0.96875 v -9.171875 h 0.96875 v -0.40625 h -1.375 V 2.5 Z m 0,0"
             style="stroke:none" />
        </symbol>
        <symbol
           id="id-223c53bd-ef6b-46b3-9968-a90967ec7824"
           overflow="visible">
          <path
             id="id-448e3420-80f0-48dd-946d-24292f1b3917"
             d="M 2.5,-6.921875 1.15625,-5.5625 1.328125,-5.390625 2.5,-6.40625 3.640625,-5.390625 3.8125,-5.5625 Z m 0,0"
             style="stroke:none" />
        </symbol>
        <symbol
           id="id-94445543-d104-4e91-a48b-8affef14060d"
           overflow="visible">
          <path
             id="id-0a6b4867-e165-45e9-9aaa-ef85c2c51fa7"
             d="M 1.578125,-7.484375 H 0.21875 v 0.40625 H 1.1875 V 2.09375 H 0.21875 V 2.5 h 1.359375 z m 0,0"
             style="stroke:none" />
        </symbol>
        <symbol
           id="id-a24a145d-661f-4140-819a-42dd78cc3d33"
           overflow="visible">
          <path
             id="id-13e308e8-b517-4e96-90df-58fe8797b58c"
             d=""
             style="stroke:none" />
        </symbol>
        <symbol
           id="id-b20fb3e8-e88a-4d1b-b939-6c41f21501d6"
           overflow="visible">
          <path
             id="id-d7020fe7-7536-4196-990a-0faa69980142"
             d="M 3.734375,-6.03125 C 3.8125,-6.390625 3.84375,-6.5 4.78125,-6.5 c 0.296875,0 0.375,0 0.375,-0.1875 0,-0.125 -0.109375,-0.125 -0.15625,-0.125 -0.328125,0 -1.140625,0.03125 -1.46875,0.03125 -0.296875,0 -1.03125,-0.03125 -1.328125,-0.03125 -0.0625,0 -0.1875,0 -0.1875,0.203125 0,0.109375 0.09375,0.109375 0.28125,0.109375 0.015625,0 0.203125,0 0.375,0.015625 0.171875,0.03125 0.265625,0.03125 0.265625,0.171875 0,0.03125 0,0.0625 -0.03125,0.1875 L 1.5625,-0.78125 c -0.09375,0.390625 -0.109375,0.46875 -0.90625,0.46875 -0.171875,0 -0.265625,0 -0.265625,0.203125 C 0.390625,0 0.484375,0 0.65625,0 h 4.625 C 5.515625,0 5.515625,0 5.578125,-0.171875 L 6.375,-2.328125 c 0.03125,-0.109375 0.03125,-0.125 0.03125,-0.140625 0,-0.03125 -0.03125,-0.109375 -0.109375,-0.109375 -0.09375,0 -0.109375,0.0625 -0.171875,0.21875 -0.34375,0.90625 -0.78125,2.046875 -2.5,2.046875 H 2.6875 c -0.140625,0 -0.171875,0 -0.21875,0 -0.109375,-0.015625 -0.140625,-0.03125 -0.140625,-0.109375 0,-0.03125 0,-0.046875 0.046875,-0.21875 z m 0,0"
             style="stroke:none" />
        </symbol>
        <symbol
           id="id-6b041f04-f35c-4b04-bfd4-76181eb5ad90"
           overflow="visible">
          <path
             id="id-e71172dd-6eb3-4bde-995b-d46ebf415c56"
             d="m 2.03125,-0.015625 c 0,-0.65625 -0.25,-1.046875 -0.640625,-1.046875 -0.328125,0 -0.53125,0.25 -0.53125,0.53125 C 0.859375,-0.265625 1.0625,0 1.390625,0 1.5,0 1.640625,-0.046875 1.734375,-0.125 1.765625,-0.15625 1.78125,-0.15625 1.78125,-0.15625 c 0.015625,0 0.015625,0 0.015625,0.140625 0,0.75 -0.34375,1.34375 -0.671875,1.671875 -0.109375,0.109375 -0.109375,0.125 -0.109375,0.15625 0,0.078125 0.046875,0.109375 0.09375,0.109375 0.109375,0 0.921875,-0.765625 0.921875,-1.9375 z m 0,0"
             style="stroke:none" />
        </symbol>
        <symbol
           id="id-3e95ee44-52c6-4144-9a2c-15b0762b9110"
           overflow="visible">
          <path
             id="id-09f4dc57-0831-4a8b-8ba4-32f16ad15b0d"
             d="m 7.578125,-6.921875 c 0,-0.03125 -0.015625,-0.109375 -0.109375,-0.109375 -0.03125,0 -0.046875,0.015625 -0.15625,0.125 L 6.625,-6.140625 C 6.53125,-6.28125 6.078125,-7.03125 4.96875,-7.03125 2.734375,-7.03125 0.5,-4.828125 0.5,-2.515625 0.5,-0.875 1.671875,0.21875 3.203125,0.21875 c 0.859375,0 1.625,-0.390625 2.15625,-0.859375 0.921875,-0.8125 1.09375,-1.71875 1.09375,-1.75 C 6.453125,-2.5 6.34375,-2.5 6.328125,-2.5 c -0.0625,0 -0.109375,0.03125 -0.125,0.109375 -0.09375,0.28125 -0.328125,1 -1.015625,1.578125 -0.6875,0.546875 -1.3125,0.71875 -1.828125,0.71875 -0.890625,0 -1.953125,-0.515625 -1.953125,-2.0625 0,-0.578125 0.203125,-2.1875 1.203125,-3.359375 0.609375,-0.703125 1.546875,-1.203125 2.4375,-1.203125 1.015625,0 1.609375,0.765625 1.609375,1.921875 0,0.40625 -0.03125,0.40625 -0.03125,0.515625 0,0.09375 0.109375,0.09375 0.140625,0.09375 0.125,0 0.125,-0.015625 0.1875,-0.203125 z m 0,0"
             style="stroke:none" />
        </symbol>
      </g>
    </defs>
    <defs
       id="id-40610b40-ced0-4d2d-8a82-2bd260beecc3">
      <g
         id="id-70ac5d96-7e49-409c-9b77-8f3721f95921">
        <symbol
           id="id-583eb6cd-55f8-4e20-ab93-4fd916a416d8"
           overflow="visible">
          <path
             id="id-84c24bc5-c5b7-4055-b79c-702da7ef05bc"
             d=""
             style="stroke:none" />
        </symbol>
        <symbol
           id="id-467cc044-8fe9-46ee-84ff-8fafc0459d52"
           overflow="visible">
          <path
             id="id-4229882d-cd0a-4400-8518-a6ea7ec59135"
             d="M 2.546875,2.5 V 2.09375 h -0.96875 v -9.171875 h 0.96875 v -0.40625 h -1.375 V 2.5 Z m 0,0"
             style="stroke:none" />
        </symbol>
        <symbol
           id="id-ef022b36-2524-4d96-a1b8-041b515b5bf6"
           overflow="visible">
          <path
             id="id-c771b000-8411-4147-b5bd-3fd69983a5af"
             d="M 2.5,-6.921875 1.15625,-5.5625 1.328125,-5.390625 2.5,-6.40625 3.640625,-5.390625 3.8125,-5.5625 Z m 0,0"
             style="stroke:none" />
        </symbol>
        <symbol
           id="id-6002e58c-aecc-4aa1-88b7-7c0284de6cf0"
           overflow="visible">
          <path
             id="id-0c242665-12f9-4542-892c-7bf665e307c3"
             d="M 1.578125,-7.484375 H 0.21875 v 0.40625 H 1.1875 V 2.09375 H 0.21875 V 2.5 h 1.359375 z m 0,0"
             style="stroke:none" />
        </symbol>
        <symbol
           id="id-11bccbe7-19d1-4dd5-82ae-353070a0158e"
           overflow="visible">
          <path
             id="id-5f510a30-99e9-43e4-a848-5b644784f0c2"
             d=""
             style="stroke:none" />
        </symbol>
        <symbol
           id="id-4a343bf7-9e72-4beb-bfdd-22200ae014c2"
           overflow="visible">
          <path
             id="id-f08c342e-ffb5-46f1-848b-ff633d4f638c"
             d="M 1.796875,-0.921875 C 2.328125,-1.765625 2.5,-2.40625 2.625,-2.9375 2.984375,-4.3125 3.359375,-5.5 3.984375,-6.1875 4.09375,-6.3125 4.171875,-6.40625 4.5,-6.40625 c 0.6875,0 0.703125,0.6875 0.703125,0.828125 0,0.171875 -0.046875,0.3125 -0.046875,0.359375 0,0.078125 0.0625,0.078125 0.0625,0.078125 0.171875,0 0.4375,-0.109375 0.6875,-0.296875 0.171875,-0.140625 0.265625,-0.234375 0.265625,-0.640625 0,-0.546875 -0.28125,-0.953125 -0.84375,-0.953125 -0.3125,0 -1.1875,0.078125 -2.171875,1.0625 -0.796875,0.828125 -1.265625,2.625 -1.453125,3.359375 -0.171875,0.703125 -0.25,1 -0.5625,1.609375 -0.0625,0.109375 -0.328125,0.546875 -0.46875,0.6875 C 0.40625,-0.0625 0.3125,0.109375 0.3125,0.15625 c 0,0.015625 0.015625,0.0625 0.09375,0.0625 0.03125,0 0.234375,-0.046875 0.5,-0.203125 0.171875,-0.109375 0.1875,-0.125 0.421875,-0.359375 0.5,0 0.84375,0.09375 1.46875,0.28125 0.515625,0.125 1.015625,0.28125 1.53125,0.28125 0.8125,0 1.625,-0.609375 1.9375,-1.046875 C 6.46875,-1.09375 6.53125,-1.34375 6.53125,-1.375 c 0,-0.078125 -0.0625,-0.078125 -0.078125,-0.078125 -0.15625,0 -0.390625,0.125 -0.5625,0.234375 C 5.625,-1.046875 5.609375,-0.984375 5.546875,-0.8125 5.5,-0.65625 5.4375,-0.578125 5.390625,-0.515625 5.3125,-0.40625 5.296875,-0.40625 5.15625,-0.40625 4.671875,-0.40625 4.171875,-0.546875 3.515625,-0.734375 3.234375,-0.8125 2.6875,-0.96875 2.1875,-0.96875 c -0.125,0 -0.265625,0.015625 -0.390625,0.046875 z m 0,0"
             style="stroke:none" />
        </symbol>
        <symbol
           id="id-c52cbd05-1a6a-4d86-ac85-f09d72b762bc"
           overflow="visible">
          <path
             id="id-cad8d8ef-a060-4575-8cc0-0735bc5e751e"
             d="m 4.9375,-1.5625 c 0,-0.0625 -0.046875,-0.078125 -0.09375,-0.078125 -0.171875,0 -0.40625,0.15625 -0.421875,0.15625 -0.1875,0.125 -0.234375,0.203125 -0.359375,0.375 -0.296875,0.46875 -0.75,0.796875 -1.390625,0.796875 -0.890625,0 -1.703125,-0.640625 -1.703125,-2.140625 0,-0.890625 0.359375,-2.078125 0.890625,-2.875 0.4375,-0.640625 0.96875,-1.15625 2,-1.15625 0.375,0 0.609375,0.140625 0.609375,0.515625 0,0.34375 -0.359375,1.046875 -0.484375,1.25 -0.0625,0.109375 -0.0625,0.140625 -0.0625,0.15625 0,0.0625 0.0625,0.0625 0.109375,0.0625 0.203125,0 0.578125,-0.21875 0.6875,-0.375 0.03125,-0.046875 0.609375,-1.015625 0.609375,-1.53125 0,-0.546875 -0.453125,-0.625 -0.8125,-0.625 -1.4375,0 -2.625,0.953125 -3.09375,1.515625 C 0.234375,-4.09375 0.125,-2.546875 0.125,-2.03125 0.125,-0.5625 0.859375,0.234375 2.015625,0.234375 3.625,0.234375 4.9375,-1.3125 4.9375,-1.5625 Z m 0,0"
             style="stroke:none" />
        </symbol>
        <symbol
           id="id-2f66a349-1e56-4e65-aa23-94b8c62e6abe"
           overflow="visible">
          <path
             id="id-e2b9ee79-e8aa-426d-b785-e9ec22e65f06"
             d=""
             style="stroke:none" />
        </symbol>
        <symbol
           id="id-15635dd2-70dd-4b81-b85d-702e5b434459"
           overflow="visible">
          <path
             id="id-94ec9de1-9f18-45d9-9b8f-3e5bca588df9"
             d="m 2.03125,-0.015625 c 0,-0.65625 -0.25,-1.046875 -0.640625,-1.046875 -0.328125,0 -0.53125,0.25 -0.53125,0.53125 C 0.859375,-0.265625 1.0625,0 1.390625,0 1.5,0 1.640625,-0.046875 1.734375,-0.125 1.765625,-0.15625 1.78125,-0.15625 1.78125,-0.15625 c 0.015625,0 0.015625,0 0.015625,0.140625 0,0.75 -0.34375,1.34375 -0.671875,1.671875 -0.109375,0.109375 -0.109375,0.125 -0.109375,0.15625 0,0.078125 0.046875,0.109375 0.09375,0.109375 0.109375,0 0.921875,-0.765625 0.921875,-1.9375 z m 0,0"
             style="stroke:none" />
        </symbol>
      </g>
    </defs>
  </defs>
  <sodipodi:namedview
     id="base"
     pagecolor="#ffffff"
     bordercolor="#666666"
     borderopacity="1.0"
     inkscape:pageopacity="0.0"
     inkscape:pageshadow="2"
     inkscape:zoom="2.8737039"
     inkscape:cx="120.14629"
     inkscape:cy="-4.4743736"
     inkscape:document-units="mm"
     inkscape:current-layer="id-4848aa88-5e56-4ffb-bc1b-93e8332acfcc"
     inkscape:document-rotation="0"
     showgrid="false"
     inkscape:window-width="1890"
     inkscape:window-height="1051"
     inkscape:window-x="0"
     inkscape:window-y="0"
     inkscape:window-maximized="1"
     fit-margin-top="0"
     fit-margin-left="0"
     fit-margin-right="0"
     fit-margin-bottom="0"
     gridtolerance="10000" />
  <metadata
     id="metadata5">
    <rdf:RDF>
      <cc:Work
         rdf:about="">
        <dc:format>image/svg+xml</dc:format>
        <dc:type
           rdf:resource="http://purl.org/dc/dcmitype/StillImage" />
        <dc:title />
      </cc:Work>
    </rdf:RDF>
  </metadata>
  <g
     inkscape:label="Layer 1"
     inkscape:groupmode="layer"
     id="layer1"
     transform="translate(22.57323,-8.9957165)">
    <g
       id="g69"
       ns8:jacobian_sqrt="0.352778"
       ns8:alignment="middle center"
       ns8:scale="1.0"
       ns8:preamble="/home/igor/.config/inkscape/extensions/textext/default_packages.tex"
       ns8:text="$$\\left\\{\\hat L, \\hat C\\right\\}_\\pm$$"
       ns8:pdfconverter="inkscape"
       ns8:texconverter="pdflatex"
       ns8:version="1.0.1"
       transform="matrix(0.352778,0,0,0.352778,74.1754,63.1729)">
      <defs
         id="id-e709d92e-bd9f-442d-90f2-7f1c2b3183a8">
        <g
           id="id-99307029-5728-4026-b4c3-a6054efee4b1">
          <symbol
             overflow="visible"
             id="id-c2d5e123-cdfc-4757-9821-2f31ad6d6e2b">
            <path
               style="stroke:none"
               d=""
               id="id-b4ba3ec3-09b5-4e9f-8875-71e8917c8c5b" />
          </symbol>
          <symbol
             overflow="visible"
             id="id-0b575625-37b0-40bf-96e6-e51f65cd5c36">
            <path
               style="stroke:none"
               d="m 3.703125,11.328125 c 0,-0.640625 0,-0.78125 -0.109375,-1.0625 C 3.296875,9.359375 2.40625,8.828125 1.75,8.578125 2.90625,8.078125 3.46875,7.421875 3.65625,6.71875 3.671875,6.59375 3.703125,6.421875 3.703125,6.375 V 1.890625 c 0,-0.828125 0.65625,-1.46875 1.59375,-1.859375 0.140625,-0.078125 0.15625,-0.078125 0.15625,-0.234375 0,-0.1875 -0.015625,-0.203125 -0.203125,-0.203125 -0.28125,0 -1.03125,0.375 -1.4375,0.6875 -0.328125,0.265625 -0.859375,0.828125 -0.875,1.5 0,0.796875 0,1.609375 0,2.40625 v 1.546875 c 0,0.890625 0,1.21875 -0.515625,1.828125 -0.125,0.140625 -0.40625,0.453125 -1.09375,0.78125 -0.125,0.0625 -0.140625,0.0625 -0.140625,0.21875 0,0.15625 0.015625,0.171875 0.203125,0.265625 C 2.453125,9.3125 2.9375,10.15625 2.9375,10.78125 v 4.15625 c 0,0.46875 0,1.0625 0.515625,1.578125 0.21875,0.21875 0.421875,0.4375 0.90625,0.6875 0.109375,0.0625 0.625,0.328125 0.890625,0.328125 0.1875,0 0.203125,0 0.203125,-0.203125 0,-0.125 0,-0.15625 -0.09375,-0.1875 -0.578125,-0.25 -1.46875,-0.71875 -1.640625,-1.65625 C 3.703125,15.375 3.703125,15.046875 3.703125,14.8125 Z m 0,0"
               id="id-3b6a780b-fe34-4fec-aa95-7755ce87fad8" />
          </symbol>
          <symbol
             overflow="visible"
             id="id-8f5890f9-b700-4458-8423-b7497a6bb5d0">
            <path
               style="stroke:none"
               d="m 3.703125,11.390625 c 0,-0.875 0,-1.203125 0.515625,-1.828125 C 4.328125,9.453125 4.640625,9.109375 5.3125,8.796875 5.4375,8.734375 5.453125,8.71875 5.453125,8.578125 5.453125,8.46875 5.453125,8.4375 5.4375,8.40625 5.421875,8.390625 5.40625,8.390625 5.25,8.3125 4.203125,7.828125 3.703125,6.984375 3.703125,6.34375 V 2.203125 c 0,-0.46875 0,-1.0625 -0.515625,-1.578125 C 2.96875,0.40625 2.765625,0.1875 2.28125,-0.0625 2.1875,-0.109375 1.65625,-0.40625 1.390625,-0.40625 c -0.1875,0 -0.203125,0.015625 -0.203125,0.203125 0,0.140625 0,0.171875 0.09375,0.21875 0.390625,0.15625 1.453125,0.609375 1.640625,1.625 C 2.9375,1.75 2.9375,2.09375 2.9375,2.328125 V 5.8125 c 0,0.640625 0,0.78125 0.109375,1.0625 0.296875,0.90625 1.1875,1.421875 1.84375,1.6875 -1.15625,0.484375 -1.71875,1.15625 -1.90625,1.859375 C 2.953125,10.53125 2.9375,10.71875 2.9375,10.765625 V 15.25 c 0,0.8125 -0.625,1.4375 -1.59375,1.859375 -0.140625,0.0625 -0.15625,0.07813 -0.15625,0.21875 0,0.203125 0.015625,0.203125 0.203125,0.203125 0.28125,0 1.015625,-0.359375 1.4375,-0.671875 0.328125,-0.265625 0.859375,-0.828125 0.875,-1.5 0,-0.8125 0,-1.609375 0,-2.40625 z m 0,0"
               id="id-fc8a29e5-1b56-4ada-8e8d-8d3561cc9881" />
          </symbol>
          <symbol
             overflow="visible"
             id="id-58fcc08c-b91e-44e2-a246-a2de8f166560">
            <path
               style="stroke:none"
               d=""
               id="id-92745f0f-3fab-4864-adb1-8e857160a99d" />
          </symbol>
          <symbol
             overflow="visible"
             id="id-c9f55579-1b82-464b-a545-de5f12b9005e">
            <path
               style="stroke:none"
               d="M 2.5,-6.921875 1.15625,-5.5625 1.328125,-5.390625 2.5,-6.40625 3.640625,-5.390625 3.8125,-5.5625 Z m 0,0"
               id="id-858a583e-6e36-42c2-a998-63ef32d60a30" />
          </symbol>
          <symbol
             overflow="visible"
             id="id-461efe67-ff52-433d-96bd-e4013e7572d3">
            <path
               style="stroke:none"
               d=""
               id="id-4614b0ad-1202-4263-bfd2-73bb8f89558c" />
          </symbol>
          <symbol
             overflow="visible"
             id="id-1424676d-b960-4873-b967-fbd894c76591">
            <path
               style="stroke:none"
               d="M 3.734375,-6.03125 C 3.8125,-6.390625 3.84375,-6.5 4.78125,-6.5 c 0.296875,0 0.375,0 0.375,-0.1875 0,-0.125 -0.109375,-0.125 -0.15625,-0.125 -0.328125,0 -1.140625,0.03125 -1.46875,0.03125 -0.296875,0 -1.03125,-0.03125 -1.328125,-0.03125 -0.0625,0 -0.1875,0 -0.1875,0.203125 0,0.109375 0.09375,0.109375 0.28125,0.109375 0.015625,0 0.203125,0 0.375,0.015625 0.171875,0.03125 0.265625,0.03125 0.265625,0.171875 0,0.03125 0,0.0625 -0.03125,0.1875 L 1.5625,-0.78125 c -0.09375,0.390625 -0.109375,0.46875 -0.90625,0.46875 -0.171875,0 -0.265625,0 -0.265625,0.203125 C 0.390625,0 0.484375,0 0.65625,0 h 4.625 C 5.515625,0 5.515625,0 5.578125,-0.171875 L 6.375,-2.328125 c 0.03125,-0.109375 0.03125,-0.125 0.03125,-0.140625 0,-0.03125 -0.03125,-0.109375 -0.109375,-0.109375 -0.09375,0 -0.109375,0.0625 -0.171875,0.21875 -0.34375,0.90625 -0.78125,2.046875 -2.5,2.046875 H 2.6875 c -0.140625,0 -0.171875,0 -0.21875,0 -0.109375,-0.015625 -0.140625,-0.03125 -0.140625,-0.109375 0,-0.03125 0,-0.046875 0.046875,-0.21875 z m 0,0"
               id="id-5500207d-4a5c-493a-affe-487bea00de93" />
          </symbol>
          <symbol
             overflow="visible"
             id="id-f7ec0e6e-d15c-4220-9f36-5d1fafc83b31">
            <path
               style="stroke:none"
               d="m 2.03125,-0.015625 c 0,-0.65625 -0.25,-1.046875 -0.640625,-1.046875 -0.328125,0 -0.53125,0.25 -0.53125,0.53125 C 0.859375,-0.265625 1.0625,0 1.390625,0 1.5,0 1.640625,-0.046875 1.734375,-0.125 1.765625,-0.15625 1.78125,-0.15625 1.78125,-0.15625 c 0.015625,0 0.015625,0 0.015625,0.140625 0,0.75 -0.34375,1.34375 -0.671875,1.671875 -0.109375,0.109375 -0.109375,0.125 -0.109375,0.15625 0,0.078125 0.046875,0.109375 0.09375,0.109375 0.109375,0 0.921875,-0.765625 0.921875,-1.9375 z m 0,0"
               id="id-31f782e2-4e3f-4051-8c9b-8bca914cd0d4" />
          </symbol>
          <symbol
             overflow="visible"
             id="id-6d16943b-370b-4239-b5b0-27514203b3e2">
            <path
               style="stroke:none"
               d="m 7.578125,-6.921875 c 0,-0.03125 -0.015625,-0.109375 -0.109375,-0.109375 -0.03125,0 -0.046875,0.015625 -0.15625,0.125 L 6.625,-6.140625 C 6.53125,-6.28125 6.078125,-7.03125 4.96875,-7.03125 2.734375,-7.03125 0.5,-4.828125 0.5,-2.515625 0.5,-0.875 1.671875,0.21875 3.203125,0.21875 c 0.859375,0 1.625,-0.390625 2.15625,-0.859375 0.921875,-0.8125 1.09375,-1.71875 1.09375,-1.75 C 6.453125,-2.5 6.34375,-2.5 6.328125,-2.5 c -0.0625,0 -0.109375,0.03125 -0.125,0.109375 -0.09375,0.28125 -0.328125,1 -1.015625,1.578125 -0.6875,0.546875 -1.3125,0.71875 -1.828125,0.71875 -0.890625,0 -1.953125,-0.515625 -1.953125,-2.0625 0,-0.578125 0.203125,-2.1875 1.203125,-3.359375 0.609375,-0.703125 1.546875,-1.203125 2.4375,-1.203125 1.015625,0 1.609375,0.765625 1.609375,1.921875 0,0.40625 -0.03125,0.40625 -0.03125,0.515625 0,0.09375 0.109375,0.09375 0.140625,0.09375 0.125,0 0.125,-0.015625 0.1875,-0.203125 z m 0,0"
               id="id-3da06a56-f68f-4938-815e-65129718b433" />
          </symbol>
          <symbol
             overflow="visible"
             id="id-92d8f2f6-cb61-4b44-a844-618b3e654844">
            <path
               style="stroke:none"
               d=""
               id="id-ceb6552c-de71-4bb3-9f0f-18f78528aa5f" />
          </symbol>
          <symbol
             overflow="visible"
             id="id-c7c5b9e4-5a00-4bc4-9984-c40b0aa28c19">
            <path
               style="stroke:none"
               d="m 3.28125,-2.21875 h 2.125 c 0.109375,0 0.265625,0 0.265625,-0.171875 0,-0.171875 -0.15625,-0.171875 -0.265625,-0.171875 h -2.125 v -2.09375 c 0,-0.125 0,-0.296875 -0.171875,-0.296875 -0.171875,0 -0.171875,0.15625 -0.171875,0.265625 v 2.125 h -2.125 c -0.109375,0 -0.28125,0 -0.28125,0.171875 0,0.171875 0.171875,0.171875 0.28125,0.171875 h 2.125 v 2.0625 h -2.125 c -0.109375,0 -0.28125,0 -0.28125,0.171875 0,0.171875 0.171875,0.171875 0.28125,0.171875 h 4.59375 c 0.109375,0 0.265625,0 0.265625,-0.171875 0,-0.171875 -0.15625,-0.171875 -0.265625,-0.171875 h -2.125 z m 0,0"
               id="id-387e2bba-9868-4089-a335-571593cb2798" />
          </symbol>
        </g>
      </defs>
      <g
         id="id-4848aa88-5e56-4ffb-bc1b-93e8332acfcc"
         transform="translate(-287.286,-135.255)">
        <g
           id="g1003">
          <rect
             inkscape:export-ydpi="300.04071"
             inkscape:export-xdpi="300.04071"
             style="fill:#e6e6e6;fill-opacity:1;stroke:#cccccc;stroke-width:0.982556;stroke-linecap:round;stroke-linejoin:bevel;stroke-miterlimit:4;stroke-dasharray:none;stroke-opacity:1"
             id="rect1542-3"
             width="145.64272"
             height="32.70982"
             x="14.958899"
             y="-16.603876"
             ry="5.7057834" />
          <rect
             inkscape:export-ydpi="300.04071"
             inkscape:export-xdpi="300.04071"
             ry="5.7057834"
             y="-17.826744"
             x="13.529366"
             height="32.709816"
             width="145.64272"
             id="rect1542"
             style="fill:#ffffff;fill-opacity:1;stroke:#cccccc;stroke-width:0.982556;stroke-linecap:round;stroke-linejoin:bevel;stroke-miterlimit:4;stroke-dasharray:none;stroke-opacity:1" />
          <g
             inkscape:export-ydpi="300.04071"
             inkscape:export-xdpi="300.04071"
             transform="matrix(1.5,0,0,1.5,-104.34926,44.085477)"
             id="g2388">
            <g
               style="fill:#000000;fill-opacity:1"
               id="id-bdce84c8-1f16-4a10-bf80-cb29a2be3288"
               transform="matrix(1.41111,0,0,1.41111,-336.2779,-232.51293)">
              <g
                 id="g1366"
                 transform="translate(294.293,146.72)">
                <path
                   style="stroke:none"
                   d="M 2.546875,2.5 V 2.09375 h -0.96875 v -9.171875 h 0.96875 v -0.40625 h -1.375 V 2.5 Z m 0,0"
                   id="id-c4ea56fc-e765-4d1e-b364-78c7faeffa75" />
              </g>
            </g>
            <g
               style="fill:#ff5555;fill-opacity:1"
               id="id-6a1e5286-4eef-46af-bdc4-43d2e0e63140"
               transform="matrix(1.41111,0,0,1.41111,-336.2779,-232.51293)">
              <g
                 id="g1370"
                 transform="translate(299.39,144.201)"
                 style="fill:#ff5555">
                <path
                   style="fill:#ff5555;stroke:none"
                   d="M 2.5,-6.921875 1.15625,-5.5625 1.328125,-5.390625 2.5,-6.40625 3.640625,-5.390625 3.8125,-5.5625 Z m 0,0"
                   id="id-3d30932f-0739-4f54-97da-575399415ed4" />
              </g>
            </g>
            <g
               style="fill:#ff0000;fill-opacity:1"
               id="id-bd624c2f-b9dd-4212-b5ec-e6e4765aa9a3"
               transform="matrix(1.41111,0,0,1.41111,-336.2779,-232.51293)">
              <g
                 id="g1374"
                 transform="translate(297.061,146.72)"
                 style="fill:#ff0000">
                <path
                   style="fill:#ff5555;stroke:none"
                   d="M 1.796875,-0.921875 C 2.328125,-1.765625 2.5,-2.40625 2.625,-2.9375 2.984375,-4.3125 3.359375,-5.5 3.984375,-6.1875 4.09375,-6.3125 4.171875,-6.40625 4.5,-6.40625 c 0.6875,0 0.703125,0.6875 0.703125,0.828125 0,0.171875 -0.046875,0.3125 -0.046875,0.359375 0,0.078125 0.0625,0.078125 0.0625,0.078125 0.171875,0 0.4375,-0.109375 0.6875,-0.296875 0.171875,-0.140625 0.265625,-0.234375 0.265625,-0.640625 0,-0.546875 -0.28125,-0.953125 -0.84375,-0.953125 -0.3125,0 -1.1875,0.078125 -2.171875,1.0625 -0.796875,0.828125 -1.265625,2.625 -1.453125,3.359375 -0.171875,0.703125 -0.25,1 -0.5625,1.609375 -0.0625,0.109375 -0.328125,0.546875 -0.46875,0.6875 C 0.40625,-0.0625 0.3125,0.109375 0.3125,0.15625 c 0,0.015625 0.015625,0.0625 0.09375,0.0625 0.03125,0 0.234375,-0.046875 0.5,-0.203125 0.171875,-0.109375 0.1875,-0.125 0.421875,-0.359375 0.5,0 0.84375,0.09375 1.46875,0.28125 0.515625,0.125 1.015625,0.28125 1.53125,0.28125 0.8125,0 1.625,-0.609375 1.9375,-1.046875 C 6.46875,-1.09375 6.53125,-1.34375 6.53125,-1.375 c 0,-0.078125 -0.0625,-0.078125 -0.078125,-0.078125 -0.15625,0 -0.390625,0.125 -0.5625,0.234375 C 5.625,-1.046875 5.609375,-0.984375 5.546875,-0.8125 5.5,-0.65625 5.4375,-0.578125 5.390625,-0.515625 5.3125,-0.40625 5.296875,-0.40625 5.15625,-0.40625 4.671875,-0.40625 4.171875,-0.546875 3.515625,-0.734375 3.234375,-0.8125 2.6875,-0.96875 2.1875,-0.96875 c -0.125,0 -0.265625,0.015625 -0.390625,0.046875 z m 0,0"
                   id="id-16941003-4942-42bc-b313-cf354346d48e" />
              </g>
            </g>
            <g
               style="fill:#000000;fill-opacity:1"
               id="id-d688560d-5df7-47ba-aa43-5af6cda75c19"
               transform="matrix(1.41111,0,0,1.41111,-336.2779,-232.51293)">
              <g
                 id="g1378"
                 transform="translate(303.932,146.72)">
                <path
                   style="stroke:none"
                   d="m 2.03125,-0.015625 c 0,-0.65625 -0.25,-1.046875 -0.640625,-1.046875 -0.328125,0 -0.53125,0.25 -0.53125,0.53125 C 0.859375,-0.265625 1.0625,0 1.390625,0 1.5,0 1.640625,-0.046875 1.734375,-0.125 1.765625,-0.15625 1.78125,-0.15625 1.78125,-0.15625 c 0.015625,0 0.015625,0 0.015625,0.140625 0,0.75 -0.34375,1.34375 -0.671875,1.671875 -0.109375,0.109375 -0.109375,0.125 -0.109375,0.15625 0,0.078125 0.046875,0.109375 0.09375,0.109375 0.109375,0 0.921875,-0.765625 0.921875,-1.9375 z m 0,0"
                   id="id-5f85710f-e6bd-4ee3-889e-b08eb6011b27" />
              </g>
            </g>
            <g
               style="fill:#80ff80;fill-opacity:1"
               id="id-372fe3ac-2f29-49fb-bab8-3bbf25e9c8d2"
               transform="matrix(1.41111,0,0,1.41111,-336.2779,-232.51293)">
              <g
                 id="g1382"
                 transform="translate(310.167,144.201)"
                 style="fill:#80ff80">
                <path
                   style="fill:#80ff80;stroke:none"
                   d="M 2.5,-6.921875 1.15625,-5.5625 1.328125,-5.390625 2.5,-6.40625 3.640625,-5.390625 3.8125,-5.5625 Z m 0,0"
                   id="id-7014cd03-ec3e-40d5-ba04-bc38d7346dfa" />
              </g>
            </g>
            <g
               style="fill:#80ff80;fill-opacity:1"
               id="id-58666616-ffa0-47a5-adc4-3b05d1af8795"
               transform="matrix(1.41111,0,0,1.41111,-336.2779,-232.51293)">
              <g
                 id="g1386"
                 transform="translate(308.36,146.72)"
                 style="fill:#80ff80">
                <path
                   style="fill:#80ff80;stroke:none"
                   d="m 4.9375,-1.5625 c 0,-0.0625 -0.046875,-0.078125 -0.09375,-0.078125 -0.171875,0 -0.40625,0.15625 -0.421875,0.15625 -0.1875,0.125 -0.234375,0.203125 -0.359375,0.375 -0.296875,0.46875 -0.75,0.796875 -1.390625,0.796875 -0.890625,0 -1.703125,-0.640625 -1.703125,-2.140625 0,-0.890625 0.359375,-2.078125 0.890625,-2.875 0.4375,-0.640625 0.96875,-1.15625 2,-1.15625 0.375,0 0.609375,0.140625 0.609375,0.515625 0,0.34375 -0.359375,1.046875 -0.484375,1.25 -0.0625,0.109375 -0.0625,0.140625 -0.0625,0.15625 0,0.0625 0.0625,0.0625 0.109375,0.0625 0.203125,0 0.578125,-0.21875 0.6875,-0.375 0.03125,-0.046875 0.609375,-1.015625 0.609375,-1.53125 0,-0.546875 -0.453125,-0.625 -0.8125,-0.625 -1.4375,0 -2.625,0.953125 -3.09375,1.515625 C 0.234375,-4.09375 0.125,-2.546875 0.125,-2.03125 0.125,-0.5625 0.859375,0.234375 2.015625,0.234375 3.625,0.234375 4.9375,-1.3125 4.9375,-1.5625 Z m 0,0"
                   id="id-99ee19ff-884d-44ed-be52-ebe792d497dd" />
              </g>
            </g>
            <g
               style="fill:#000000;fill-opacity:1"
               id="id-7c6426de-c8f1-4c7d-9594-8df11a4c5b28"
               transform="matrix(1.41111,0,0,1.41111,-336.2779,-232.51293)">
              <g
                 id="g1390"
                 transform="translate(314.187,146.72)">
                <path
                   style="stroke:none"
                   d="M 1.578125,-7.484375 H 0.21875 v 0.40625 H 1.1875 V 2.09375 H 0.21875 V 2.5 h 1.359375 z m 0,0"
                   id="id-0a2f8406-0ea4-4959-a7af-cbc36095e389" />
              </g>
            </g>
          </g>
          <g
             aria-label="libcommute"
             id="text2392"
             style="font-style:normal;font-variant:normal;font-weight:normal;font-stretch:normal;font-size:16.5494px;line-height:125%;font-family:'Times New Roman';-inkscape-font-specification:'Times New Roman, ';letter-spacing:0px;word-spacing:0px;fill:#000000;fill-opacity:1;stroke:none;stroke-width:1.5515px;stroke-linecap:butt;stroke-linejoin:miter;stroke-opacity:1">
            <path
               d="m 69.395657,2.8465666 q 0,-0.048485 0.0081,-0.1454538 0.01616,-0.096969 0.02424,-0.1858575 0.01616,-0.096969 0.01616,-0.1454537 l 2.052513,-8.1938925 q 0.06465,-0.2828267 0.08081,-0.4444419 0,-0.2666652 -1.074742,-0.2666652 -0.161615,0 -0.161615,-0.2181806 0.0081,-0.040404 0.03232,-0.1454537 0.03232,-0.1050499 0.07273,-0.1616152 0.04848,-0.056565 0.129292,-0.056565 l 2.23029,-0.1777768 q 0.202019,0 0.202019,0.2100998 l -2.383824,9.5191375 q -0.121212,0.2666651 -0.121212,0.7919147 0,0.711107 0.484846,0.711107 0.509088,0 0.759592,-0.6302994 0.258584,-0.6383802 0.460603,-1.5515063 0.03232,-0.096969 0.137373,-0.096969 h 0.193938 q 0.06465,0 0.10505,0.056565 0.04849,0.048485 0.04849,0.1050499 -0.193939,0.7999954 -0.355554,1.2686796 -0.153534,0.4606034 -0.501007,0.8727223 -0.347473,0.4121188 -0.880803,0.4121188 -0.662622,0 -1.115145,-0.4282803 -0.444442,-0.4282804 -0.444442,-1.0989836 z"
               style="font-style:normal;font-variant:normal;font-weight:normal;font-stretch:normal;font-family:cmmi10;-inkscape-font-specification:cmmi10;stroke-width:1.5515px"
               id="path947" />
            <path
               d="m 74.890575,3.000101 q 0,-0.3070689 0.129292,-0.6464609 l 1.341406,-3.563616 q 0.218181,-0.6060572 0.218181,-0.9939337 0,-0.4929265 -0.363634,-0.4929265 -0.654542,0 -1.082822,0.678784 -0.4202,0.6707032 -0.622219,1.50302171 -0.03232,0.1050499 -0.137373,0.1050499 h -0.193938 q -0.137373,0 -0.137373,-0.15353447 v -0.0484846 q 0.266665,-0.98585297 0.816157,-1.74544457 0.549492,-0.7676724 1.389891,-0.7676724 0.589895,0 0.993934,0.3878766 0.412118,0.3878766 0.412118,0.9858529 0,0.307069 -0.137373,0.646461 l -1.341406,3.5555352 q -0.226261,0.5494918 -0.226261,0.9939337 0,0.4929265 0.379795,0.4929265 0.646461,0 1.074742,-0.6868648 0.436361,-0.6949455 0.614138,-1.4949409 0.03232,-0.096969 0.129292,-0.096969 h 0.202019 q 0.06465,0 0.10505,0.048485 0.0404,0.040404 0.0404,0.096969 0,0.016161 -0.01616,0.048485 -0.226261,0.9373684 -0.791915,1.7292831 -0.557572,0.7919146 -1.389891,0.7919146 -0.581814,0 -0.993933,-0.3959573 Q 74.890575,3.5738351 74.890575,3.000101 Z m 1.866656,-8.8403535 q 0,-0.3474727 0.290907,-0.6302994 0.290908,-0.2828267 0.63838,-0.2828267 0.282827,0 0.460604,0.1777768 0.185857,0.169696 0.185857,0.4363611 0,0.3717151 -0.298988,0.6545418 -0.290907,0.2747459 -0.646461,0.2747459 -0.266665,0 -0.452522,-0.1777768 -0.177777,-0.1858575 -0.177777,-0.4525227 z"
               style="font-style:normal;font-variant:normal;font-weight:normal;font-stretch:normal;font-family:cmmi10;-inkscape-font-specification:cmmi10;stroke-width:1.5515px"
               id="path949" />
            <path
               d="m 82.15518,4.3738305 q -1.002015,0 -1.559587,-0.7838339 -0.557573,-0.7838339 -0.557573,-1.8343329 0,-0.1535345 0.07273,-0.5979764 0.08081,-0.45252265 0.08081,-0.55757255 l 1.59999,-6.42420565 q 0.06465,-0.2828267 0.08081,-0.4444419 0,-0.2666652 -1.074741,-0.2666652 -0.161616,0 -0.161616,-0.2181806 0.0081,-0.040404 0.03232,-0.1454537 0.03232,-0.1050499 0.07273,-0.1616152 0.04848,-0.056565 0.129293,-0.056565 l 2.23029,-0.1777768 q 0.202019,0 0.202019,0.2100998 l -1.228276,4.8807802 q 0.937368,-0.9212069 1.890898,-0.9212069 0.703027,0 1.204034,0.3717151 0.509088,0.371715 0.759591,0.9777722 0.250504,0.6060571 0.250504,1.29292186 0,0.79999542 -0.31515,1.65655614 -0.307069,0.84848 -0.85656,1.5838294 -0.549492,0.7272685 -1.284841,1.1717104 -0.73535,0.4444419 -1.567668,0.4444419 z m 0.03232,-0.4363611 q 0.565653,0 1.05858,-0.4686842 0.492926,-0.4767649 0.799995,-1.0666606 0.331311,-0.6626224 0.614138,-1.79392909 0.290907,-1.13938743 0.290907,-1.81817141 0,-0.5898956 -0.250503,-1.0343375 -0.242423,-0.4525227 -0.775753,-0.4525227 -0.597977,0 -1.147469,0.4444419 -0.541411,0.4363611 -0.95353,1.0424183 L 81.363265,0.66476084 Q 81.0966,1.7071791 81.080438,2.3374786 q 0,0.6222186 0.266666,1.1151451 0.274745,0.4848457 0.840399,0.4848457 z"
               style="font-style:normal;font-variant:normal;font-weight:normal;font-stretch:normal;font-family:cmmi10;-inkscape-font-specification:cmmi10;stroke-width:1.5515px"
               id="path951" />
            <path
               d="m 88.336962,2.2162671 q 0,0.7191878 0.363634,1.2201951 0.371715,0.5010072 1.05858,0.5010072 0.985853,0 1.890898,-0.4525227 0.913127,-0.4525226 1.486861,-1.2525181 0.04848,-0.048484 0.129292,-0.048484 0.08081,0 0.161615,0.096969 0.08889,0.088888 0.08889,0.169696 0,0.064646 -0.03232,0.096969 -0.606057,0.84848 -1.632314,1.3414064 -1.026256,0.4848457 -2.12524,0.4848457 -0.791915,0 -1.397972,-0.371715 -0.606057,-0.3797958 -0.937368,-1.0100952 -0.331311,-0.6302995 -0.331311,-1.4222141 0,-1.11514517 0.622218,-2.21412878 0.622219,-1.09898362 1.656557,-1.78584842 1.034337,-0.6949455 2.173724,-0.6949455 0.743431,0 1.333326,0.3636343 0.597977,0.3555535 0.597977,1.0585798 0,0.4525227 -0.266666,0.77575315 -0.258584,0.31514972 -0.703026,0.31514972 -0.266665,0 -0.452523,-0.16161524 -0.177776,-0.169696 -0.177776,-0.43636113 0,-0.3878766 0.282826,-0.6626225 0.282827,-0.2747459 0.662623,-0.2747459 h 0.03232 q -0.193938,-0.2828267 -0.565653,-0.4121188 -0.363635,-0.137373 -0.759592,-0.137373 -0.969691,0 -1.69696,0.8323185 -0.727269,0.8242377 -1.098984,1.97978664 -0.363634,1.14746816 -0.363634,2.10099806 z"
               style="font-style:normal;font-variant:normal;font-weight:normal;font-stretch:normal;font-family:cmmi10;-inkscape-font-specification:cmmi10;stroke-width:1.5515px"
               id="path953" />
            <path
               d="m 96.878327,4.3738305 q -0.783834,0 -1.397972,-0.371715 -0.606057,-0.371715 -0.937368,-1.0020145 -0.331311,-0.6302994 -0.331311,-1.4302948 0,-1.12322593 0.622218,-2.22220954 0.6303,-1.09898366 1.664637,-1.78584836 1.042419,-0.6868648 2.181806,-0.6868648 0.614138,0 1.090903,0.2100998 0.48485,0.2100998 0.8404,0.5898956 0.35555,0.3797959 0.54141,0.8888839 0.19394,0.50908795 0.19394,1.10706433 0,0.86464152 -0.36364,1.70504077 -0.36363,0.8323185 -1.00201,1.5191832 -0.6303,0.678784 -1.446457,1.0828221 -0.816157,0.3959573 -1.656556,0.3959573 z m 0.03232,-0.4363611 q 0.735349,0 1.341407,-0.5010072 0.614138,-0.5010073 1.002014,-1.2605989 0.395957,-0.7676724 0.606057,-1.61615236 0.210102,-0.84848 0.210102,-1.53534476 0,-0.71918778 -0.363636,-1.22019508 -0.355554,-0.5010072 -1.05858,-0.5010072 -0.969691,0 -1.69696,0.8323185 -0.727269,0.8242377 -1.098984,1.97978664 -0.363634,1.14746816 -0.363634,2.10099806 0,0.7191878 0.363634,1.2201951 0.371715,0.5010072 1.05858,0.5010072 z"
               style="font-style:normal;font-variant:normal;font-weight:normal;font-stretch:normal;font-family:cmmi10;-inkscape-font-specification:cmmi10;stroke-width:1.5515px"
               id="path955" />
            <path
               d="m 102.83385,3.9051464 q 0,-0.096969 0.0162,-0.1454538 l 1.23636,-4.9373455 q 0.12121,-0.4606034 0.12121,-0.8080762 0,-0.711107 -0.48485,-0.711107 -0.51716,0 -0.76767,0.6222187 -0.2505,0.6141379 -0.48484,1.55958701 0,0.0484846 -0.0485,0.0808076 -0.0485,0.0242423 -0.0889,0.0242423 h -0.19393 q -0.0566,0 -0.097,-0.0565653 -0.0404,-0.0646461 -0.0404,-0.11313067 0.17778,-0.71918781 0.33939,-1.22019501 0.1697,-0.5010073 0.51717,-0.9131261 0.35556,-0.4121189 0.88081,-0.4121189 0.62222,0 1.09898,0.3959574 0.47677,0.3878765 0.47677,0.9939337 0.49292,-0.646461 1.15554,-1.018176 0.66263,-0.3717151 1.40606,-0.3717151 0.78383,0 1.34948,0.4040381 0.57374,0.3959573 0.57374,1.1313067 0.50909,-0.7191878 1.18787,-1.1232259 0.68686,-0.4121189 1.49494,-0.4121189 0.85656,0 1.37373,0.4686842 0.52525,0.4606034 0.52525,1.3171642 0,0.67878399 -0.30707,1.64039466 -0.29899,0.96161064 -0.75151,2.14948264 -0.23434,0.5737341 -0.23434,0.9939337 0,0.4929265 0.38787,0.4929265 0.64647,0 1.07475,-0.6949455 0.42828,-0.6949455 0.60605,-1.4868602 0.0485,-0.096969 0.13738,-0.096969 h 0.19393 q 0.0647,0 0.10505,0.048485 0.0485,0.040404 0.0485,0.096969 0,0.016161 -0.0162,0.048485 -0.22626,0.9373684 -0.79192,1.7292831 -0.55757,0.7919146 -1.39797,0.7919146 -0.58181,0 -0.99393,-0.3959573 -0.41212,-0.4040381 -0.41212,-0.9777722 0,-0.2909074 0.13737,-0.6464609 0.46869,-1.2444374 0.77575,-2.22220954 0.31515,-0.97777219 0.31515,-1.72120226 0,-0.4606034 -0.18585,-0.7838339 -0.18586,-0.3232305 -0.62222,-0.3232305 -0.90505,0 -1.56767,0.5575726 -0.66262,0.5494918 -1.14747,1.46261787 -0.0323,0.16161524 -0.0485,0.25050362 l -1.06666,4.25048071 q -0.0566,0.2262614 -0.25859,0.3878766 -0.19394,0.1616152 -0.43636,0.1616152 -0.19394,0 -0.34747,-0.1292921 -0.14546,-0.1292922 -0.14546,-0.339392 0,-0.096969 0.0162,-0.1454538 l 1.05858,-4.21815766 q 0.16969,-0.67878404 0.16969,-1.13130664 0,-0.4606034 -0.19394,-0.7838339 -0.18585,-0.3232305 -0.63838,-0.3232305 -0.60605,0 -1.11514,0.2666651 -0.50909,0.2666652 -0.88889,0.7111071 -0.37979,0.4363611 -0.69494,1.04241827 l -1.12323,4.50098433 q -0.0566,0.2262614 -0.25858,0.3878766 -0.19394,0.1616152 -0.43636,0.1616152 -0.20202,0 -0.34748,-0.1292921 -0.14545,-0.1292922 -0.14545,-0.339392 z"
               style="font-style:normal;font-variant:normal;font-weight:normal;font-stretch:normal;font-family:cmmi10;-inkscape-font-specification:cmmi10;stroke-width:1.5515px"
               id="path957" />
            <path
               d="m 117.36306,3.9051464 q 0,-0.096969 0.0162,-0.1454538 l 1.23636,-4.9373455 q 0.12121,-0.4606034 0.12121,-0.8080762 0,-0.711107 -0.48485,-0.711107 -0.51716,0 -0.76767,0.6222187 -0.2505,0.6141379 -0.48484,1.55958701 0,0.0484846 -0.0485,0.0808076 -0.0485,0.0242423 -0.0889,0.0242423 h -0.19394 q -0.0566,0 -0.097,-0.0565653 -0.0404,-0.0646461 -0.0404,-0.11313067 0.17778,-0.71918781 0.33939,-1.22019501 0.1697,-0.5010073 0.51717,-0.9131261 0.35556,-0.4121189 0.88081,-0.4121189 0.62221,0 1.09898,0.3959574 0.47676,0.3878765 0.47676,0.9939337 0.49293,-0.646461 1.15555,-1.018176 0.66263,-0.3717151 1.40606,-0.3717151 0.78383,0 1.34948,0.4040381 0.57374,0.3959573 0.57374,1.1313067 0.50909,-0.7191878 1.18787,-1.1232259 0.68686,-0.4121189 1.49494,-0.4121189 0.85656,0 1.37373,0.4686842 0.52525,0.4606034 0.52525,1.3171642 0,0.67878399 -0.30707,1.64039466 -0.29899,0.96161064 -0.75151,2.14948264 -0.23434,0.5737341 -0.23434,0.9939337 0,0.4929265 0.38787,0.4929265 0.64646,0 1.07474,-0.6949455 0.42829,-0.6949455 0.60606,-1.4868602 0.0485,-0.096969 0.13738,-0.096969 h 0.19393 q 0.0647,0 0.10505,0.048485 0.0485,0.040404 0.0485,0.096969 0,0.016161 -0.0162,0.048485 -0.22627,0.9373684 -0.79192,1.7292831 -0.55757,0.7919146 -1.39797,0.7919146 -0.58181,0 -0.99393,-0.3959573 -0.41212,-0.4040381 -0.41212,-0.9777722 0,-0.2909074 0.13737,-0.6464609 0.46868,-1.2444374 0.77575,-2.22220954 0.31515,-0.97777219 0.31515,-1.72120226 0,-0.4606034 -0.18585,-0.7838339 -0.18586,-0.3232305 -0.62222,-0.3232305 -0.90505,0 -1.56767,0.5575726 -0.66262,0.5494918 -1.14747,1.46261787 -0.0323,0.16161524 -0.0485,0.25050362 l -1.06666,4.25048071 q -0.0566,0.2262614 -0.25859,0.3878766 -0.19394,0.1616152 -0.43636,0.1616152 -0.19394,0 -0.34747,-0.1292921 -0.14546,-0.1292922 -0.14546,-0.339392 0,-0.096969 0.0162,-0.1454538 l 1.05858,-4.21815766 q 0.16969,-0.67878404 0.16969,-1.13130664 0,-0.4606034 -0.19394,-0.7838339 -0.18585,-0.3232305 -0.63838,-0.3232305 -0.60605,0 -1.11514,0.2666651 -0.50909,0.2666652 -0.88889,0.7111071 -0.37979,0.4363611 -0.69494,1.04241827 l -1.12323,4.50098433 q -0.0566,0.2262614 -0.25858,0.3878766 -0.19394,0.1616152 -0.43636,0.1616152 -0.20202,0 -0.34748,-0.1292921 -0.14545,-0.1292922 -0.14545,-0.339392 z"
               style="font-style:normal;font-variant:normal;font-weight:normal;font-stretch:normal;font-family:cmmi10;-inkscape-font-specification:cmmi10;stroke-width:1.5515px"
               id="path959" />
            <path
               d="m 132.36903,2.3859631 q 0,-0.541411 0.14546,-1.1070644 0.14545,-0.57373405 0.40404,-1.26867957 0.26666,-0.70302628 0.4606,-1.22019503 0.21818,-0.6060572 0.21818,-0.9939337 0,-0.4929265 -0.36363,-0.4929265 -0.65455,0 -1.08283,0.678784 -0.4202,0.6707032 -0.62221,1.50302171 -0.0323,0.1050499 -0.13738,0.1050499 h -0.19394 q -0.13737,0 -0.13737,-0.15353447 v -0.0484846 q 0.26667,-0.98585297 0.81616,-1.74544457 0.54949,-0.7676724 1.38989,-0.7676724 0.58989,0 0.99393,0.3878766 0.41212,0.3878766 0.41212,0.9858529 0,0.307069 -0.13737,0.646461 -0.0727,0.20201904 -0.33131,0.88080304 -0.25859,0.67878399 -0.39596,1.1232259 -0.13737,0.44444186 -0.22626,0.87272226 -0.0889,0.4282804 -0.0889,0.8565608 0,0.5494918 0.23434,0.9292876 0.23434,0.3797958 0.75959,0.3797958 1.05858,0 1.85858,-1.3090834 0.0162,-0.064646 0.0242,-0.1212114 0.0162,-0.064646 0.0242,-0.1212115 l 1.18788,-4.7999725 q 0.0566,-0.2181806 0.25858,-0.3717151 0.20202,-0.1616152 0.43636,-0.1616152 0.20202,0 0.34747,0.1292922 0.15354,0.1292922 0.15354,0.339392 0,0.096969 -0.0162,0.1292922 l -1.19596,4.7676495 q -0.11313,0.4929264 -0.11313,0.8080762 0,0.711107 0.47677,0.711107 0.53333,0 0.79191,-0.6545417 0.26667,-0.6626225 0.45253,-1.527264 0.0323,-0.096969 0.12929,-0.096969 h 0.20202 q 0.0646,0 0.10505,0.056565 0.0404,0.056565 0.0404,0.1050499 -0.17778,0.711107 -0.34747,1.220195 -0.16162,0.509088 -0.51717,0.9212069 -0.35555,0.4121188 -0.88888,0.4121188 -0.52525,0 -0.94545,-0.2828266 -0.41212,-0.2909074 -0.55758,-0.7838339 -0.37979,0.4848457 -0.8808,0.7757531 -0.50101,0.2909074 -1.05858,0.2909074 -0.95353,0 -1.51918,-0.5171687 -0.56566,-0.5252495 -0.56566,-1.4706987 z"
               style="font-style:normal;font-variant:normal;font-weight:normal;font-stretch:normal;font-family:cmmi10;-inkscape-font-specification:cmmi10;stroke-width:1.5515px"
               id="path961" />
            <path
               d="m 141.10434,2.8465666 q 0,-0.2424229 0.0485,-0.4606035 l 1.19595,-4.751488 h -1.73736 q -0.1697,0 -0.1697,-0.2181805 0.0647,-0.3636343 0.21818,-0.3636343 h 1.83434 l 0.66262,-2.6989745 q 0.0647,-0.2181806 0.25858,-0.371715 0.19394,-0.1535345 0.43637,-0.1535345 0.21009,0 0.34747,0.1292922 0.14545,0.1212114 0.14545,0.3313112 0,0.048485 -0.008,0.080808 0,0.024242 -0.008,0.056565 l -0.66262,2.6262476 h 1.70504 q 0.16969,0 0.16969,0.2181806 -0.008,0.040404 -0.0323,0.1373729 -0.0242,0.096969 -0.0646,0.1616152 -0.0404,0.064646 -0.12122,0.064646 h -1.80201 l -1.18787,4.7838111 q -0.12121,0.4686842 -0.12121,0.8080762 0,0.711107 0.48485,0.711107 0.72726,0 1.28484,-0.678784 0.56565,-0.6868648 0.86464,-1.5030217 0.0646,-0.096969 0.12929,-0.096969 h 0.20202 q 0.0647,0 0.10505,0.048485 0.0404,0.040404 0.0404,0.096969 0,0.032323 -0.0162,0.048485 -0.36363,1.0020145 -1.05858,1.7616061 -0.69494,0.7595916 -1.59191,0.7595916 -0.65454,0 -1.10706,-0.4282803 -0.44444,-0.4282804 -0.44444,-1.0989836 z"
               style="font-style:normal;font-variant:normal;font-weight:normal;font-stretch:normal;font-family:cmmi10;-inkscape-font-specification:cmmi10;stroke-width:1.5515px"
               id="path963" />
            <path
               d="m 149.37904,4.3738305 q -0.79191,0 -1.38989,-0.4121188 -0.5899,-0.4121189 -0.90505,-1.1070644 -0.30706,-0.7030263 -0.30706,-1.4787794 0,-1.17979125 0.58989,-2.21412877 0.59798,-1.04241823 1.61615,-1.66463693 1.01818,-0.6222187 2.18181,-0.6222187 0.71111,0 1.23636,0.3717151 0.53333,0.3636343 0.53333,1.050499 0,0.95352991 -0.7596,1.4222141 -0.75959,0.46060343 -1.71312,0.5737341 -0.95353,0.1050499 -2.10908,0.1050499 h -0.0485 q -0.26667,0.985853 -0.26667,1.6888792 0,0.7353494 0.3394,1.2929219 0.33939,0.5575726 1.03433,0.5575726 0.98586,0 1.8909,-0.4525227 0.91313,-0.4525226 1.48686,-1.2525181 0.0485,-0.048484 0.12929,-0.048484 0.0808,0 0.16162,0.096969 0.0889,0.088888 0.0889,0.169696 0,0.064646 -0.0323,0.096969 -0.60605,0.84848 -1.63231,1.3414064 -1.02626,0.4848457 -2.12524,0.4848457 z m -0.97777,-4.40401518 q 0.96161,0 1.77777,-0.08888838 0.81615,-0.0888884 1.47878,-0.4444419 0.66262,-0.36363429 0.66262,-1.12322594 0,-0.3070689 -0.1697,-0.5333302 -0.16969,-0.2343421 -0.44444,-0.3555536 -0.26667,-0.1212114 -0.55757,-0.1212114 -0.70303,0 -1.26868,0.3797958 -0.55757,0.3797958 -0.92121,0.9939337 -0.36363,0.60605716 -0.55757,1.29292192 z"
               style="font-style:normal;font-variant:normal;font-weight:normal;font-stretch:normal;font-family:cmmi10;-inkscape-font-specification:cmmi10;stroke-width:1.5515px"
               id="path965" />
          </g>
        </g>
      </g>
    </g>
  </g>
</svg>
